<?xml version="1.0" encoding="utf-8"?>
<!-- Generated by IcoMoon.io -->
<!DOCTYPE svg PUBLIC "-//W3C//DTD SVG 1.1//EN" "http://www.w3.org/Graphics/SVG/1.1/DTD/svg11.dtd">
<svg version="1.1" xmlns="http://www.w3.org/2000/svg" xmlns:xlink="http://www.w3.org/1999/xlink" width="32" height="32" viewBox="0 0 32 32">
<path d="M2.54 31.544c0.145-0.772 0.275-1.485 0.413-2.196 0.638-3.315 1.278-6.629 1.918-9.943 0.62-3.209 1.245-6.417 1.855-9.627 0.046-0.243 0.201-0.263 0.371-0.308 2.134-0.566 4.231-1.246 6.27-2.096 2.721-1.135 5.18-2.678 7.201-4.842 0.735-0.786 1.346-1.688 2.010-2.533 0.202 0.619 0.428 1.302 0.648 1.989 1.476 4.622 2.947 9.246 4.433 13.865 0.101 0.316 0.079 0.557-0.102 0.827-0.849 1.262-1.922 2.316-3.058 3.309-4.591 4.016-9.827 6.96-15.462 9.217-2.035 0.815-4.118 1.51-6.18 2.258-0.077 0.028-0.16 0.041-0.316 0.080zM21.806 4.2c-0.093 0.082-0.157 0.134-0.216 0.191-1.665 1.621-3.546 2.943-5.616 3.991-2.275 1.152-4.676 1.976-7.12 2.682-0.251 0.072-0.361 0.185-0.411 0.449-0.362 1.934-0.744 3.865-1.118 5.797-0.13 0.675-0.255 1.351-0.388 2.056 0.146-0.036 0.251-0.054 0.35-0.087 1.951-0.663 3.924-1.272 5.849-2.003 3.916-1.488 7.438-3.627 10.465-6.548 0.17-0.164 0.215-0.293 0.14-0.519-0.417-1.268-0.817-2.54-1.225-3.811-0.232-0.723-0.469-1.446-0.712-2.197zM28.155 24.066c0.433 1.128 0.858 2.238 1.305 3.402-0.404 0.157-0.783 0.319-1.172 0.451-2.264 0.773-4.598 1.259-6.952 1.644-2.261 0.37-4.531 0.682-6.801 0.994-1.157 0.159-2.322 0.26-3.49 0.363 5.893-1.78 11.82-3.469 17.11-6.855zM11.71 29.456c5.792-2.636 11.184-5.752 15.644-10.362 0.397 0.943 0.78 1.836 1.141 2.738 0.029 0.072-0.062 0.245-0.145 0.301-1.015 0.691-1.996 1.449-3.069 2.037-3.612 1.977-7.463 3.394-11.362 4.684-0.678 0.225-1.365 0.426-2.048 0.637-0.019 0.006-0.045-0.009-0.162-0.035zM8.865 32c6.632-0.52 13.278-0.974 19.792-2.744 0.255 0.736 0.52 1.505 0.798 2.309-6.901 0.146-13.746 0.29-20.59 0.435z"></path>
</svg>
