<?xml version="1.0" encoding="utf-8"?>
<!-- Generated by IcoMoon.io -->
<!DOCTYPE svg PUBLIC "-//W3C//DTD SVG 1.1//EN" "http://www.w3.org/Graphics/SVG/1.1/DTD/svg11.dtd">
<svg version="1.1" xmlns="http://www.w3.org/2000/svg" xmlns:xlink="http://www.w3.org/1999/xlink" width="36" height="32" viewBox="0 0 36 32">
<path d="M7.297 3.396h-6.265c-0.574 0-1.044 0.47-1.044 1.044v22.973c0 0.574 0.47 1.044 1.044 1.044h6.265c0.574 0 1.044-0.47 1.044-1.044v-22.973c0-0.574-0.47-1.044-1.044-1.044zM6.252 9.661h-4.177v-2.088h4.177v2.088zM17.739 3.396h-6.265c-0.574 0-1.044 0.47-1.044 1.044v22.973c0 0.574 0.47 1.044 1.044 1.044h6.265c0.574 0 1.044-0.47 1.044-1.044v-22.973c0-0.574-0.47-1.044-1.044-1.044zM16.695 9.661h-4.177v-2.088h4.177v2.088zM24.954 5.010l-5.595 2.819c-0.513 0.258-0.721 0.889-0.463 1.402l9.397 18.651c0.258 0.513 0.889 0.721 1.402 0.463l5.595-2.819c0.513-0.258 0.721-0.89 0.463-1.402l-9.397-18.651c-0.258-0.513-0.89-0.721-1.402-0.463zM30.27 27.413c0 0.577-0.468 1.044-1.044 1.044s-1.044-0.468-1.044-1.044c0-0.577 0.468-1.044 1.044-1.044s1.044 0.468 1.044 1.044z"></path>
</svg>
