<?xml version="1.0" encoding="utf-8"?>
<!-- Generated by IcoMoon.io -->
<!DOCTYPE svg PUBLIC "-//W3C//DTD SVG 1.1//EN" "http://www.w3.org/Graphics/SVG/1.1/DTD/svg11.dtd">
<svg version="1.1" xmlns="http://www.w3.org/2000/svg" xmlns:xlink="http://www.w3.org/1999/xlink" width="111" height="32" viewBox="0 0 111 32">
<path d="M5.338 15.33c-0.016 0.24-0.026 0.48-0.026 0.724 0 1.697 0.391 3.303 1.087 4.733 1.061 2.178 2.829 3.946 5.007 5.007 1.43 0.696 3.035 1.087 4.733 1.087 0.061 0 0.122-0.004 0.182-0.005v-11.546h-10.983zM11.406 6.313c-2.178 1.061-3.946 2.829-5.007 5.007-0.008 0.015-0.016 0.030-0.023 0.045h9.945v-6.135c-0.061-0.001-0.121-0.004-0.182-0.004-1.697 0-3.303 0.392-4.733 1.087zM26.939 15.33h-6.654v10.726c0.198-0.082 0.394-0.17 0.586-0.263 2.178-1.061 3.946-2.829 5.007-5.007 0.696-1.43 1.088-3.035 1.088-4.733 0-0.243-0.011-0.484-0.027-0.723zM25.901 11.365c-0.007-0.015-0.015-0.030-0.023-0.045-1.061-2.178-2.829-3.946-5.007-5.007-0.192-0.093-0.388-0.181-0.586-0.263v5.315h5.616zM16.139 32c-1.081 0-2.162-0.109-3.213-0.324-0.443-0.091-0.729-0.523-0.638-0.966s0.523-0.729 0.966-0.639c1.887 0.386 3.883 0.386 5.769 0 0.918-0.188 1.821-0.468 2.684-0.833 0.847-0.359 1.665-0.803 2.43-1.319 0.758-0.512 1.471-1.1 2.118-1.747s1.236-1.361 1.747-2.118c0.517-0.764 0.961-1.582 1.32-2.43 0.365-0.863 0.645-1.766 0.833-2.684 0.193-0.943 0.291-1.914 0.291-2.885s-0.098-1.942-0.291-2.884c-0.188-0.918-0.468-1.821-0.833-2.684-0.359-0.848-0.803-1.665-1.319-2.431-0.512-0.758-1.1-1.47-1.747-2.118-0.647-0.647-1.36-1.235-2.118-1.747-0.765-0.518-1.583-0.961-2.43-1.32-0.862-0.365-1.766-0.645-2.684-0.833-1.885-0.386-3.884-0.386-5.769 0-0.919 0.188-1.822 0.468-2.684 0.833-0.848 0.359-1.666 0.803-2.431 1.319-0.759 0.513-1.471 1.101-2.118 1.747-0.648 0.648-1.236 1.361-1.747 2.118-0.516 0.765-0.961 1.582-1.319 2.431-0.365 0.863-0.646 1.766-0.833 2.684-0.193 0.943-0.291 1.913-0.291 2.885s0.097 1.942 0.291 2.884c0.091 0.443-0.195 0.876-0.638 0.967-0.444 0.092-0.876-0.195-0.967-0.638-0.216-1.049-0.325-2.13-0.325-3.212s0.109-2.163 0.324-3.213c0.209-1.024 0.522-2.031 0.929-2.994 0.4-0.945 0.894-1.857 1.47-2.709 0.57-0.844 1.225-1.638 1.947-2.359 0.72-0.721 1.514-1.376 2.359-1.947 0.852-0.576 1.764-1.071 2.709-1.47 0.961-0.407 1.969-0.72 2.994-0.929 2.1-0.43 4.326-0.43 6.426 0 1.026 0.209 2.032 0.523 2.995 0.929 0.945 0.4 1.857 0.894 2.709 1.47 0.845 0.571 1.639 1.226 2.36 1.947s1.376 1.515 1.947 2.359c0.576 0.852 1.071 1.764 1.471 2.709 0.408 0.963 0.72 1.971 0.929 2.995 0.215 1.050 0.324 2.132 0.324 3.213s-0.109 2.163-0.324 3.213c-0.209 1.024-0.522 2.031-0.929 2.995-0.4 0.946-0.895 1.857-1.471 2.709-0.57 0.844-1.225 1.638-1.947 2.359-0.721 0.721-1.515 1.376-2.359 1.947-0.853 0.576-1.764 1.071-2.709 1.47-0.962 0.407-1.97 0.72-2.994 0.929-1.052 0.215-2.132 0.324-3.213 0.324zM37.483 6.163h4.261c1.652 0 3.351 0.757 3.351 2.749 0 1.236-0.772 2.054-1.899 2.394v0.031c1.374 0.154 2.362 1.235 2.362 2.64 0 2.378-2.069 3.119-4.138 3.119h-3.937v-10.933zM39.428 10.61h1.776c1.297 0 1.945-0.556 1.945-1.374 0-0.942-0.648-1.405-2.115-1.405h-1.606v2.779zM39.428 15.428h1.791c1.004 0 2.393-0.17 2.393-1.606 0-1.143-0.741-1.544-2.316-1.544h-1.869v3.15zM51.225 16.077h-0.046c-0.525 0.834-1.39 1.204-2.378 1.204-1.374 0-2.702-0.756-2.702-2.223 0-2.409 2.81-2.579 4.663-2.579h0.463v-0.201c0-0.911-0.71-1.39-1.698-1.39-0.772 0-1.482 0.309-1.977 0.772l-0.973-0.973c0.818-0.834 1.977-1.189 3.15-1.189 3.166 0 3.166 2.286 3.166 3.335v4.262h-1.668v-1.019zM51.117 13.776h-0.386c-1.019 0-2.78 0.077-2.78 1.143 0 0.679 0.695 0.973 1.297 0.973 1.266 0 1.868-0.664 1.868-1.699v-0.417zM59.177 11.908c-0.432-0.448-0.911-0.742-1.405-0.742-1.359 0-2.177 1.065-2.177 2.223s0.818 2.224 2.177 2.224c0.571 0 1.097-0.247 1.436-0.695l1.235 1.328c-0.756 0.757-2.022 1.034-2.671 1.034-2.238 0-4.030-1.56-4.030-3.891s1.792-3.891 4.030-3.891c0.943 0 1.977 0.34 2.687 1.128l-1.282 1.281zM61.4 5.423h1.853v7.334l2.857-3.072h2.378l-3.181 3.366 3.381 4.046h-2.455l-2.949-3.783h-0.031v3.783h-1.853v-11.674zM70.408 13.010v-1.102h1.070v-1.502h1.297v1.502h1.427v1.102h-1.427v2.27c0 0.519 0.151 0.843 0.724 0.843 0.227 0 0.541-0.043 0.703-0.162v1.092c-0.27 0.13-0.725 0.173-1.027 0.173-1.373 0-1.697-0.616-1.697-1.838v-2.378h-1.070zM77.347 11.778c1.567 0 2.821 1.092 2.821 2.724s-1.254 2.724-2.821 2.724-2.821-1.092-2.821-2.724 1.254-2.724 2.821-2.724zM77.347 16.058c0.951 0 1.524-0.746 1.524-1.557s-0.573-1.557-1.524-1.557c-0.951 0-1.524 0.746-1.524 1.557s0.573 1.557 1.524 1.557zM92.613 16.293c-1.328 0.711-2.841 1.081-4.524 1.081-3.366 0-5.775-2.285-5.775-5.698 0-3.505 2.409-5.79 5.775-5.79 1.667 0 3.166 0.355 4.308 1.374l-1.436 1.451c-0.694-0.679-1.76-1.065-2.857-1.065-2.254 0-3.752 1.729-3.752 3.906 0 2.332 1.498 4.061 3.752 4.061 0.989 0 1.884-0.185 2.564-0.572v-2.579h-2.239v-1.76h4.185v5.59zM97.539 9.499c2.239 0 4.031 1.56 4.031 3.891s-1.792 3.891-4.031 3.891c-2.239 0-4.030-1.56-4.030-3.891s1.791-3.891 4.030-3.891zM97.539 15.614c1.359 0 2.178-1.065 2.178-2.224s-0.819-2.223-2.178-2.223c-1.359 0-2.177 1.065-2.177 2.223s0.818 2.224 2.177 2.224zM108.548 15.984h-0.031c-0.541 0.896-1.513 1.297-2.548 1.297-2.285 0-3.66-1.698-3.66-3.891s1.467-3.891 3.583-3.891c1.39 0 2.131 0.649 2.517 1.128h0.046v-5.204h1.853v11.674h-1.76v-1.112zM106.34 15.614c1.359 0 2.177-1.065 2.177-2.224s-0.818-2.223-2.177-2.223-2.177 1.065-2.177 2.223c0 1.158 0.819 2.224 2.177 2.224zM37.501 20.587h0.968l1.859 4.299h0.016l1.875-4.299h0.945v5.484h-0.651v-4.601h-0.015l-1.968 4.601h-0.395l-1.967-4.601h-0.016v4.601h-0.651v-5.484zM44.472 20.587c0.248 0 0.442 0.201 0.442 0.442 0 0.256-0.186 0.441-0.442 0.441s-0.442-0.186-0.442-0.441c0-0.24 0.194-0.442 0.442-0.442zM44.17 22.446h0.604v3.625h-0.604v-3.625zM45.719 23.306c0-0.333-0.031-0.62-0.031-0.86h0.574c0 0.193 0.015 0.395 0.015 0.596h0.016c0.163-0.356 0.612-0.689 1.209-0.689 0.953 0 1.379 0.604 1.379 1.479v2.239h-0.604v-2.176c0-0.604-0.264-0.984-0.829-0.984-0.782 0-1.124 0.565-1.124 1.395v1.766h-0.604v-2.765zM50.126 20.587c0.248 0 0.442 0.201 0.442 0.442 0 0.256-0.186 0.441-0.442 0.441s-0.441-0.186-0.441-0.441c0-0.24 0.194-0.442 0.441-0.442zM49.824 22.446h0.604v3.625h-0.604v-3.625zM51.497 25.119c0.24 0.294 0.504 0.488 0.929 0.488 0.379 0 0.798-0.162 0.798-0.557 0-0.388-0.387-0.489-0.774-0.574-0.689-0.155-1.279-0.302-1.279-1.053 0-0.705 0.682-1.069 1.356-1.069 0.511 0 0.983 0.193 1.231 0.658l-0.504 0.333c-0.155-0.256-0.41-0.434-0.767-0.434-0.333 0-0.713 0.163-0.713 0.504 0 0.302 0.434 0.434 0.914 0.526 0.643 0.124 1.185 0.357 1.185 1.085 0 0.821-0.728 1.139-1.449 1.139-0.612 0-1.054-0.163-1.41-0.674l0.481-0.372zM56.493 22.958h-1.069v1.813c0 0.465 0.008 0.837 0.542 0.837 0.178 0 0.372-0.039 0.534-0.124l0.024 0.55c-0.209 0.093-0.48 0.132-0.705 0.132-0.86 0-1-0.465-1-1.216v-1.991h-0.79v-0.512h0.79v-1.030h0.605v1.030h1.069v0.512zM57.082 23.306c0-0.333-0.031-0.62-0.031-0.86h0.573c0 0.193 0.015 0.395 0.015 0.596h0.016c0.163-0.356 0.612-0.689 1.209-0.689 0.077 0 0.163 0.008 0.248 0.039l-0.039 0.612c-0.101-0.031-0.217-0.046-0.325-0.046-0.736 0-1.061 0.519-1.061 1.348v1.766h-0.604v-2.764zM59.955 20.587c0.248 0 0.442 0.201 0.442 0.442 0 0.256-0.186 0.441-0.442 0.441s-0.442-0.186-0.442-0.441c0-0.24 0.193-0.442 0.442-0.442zM59.653 22.446h0.604v3.625h-0.604v-3.625zM64.332 25.413c-0.426 0.55-0.937 0.752-1.611 0.752-1.139 0-1.836-0.852-1.836-1.906 0-1.124 0.79-1.906 1.859-1.906 1.022 0 1.719 0.697 1.719 1.898v0.193h-2.928c0.047 0.627 0.526 1.162 1.185 1.162 0.518 0 0.867-0.186 1.154-0.55l0.457 0.357zM63.813 23.933c-0.024-0.612-0.426-1.022-1.092-1.022s-1.108 0.41-1.185 1.022h2.278zM65.346 25.119c0.24 0.294 0.504 0.488 0.929 0.488 0.38 0 0.798-0.162 0.798-0.557 0-0.388-0.388-0.489-0.775-0.574-0.689-0.155-1.278-0.302-1.278-1.053 0-0.705 0.682-1.069 1.356-1.069 0.511 0 0.984 0.193 1.231 0.658l-0.504 0.333c-0.154-0.256-0.41-0.434-0.766-0.434-0.333 0-0.713 0.163-0.713 0.504 0 0.302 0.434 0.434 0.914 0.526 0.643 0.124 1.185 0.357 1.185 1.085 0 0.821-0.728 1.139-1.449 1.139-0.612 0-1.053-0.163-1.41-0.674l0.481-0.372zM70.412 20.587h0.651v5.484h-0.651v-5.484zM72.108 23.306c0-0.333-0.031-0.62-0.031-0.86h0.573c0 0.193 0.015 0.395 0.015 0.596h0.016c0.162-0.356 0.612-0.689 1.209-0.689 0.953 0 1.379 0.604 1.379 1.479v2.239h-0.604v-2.176c0-0.604-0.263-0.984-0.829-0.984-0.782 0-1.124 0.565-1.124 1.395v1.766h-0.604v-2.765zM78.189 22.958h-1.069v1.813c0 0.465 0.008 0.837 0.543 0.837 0.178 0 0.372-0.039 0.534-0.124l0.023 0.55c-0.209 0.093-0.48 0.132-0.705 0.132-0.86 0-0.999-0.465-0.999-1.216v-1.991h-0.79v-0.512h0.79v-1.030h0.604v1.030h1.069v0.512zM81.961 25.413c-0.426 0.55-0.937 0.752-1.612 0.752-1.138 0-1.835-0.852-1.835-1.906 0-1.124 0.79-1.906 1.859-1.906 1.023 0 1.72 0.697 1.72 1.898v0.193h-2.928c0.047 0.627 0.526 1.162 1.185 1.162 0.519 0 0.868-0.186 1.154-0.55l0.457 0.357zM81.442 23.933c-0.024-0.612-0.426-1.022-1.093-1.022s-1.108 0.41-1.185 1.022h2.278zM82.821 23.306c0-0.333-0.031-0.62-0.031-0.86h0.573c0 0.193 0.015 0.395 0.015 0.596h0.016c0.162-0.356 0.612-0.689 1.209-0.689 0.077 0 0.162 0.008 0.248 0.039l-0.039 0.612c-0.101-0.031-0.217-0.046-0.325-0.046-0.736 0-1.061 0.519-1.061 1.348v1.766h-0.604v-2.764zM85.485 23.306c0-0.333-0.031-0.62-0.031-0.86h0.573c0 0.193 0.015 0.395 0.015 0.596h0.016c0.163-0.356 0.612-0.689 1.208-0.689 0.953 0 1.379 0.604 1.379 1.479v2.239h-0.604v-2.176c0-0.604-0.263-0.984-0.828-0.984-0.783 0-1.124 0.565-1.124 1.395v1.766h-0.604v-2.765zM89.435 22.911c0.372-0.38 0.914-0.558 1.441-0.558 1.069 0 1.518 0.511 1.518 1.534v1.557c0 0.209 0.023 0.441 0.055 0.627h-0.581c-0.039-0.163-0.039-0.387-0.039-0.542h-0.016c-0.24 0.372-0.643 0.635-1.193 0.635-0.736 0-1.347-0.372-1.347-1.077 0-1.201 1.394-1.27 2.285-1.27h0.232v-0.108c0-0.527-0.333-0.798-0.898-0.798-0.387 0-0.79 0.132-1.077 0.395l-0.38-0.394zM91.186 24.328c-0.767 0-1.262 0.209-1.262 0.697 0 0.457 0.341 0.627 0.798 0.627 0.697 0 1.054-0.504 1.069-1.093v-0.232h-0.604zM95.276 22.958h-1.069v1.813c0 0.465 0.008 0.837 0.543 0.837 0.178 0 0.372-0.039 0.534-0.124l0.023 0.55c-0.209 0.093-0.48 0.132-0.705 0.132-0.86 0-0.999-0.465-0.999-1.216v-1.991h-0.79v-0.512h0.79v-1.030h0.604v1.030h1.069v0.512zM96.236 20.587c0.248 0 0.442 0.201 0.442 0.442 0 0.256-0.186 0.441-0.442 0.441s-0.441-0.186-0.441-0.441c0-0.24 0.193-0.442 0.441-0.442zM95.934 22.446h0.604v3.625h-0.604v-3.625zM99.188 22.353c1.115 0 1.937 0.774 1.937 1.906s-0.821 1.906-1.937 1.906c-1.116 0-1.937-0.775-1.937-1.906s0.821-1.906 1.937-1.906zM99.188 25.607c0.782 0 1.286-0.589 1.286-1.347s-0.504-1.348-1.286-1.348-1.286 0.589-1.286 1.348 0.503 1.347 1.286 1.347zM101.712 23.306c0-0.333-0.031-0.62-0.031-0.86h0.574c0 0.193 0.015 0.395 0.015 0.596h0.016c0.163-0.356 0.612-0.689 1.209-0.689 0.953 0 1.379 0.604 1.379 1.479v2.239h-0.604v-2.176c0-0.604-0.264-0.984-0.829-0.984-0.782 0-1.124 0.565-1.124 1.395v1.766h-0.604v-2.765zM105.67 22.911c0.372-0.38 0.914-0.558 1.441-0.558 1.069 0 1.518 0.511 1.518 1.534v1.557c0 0.209 0.023 0.441 0.055 0.627h-0.581c-0.039-0.163-0.039-0.387-0.039-0.542h-0.016c-0.24 0.372-0.643 0.635-1.193 0.635-0.736 0-1.347-0.372-1.347-1.077 0-1.201 1.394-1.27 2.285-1.27h0.233v-0.108c0-0.527-0.333-0.798-0.899-0.798-0.387 0-0.79 0.132-1.077 0.395l-0.38-0.394zM107.422 24.328c-0.767 0-1.262 0.209-1.262 0.697 0 0.457 0.341 0.627 0.797 0.627 0.697 0 1.054-0.504 1.069-1.093v-0.232h-0.604zM109.582 20.215h0.604v5.856h-0.604v-5.856z"></path>
</svg>
