<?xml version="1.0" encoding="utf-8"?>
<!-- Generated by IcoMoon.io -->
<!DOCTYPE svg PUBLIC "-//W3C//DTD SVG 1.1//EN" "http://www.w3.org/Graphics/SVG/1.1/DTD/svg11.dtd">
<svg version="1.1" xmlns="http://www.w3.org/2000/svg" xmlns:xlink="http://www.w3.org/1999/xlink" width="32" height="32" viewBox="0 0 32 32">
<path d="M5.164 15.273c-0.016 0.24-0.027 0.482-0.027 0.726 0 1.703 0.393 3.314 1.091 4.749 1.064 2.185 2.838 3.96 5.024 5.024 1.435 0.698 3.045 1.091 4.749 1.091 0.061 0 0.122-0.004 0.183-0.005v-11.585h-11.020zM11.252 6.227c-2.185 1.064-3.96 2.838-5.024 5.024-0.008 0.015-0.016 0.030-0.023 0.045h9.979v-6.156c-0.061-0.001-0.122-0.004-0.183-0.004-1.703 0-3.314 0.393-4.749 1.091zM26.838 15.273h-6.676v10.762c0.199-0.083 0.395-0.17 0.588-0.264 2.185-1.064 3.959-2.838 5.024-5.024 0.699-1.435 1.091-3.045 1.091-4.749 0-0.244-0.011-0.485-0.027-0.726zM25.796 11.296c-0.007-0.015-0.015-0.030-0.023-0.045-1.064-2.185-2.838-3.96-5.024-5.024-0.193-0.094-0.389-0.182-0.588-0.264v5.333h5.635zM16.001 32c-1.084 0-2.169-0.109-3.224-0.325-0.444-0.091-0.732-0.525-0.641-0.97s0.525-0.731 0.97-0.641c1.893 0.388 3.896 0.388 5.789 0 0.921-0.188 1.828-0.47 2.694-0.836 0.85-0.36 1.67-0.805 2.439-1.323 0.761-0.514 1.476-1.104 2.125-1.753s1.24-1.365 1.753-2.125c0.519-0.767 0.964-1.587 1.324-2.439 0.366-0.866 0.647-1.772 0.836-2.693 0.193-0.946 0.292-1.92 0.292-2.894s-0.098-1.949-0.292-2.894c-0.188-0.921-0.47-1.828-0.836-2.694-0.36-0.851-0.805-1.671-1.324-2.439-0.513-0.76-1.104-1.475-1.753-2.125-0.649-0.649-1.364-1.239-2.125-1.753-0.767-0.519-1.588-0.964-2.439-1.325-0.865-0.366-1.772-0.647-2.694-0.836-1.892-0.387-3.897-0.387-5.789 0-0.922 0.189-1.828 0.47-2.693 0.836-0.851 0.36-1.672 0.805-2.439 1.323-0.761 0.515-1.476 1.104-2.125 1.753-0.65 0.65-1.24 1.366-1.753 2.125-0.518 0.767-0.964 1.588-1.323 2.439-0.366 0.866-0.648 1.772-0.836 2.693-0.194 0.946-0.292 1.92-0.292 2.894s0.098 1.949 0.292 2.894c0.091 0.445-0.196 0.879-0.641 0.97-0.445 0.092-0.879-0.195-0.97-0.641-0.217-1.053-0.326-2.138-0.326-3.223s0.109-2.17 0.325-3.224c0.21-1.027 0.524-2.038 0.932-3.004 0.401-0.948 0.897-1.863 1.475-2.719 0.572-0.847 1.229-1.643 1.954-2.367 0.723-0.724 1.519-1.381 2.367-1.954 0.855-0.578 1.77-1.074 2.718-1.475 0.965-0.408 1.976-0.722 3.004-0.932 2.107-0.432 4.34-0.432 6.448 0 1.029 0.21 2.039 0.525 3.005 0.932 0.948 0.401 1.863 0.897 2.718 1.475 0.848 0.573 1.644 1.23 2.368 1.954s1.381 1.52 1.953 2.367c0.578 0.855 1.074 1.77 1.476 2.718 0.409 0.966 0.722 1.977 0.932 3.005 0.215 1.054 0.325 2.139 0.325 3.224s-0.109 2.17-0.325 3.224c-0.21 1.027-0.524 2.038-0.932 3.005-0.402 0.949-0.898 1.864-1.476 2.718-0.572 0.847-1.229 1.643-1.954 2.367-0.724 0.724-1.52 1.381-2.367 1.954-0.856 0.578-1.77 1.074-2.718 1.475-0.965 0.409-1.976 0.722-3.004 0.932-1.055 0.216-2.14 0.325-3.224 0.325z"></path>
</svg>
