<?xml version="1.0" encoding="utf-8"?>
<!-- Generated by IcoMoon.io -->
<!DOCTYPE svg PUBLIC "-//W3C//DTD SVG 1.1//EN" "http://www.w3.org/Graphics/SVG/1.1/DTD/svg11.dtd">
<svg version="1.1" xmlns="http://www.w3.org/2000/svg" xmlns:xlink="http://www.w3.org/1999/xlink" width="29" height="32" viewBox="0 0 29 32">
<path d="M4.886-0.173c0-0.562-0.017-1.060 0.004-1.556 0.033-0.792 0.562-1.33 1.257-1.312 0.706 0.017 1.183 0.556 1.195 1.361 0.007 0.476 0.001 0.953 0.001 1.485 4.758 0 9.48 0 14.291 0 0-0.488-0.007-0.98 0.001-1.469 0.013-0.831 0.522-1.388 1.243-1.376 0.692 0.013 1.188 0.559 1.211 1.361 0.013 0.492 0.002 0.984 0.002 1.467 0.643 0.073 1.235 0.074 1.794 0.214 1.78 0.45 3.036 1.988 3.056 3.861 0.046 4.003 0.025 8.009 0.033 12.014 0.005 2.344 0.042 4.691 0.011 7.034-0.025 1.827-0.856 3.298-2.13 4.518-1.947 1.867-4.348 2.858-6.864 3.55-1.558 0.429-3.161 0.689-4.75 0.995-0.33 0.064-0.685-0.013-1.030-0.013-3.236 0-6.477 0.004-9.717 0-2.805-0.002-4.49-1.728-4.492-4.614-0.004-7.576-0.002-15.15-0.001-22.724 0-3.072 1.524-4.678 4.516-4.764 0.098-0.004 0.196-0.016 0.369-0.030zM2.489 10.13c-0.013 0.127-0.027 0.208-0.027 0.288-0.001 5.707-0.007 11.416 0.002 17.123 0.001 1.228 0.653 1.872 1.855 1.874 3.261 0.006 6.522 0.002 9.783 0.002 2.134 0 4.517-1.728 5.257-3.781 0.522-1.453 0.376-2.888-0.002-4.338-0.353-1.355 0.413-2.121 1.72-1.743 1.635 0.473 3.265 0.957 4.899 1.432 0.163 0.048 0.334 0.070 0.514 0.106 0-3.682 0-7.306 0-10.963-8.002-0.001-15.973-0.001-24-0.001zM7.344 2.394c0 0.443 0.007 0.833-0.002 1.223-0.018 0.769-0.486 1.289-1.173 1.315-0.706 0.028-1.242-0.502-1.279-1.283-0.018-0.408-0.004-0.818-0.004-1.216-1.407-0.163-2.294 0.311-2.373 1.374-0.094 1.231-0.022 2.475-0.022 3.724 8.026 0 16.011 0 24.027 0 0-1.085 0.006-2.122-0.002-3.159-0.011-1.513-0.94-2.251-2.424-1.898 0 0.383 0.015 0.776-0.002 1.167-0.033 0.783-0.563 1.314-1.27 1.292-0.686-0.022-1.163-0.541-1.183-1.309-0.011-0.405-0.002-0.811-0.002-1.23-4.793 0-9.49 0-14.29 0zM21.065 27.942c2.159-0.871 4.289-1.75 5.319-4.2-1.463-0.428-2.824-0.825-4.267-1.246 0.189 1.994-0.114 3.776-1.053 5.446z"></path>
</svg>
