<?xml version="1.0" encoding="utf-8"?>
<!-- Generated by IcoMoon.io -->
<!DOCTYPE svg PUBLIC "-//W3C//DTD SVG 1.1//EN" "http://www.w3.org/Graphics/SVG/1.1/DTD/svg11.dtd">
<svg version="1.1" xmlns="http://www.w3.org/2000/svg" xmlns:xlink="http://www.w3.org/1999/xlink" width="122" height="32" viewBox="0 0 122 32">
<path d="M81.023 6.429h-1.892v-2.249h1.892v2.249zM81.023 19.617h-1.892v-11.451h1.892v11.451zM77.571 8.166v11.451h-1.841v-1.252c-0.835 1.004-1.942 1.508-3.321 1.508-1.381 0-2.463-0.453-3.247-1.354-0.783-0.869-1.176-2.028-1.176-3.476v-6.876h1.891v6.978c0 0.92 0.239 1.653 0.716 2.198 0.512 0.547 1.209 0.818 2.096 0.818 0.852 0 1.568-0.281 2.148-0.844 0.561-0.563 0.843-1.27 0.843-2.122v-7.029h1.891zM107.705 7.297v1.483c0 0.273 0.103 0.511 0.308 0.715 0.221 0.239 0.478 0.367 0.767 0.384 1.023 0.102 2.053 0.102 3.093 0 0.306-0.017 0.561-0.145 0.765-0.384 0.207-0.204 0.309-0.442 0.309-0.715v-1.483c0-0.272-0.102-0.511-0.309-0.715-0.204-0.239-0.46-0.367-0.765-0.383-1.040-0.102-2.071-0.102-3.093 0-0.289 0.016-0.547 0.144-0.767 0.383-0.204 0.203-0.308 0.442-0.308 0.715zM106.81 7.040c0-0.391 0.137-0.732 0.41-1.023 0.289-0.324 0.63-0.511 1.024-0.562 1.379-0.102 2.751-0.102 4.114 0 0.392 0.051 0.734 0.238 1.023 0.562 0.272 0.29 0.409 0.631 0.409 1.023v2.071c0 0.375-0.136 0.716-0.409 1.023-0.289 0.324-0.63 0.511-1.023 0.562-1.364 0.12-2.734 0.12-4.114 0-0.393-0.051-0.735-0.238-1.024-0.562-0.272-0.306-0.41-0.648-0.41-1.023v-2.071zM109.085 1.24c0-0.171-0.067-0.333-0.204-0.486-0.121-0.136-0.281-0.212-0.485-0.23-0.649-0.051-1.303-0.051-1.968 0-0.187 0.017-0.349 0.094-0.485 0.23-0.137 0.153-0.204 0.316-0.204 0.486v0.919c0 0.171 0.067 0.332 0.204 0.486 0.136 0.136 0.298 0.212 0.485 0.23 0.665 0.085 1.321 0.085 1.968 0 0.204-0.017 0.364-0.094 0.485-0.23 0.137-0.137 0.204-0.298 0.204-0.486v-0.919zM109.649 1.061v1.33c0 0.255-0.094 0.476-0.281 0.664-0.188 0.204-0.4 0.316-0.639 0.332-0.869 0.086-1.756 0.086-2.658 0-0.239-0.016-0.453-0.128-0.641-0.332-0.169-0.188-0.255-0.409-0.255-0.664v-1.33c0-0.255 0.085-0.477 0.255-0.664 0.188-0.204 0.402-0.325 0.641-0.36 0.902-0.051 1.789-0.051 2.658 0 0.239 0.035 0.451 0.154 0.639 0.359 0.187 0.187 0.281 0.409 0.281 0.665zM32.817 8.166v11.451h-1.84v-1.252c-0.836 1.004-1.943 1.508-3.323 1.508-1.364 0-2.445-0.453-3.246-1.354-0.75-0.869-1.125-2.028-1.125-3.476v-6.876h1.841v6.978c0 0.92 0.247 1.653 0.742 2.198 0.493 0.547 1.192 0.818 2.095 0.818 0.852 0 1.56-0.281 2.122-0.844 0.579-0.563 0.869-1.27 0.869-2.122v-7.029h1.865zM36.754 8.166v1.278c0.426-0.579 0.997-1.005 1.712-1.278 0.665-0.273 1.346-0.366 2.045-0.281v1.866c-1.057-0.068-1.917 0.169-2.582 0.715-0.732 0.579-1.098 1.415-1.098 2.506v6.646h-1.892v-11.452h1.815zM66.299 6.429h-1.865v-2.249h1.865v2.249zM66.299 8.166v13.034c0 1.091-0.27 1.943-0.817 2.556-0.613 0.681-1.5 0.971-2.658 0.869v-1.841c0.528 0.052 0.93-0.050 1.201-0.306 0.272-0.289 0.41-0.724 0.41-1.303v-13.008h1.864zM54.594 3.054v6.262c0.852-0.971 1.951-1.457 3.296-1.457 1.364 0 2.445 0.451 3.246 1.354 0.75 0.869 1.125 2.036 1.125 3.502v6.901h-1.841v-6.979c0-0.903-0.238-1.627-0.715-2.173-0.494-0.579-1.193-0.869-2.096-0.869-0.869 0-1.584 0.29-2.147 0.869-0.579 0.579-0.868 1.295-0.868 2.147v7.004h-1.866v-16.562h1.866zM46.056 9.597c-1.072 0-1.977 0.418-2.709 1.254-0.767 0.852-1.15 1.865-1.15 3.041s0.383 2.181 1.15 3.015c0.732 0.818 1.636 1.228 2.709 1.228 0.734 0 1.397-0.188 1.994-0.563 0.545-0.375 0.989-0.877 1.329-1.508h1.994c-0.375 1.142-1.040 2.061-1.994 2.76-0.954 0.7-2.061 1.048-3.323 1.048-1.584 0-2.939-0.587-4.063-1.764-1.125-1.159-1.686-2.564-1.686-4.218 0-1.67 0.562-3.084 1.686-4.243 1.125-1.192 2.479-1.789 4.063-1.789 1.262 0 2.369 0.349 3.323 1.048 0.938 0.681 1.602 1.61 1.994 2.786h-1.994c-0.34-0.648-0.793-1.158-1.354-1.533-0.597-0.375-1.252-0.562-1.968-0.562zM103.079 10.441c-0.7-0.579-1.465-0.869-2.3-0.869-0.817 0-1.575 0.273-2.275 0.818-0.732 0.597-1.218 1.364-1.457 2.3h7.439c-0.239-0.92-0.708-1.67-1.407-2.249zM106.556 14.377h-9.61c0.102 1.141 0.554 2.069 1.354 2.786 0.75 0.665 1.619 0.996 2.608 0.996 1.602 0 2.733-0.699 3.398-2.096h1.968c-0.392 1.209-1.056 2.147-1.994 2.811-0.938 0.665-2.061 0.997-3.373 0.997-1.654 0-3.042-0.579-4.167-1.737-1.142-1.159-1.713-2.573-1.713-4.243s0.562-3.084 1.686-4.243c1.125-1.192 2.479-1.789 4.063-1.789 1.551 0 2.88 0.579 3.989 1.737 1.209 1.245 1.805 2.839 1.789 4.782zM100.778 28.51v1.483c0 0.273 0.113 0.519 0.333 0.741 0.204 0.222 0.451 0.351 0.74 0.384 1.056 0.085 2.097 0.085 3.12 0 0.289-0.034 0.536-0.163 0.742-0.384 0.221-0.221 0.332-0.467 0.332-0.741v-1.483c0-0.255-0.111-0.494-0.332-0.714-0.205-0.222-0.453-0.351-0.742-0.383-1.023-0.086-2.062-0.086-3.12 0-0.289 0.032-0.536 0.161-0.74 0.383-0.221 0.219-0.333 0.458-0.333 0.714zM91.731 27.029c0.121 0.12 0.179 0.265 0.179 0.435v0.817c0 0.153-0.059 0.29-0.179 0.41-0.12 0.136-0.255 0.214-0.41 0.23-0.546 0.051-1.098 0.051-1.662 0-0.153-0.017-0.29-0.094-0.409-0.23-0.102-0.12-0.153-0.256-0.153-0.41v-0.817c0-0.171 0.051-0.316 0.153-0.435 0.118-0.12 0.255-0.187 0.409-0.204 0.563-0.034 1.117-0.034 1.662 0 0.154 0.016 0.291 0.085 0.41 0.204zM97.865 25.878c0-0.187 0.077-0.366 0.23-0.536 0.137-0.153 0.298-0.247 0.486-0.282 0.699-0.034 1.406-0.034 2.12 0 0.188 0.017 0.359 0.111 0.511 0.282 0.136 0.169 0.204 0.349 0.204 0.536v0.818c1.364-0.137 2.709-0.137 4.038 0 0.392 0.034 0.734 0.204 1.023 0.51 0.273 0.308 0.411 0.656 0.411 1.048v2.097c0 0.374-0.137 0.714-0.411 1.023-0.289 0.323-0.63 0.493-1.023 0.51-1.363 0.153-2.734 0.153-4.114 0-0.411-0.017-0.758-0.187-1.048-0.51-0.272-0.309-0.409-0.649-0.409-1.023v-2.097c0-0.169 0.032-0.332 0.102-0.485-0.477 0.017-0.946 0-1.406-0.051-0.188-0.017-0.349-0.102-0.486-0.255-0.153-0.171-0.23-0.341-0.23-0.512v-1.072zM98.479 25.648c-0.102 0.121-0.154 0.239-0.154 0.359v0.767c0 0.136 0.052 0.265 0.154 0.382 0.103 0.103 0.23 0.164 0.384 0.179 0.443 0.051 0.886 0.060 1.329 0.026 0.034-0.051 0.068-0.102 0.102-0.154 0.204-0.221 0.434-0.364 0.691-0.433v-0.767c0-0.12-0.052-0.238-0.154-0.359-0.102-0.12-0.229-0.178-0.383-0.178-0.528-0.051-1.055-0.051-1.583 0-0.156 0.001-0.282 0.060-0.385 0.179zM92.243 20.229c1.004-0.085 2.010-0.085 3.016 0 0.289 0.035 0.536 0.164 0.74 0.384 0.188 0.238 0.282 0.493 0.282 0.766v1.509c0 0.272-0.094 0.519-0.282 0.742-0.204 0.238-0.451 0.366-0.74 0.383-1.005 0.103-2.011 0.103-3.016 0-0.289-0.017-0.536-0.145-0.742-0.383-0.187-0.222-0.281-0.469-0.281-0.742v-1.509c0-0.273 0.094-0.528 0.281-0.766 0.205-0.221 0.453-0.349 0.742-0.384zM94.901 20.766c-0.766-0.051-1.517-0.051-2.249 0-0.205 0.019-0.392 0.102-0.562 0.256-0.154 0.169-0.23 0.349-0.23 0.537v1.072c0 0.188 0.075 0.366 0.23 0.537 0.169 0.171 0.357 0.263 0.562 0.281 0.732 0.051 1.482 0.051 2.249 0 0.205-0.019 0.384-0.11 0.537-0.281s0.23-0.349 0.23-0.537v-1.072c0-0.188-0.077-0.367-0.23-0.537-0.153-0.154-0.333-0.238-0.537-0.256zM109.674 17.215c0-0.664 0.255-1.27 0.766-1.814 0.494-0.563 1.091-0.879 1.79-0.947 2.436-0.203 4.864-0.203 7.284 0 0.681 0.068 1.27 0.384 1.764 0.947 0.511 0.544 0.766 1.15 0.766 1.814v3.68c0 0.665-0.255 1.27-0.766 1.814-0.478 0.562-1.065 0.879-1.764 0.945-2.42 0.222-4.849 0.222-7.284 0-0.699-0.067-1.295-0.383-1.79-0.945-0.511-0.546-0.766-1.149-0.766-1.814v-3.68zM111.822 16.421c-0.375 0.375-0.563 0.801-0.563 1.278v2.607c0 0.46 0.188 0.895 0.563 1.303 0.374 0.376 0.816 0.597 1.329 0.664 1.823 0.136 3.647 0.136 5.469 0 0.512-0.068 0.955-0.288 1.33-0.664 0.391-0.41 0.587-0.844 0.587-1.303v-2.606c0-0.477-0.196-0.903-0.587-1.278-0.375-0.391-0.818-0.613-1.33-0.665-1.822-0.153-3.646-0.153-5.469 0-0.513 0.052-0.955 0.274-1.329 0.664zM106.122 20.281c-0.070 0.085-0.102 0.179-0.102 0.281v0.613c0 0.102 0.032 0.196 0.102 0.281 0.084 0.085 0.187 0.136 0.306 0.153 0.426 0.034 0.844 0.034 1.252 0 0.12-0.017 0.222-0.068 0.308-0.153s0.128-0.179 0.128-0.281v-0.613c0-0.102-0.043-0.196-0.128-0.281-0.085-0.103-0.188-0.153-0.308-0.153-0.41-0.019-0.826-0.019-1.252 0-0.12 0-0.223 0.050-0.306 0.153zM105.636 21.302v-0.843c0-0.154 0.060-0.29 0.179-0.41 0.12-0.121 0.257-0.197 0.41-0.23 0.561-0.051 1.117-0.051 1.661 0 0.154 0.032 0.29 0.11 0.411 0.23 0.102 0.12 0.153 0.255 0.153 0.41v0.843c0 0.154-0.051 0.29-0.153 0.411-0.121 0.118-0.257 0.187-0.411 0.204-0.544 0.051-1.099 0.051-1.661 0-0.153-0.017-0.29-0.086-0.41-0.204-0.12-0.121-0.179-0.256-0.179-0.411zM88.255 9.597c-1.056 0-1.959 0.418-2.709 1.254-0.75 0.852-1.125 1.865-1.125 3.041s0.375 2.181 1.125 3.015c0.75 0.818 1.653 1.228 2.709 1.228 0.732 0 1.388-0.188 1.968-0.563 0.562-0.375 1.005-0.877 1.329-1.508h2.045c-0.391 1.142-1.056 2.061-1.993 2.76-0.973 0.7-2.089 1.048-3.35 1.048-1.583 0-2.929-0.587-4.038-1.764-1.127-1.159-1.688-2.564-1.688-4.218 0-1.67 0.561-3.084 1.688-4.243 1.123-1.192 2.47-1.789 4.038-1.789 1.26 0 2.369 0.349 3.323 1.048 0.954 0.681 1.627 1.61 2.018 2.786h-2.045c-0.323-0.648-0.766-1.158-1.329-1.533-0.579-0.375-1.235-0.562-1.967-0.562zM91.552 27.565c0-0.102-0.034-0.196-0.102-0.281-0.103-0.086-0.214-0.137-0.333-0.154-0.409-0.051-0.816-0.051-1.227 0-0.118 0.017-0.222 0.068-0.306 0.154-0.086 0.085-0.128 0.179-0.128 0.281v0.587c0 0.273 0.145 0.426 0.434 0.46 0.411 0.034 0.818 0.034 1.227 0 0.29-0.034 0.435-0.187 0.435-0.46v-0.587zM88.563 23.603c0.204 0.017 0.384 0.103 0.537 0.256 0.136 0.169 0.204 0.351 0.204 0.536v1.075c0 0.186-0.068 0.357-0.204 0.51-0.153 0.171-0.333 0.266-0.537 0.282-0.7 0.051-1.397 0.051-2.097 0-0.204-0.017-0.374-0.111-0.51-0.282-0.153-0.153-0.23-0.324-0.23-0.51v-1.075c0-0.186 0.077-0.366 0.23-0.536 0.136-0.153 0.306-0.239 0.51-0.256 0.7-0.051 1.397-0.051 2.097 0zM88.868 24.55c0-0.136-0.051-0.266-0.153-0.383-0.121-0.121-0.257-0.179-0.41-0.179-0.51-0.052-1.031-0.052-1.559 0-0.154 0-0.282 0.059-0.384 0.179-0.118 0.118-0.179 0.247-0.179 0.383v0.715c0 0.136 0.061 0.273 0.179 0.41 0.102 0.102 0.23 0.161 0.384 0.178 0.528 0.035 1.048 0.035 1.559 0 0.153-0.017 0.289-0.075 0.41-0.178 0.102-0.136 0.153-0.273 0.153-0.41v-0.715zM14.109 3.054v6.262c0.852-0.971 1.942-1.457 3.271-1.457 1.38 0 2.471 0.451 3.272 1.354 0.767 0.869 1.15 2.036 1.15 3.502v6.901h-1.892v-6.979c0-0.903-0.23-1.627-0.689-2.173-0.511-0.579-1.209-0.869-2.096-0.869-0.869 0-1.584 0.29-2.147 0.869-0.579 0.579-0.868 1.295-0.868 2.147v7.004h-1.892v-16.562h1.892zM11.092 11.692h-2.020c-0.34-0.646-0.792-1.158-1.354-1.533-0.579-0.375-1.235-0.562-1.967-0.562-1.057 0-1.96 0.418-2.71 1.254-0.75 0.852-1.125 1.865-1.125 3.041s0.375 2.181 1.125 3.015c0.75 0.818 1.653 1.228 2.71 1.228 0.732 0 1.396-0.188 1.993-0.563 0.563-0.375 1.005-0.877 1.329-1.508h2.020c-0.392 1.142-1.056 2.061-1.994 2.76-0.954 0.7-2.069 1.048-3.347 1.048-1.568 0-2.922-0.587-4.065-1.764-1.125-1.159-1.686-2.564-1.686-4.218 0-1.67 0.562-3.084 1.686-4.243 1.142-1.192 2.497-1.789 4.065-1.789 1.278 0 2.393 0.349 3.347 1.048 0.92 0.681 1.585 1.611 1.994 2.786zM118.338 26.338v0.817c0 0.154-0.059 0.29-0.178 0.411-0.102 0.136-0.239 0.212-0.41 0.23-0.546 0.032-1.099 0.032-1.662 0-0.136-0.019-0.273-0.094-0.41-0.23-0.12-0.121-0.178-0.256-0.178-0.411v-0.817c0-0.154 0.059-0.298 0.178-0.434 0.136-0.136 0.273-0.205 0.41-0.205 0.562-0.051 1.117-0.051 1.662 0 0.169 0 0.308 0.070 0.41 0.205 0.118 0.136 0.178 0.28 0.178 0.434zM118.006 27.002v-0.587c0-0.102-0.051-0.196-0.153-0.281-0.068-0.085-0.162-0.137-0.281-0.154-0.426-0.051-0.844-0.051-1.252 0-0.12 0.017-0.221 0.070-0.308 0.154-0.085 0.085-0.126 0.179-0.126 0.281v0.587c0 0.121 0.042 0.222 0.126 0.308 0.070 0.085 0.171 0.136 0.308 0.154 0.41 0.032 0.826 0.032 1.252 0 0.12-0.019 0.214-0.070 0.281-0.154 0.102-0.085 0.153-0.187 0.153-0.308zM118.44 8.396c-0.186 0.016-0.349 0.093-0.485 0.23-0.136 0.153-0.204 0.315-0.204 0.485v0.946c0 0.171 0.068 0.324 0.204 0.46 0.136 0.137 0.299 0.214 0.485 0.23 0.665 0.086 1.322 0.086 1.968 0 0.204-0.016 0.367-0.093 0.485-0.23 0.137-0.136 0.204-0.289 0.204-0.46v-0.945c0-0.171-0.067-0.332-0.204-0.485-0.118-0.137-0.281-0.214-0.485-0.23-0.646-0.053-1.303-0.053-1.968-0.001zM118.082 7.935c0.886-0.068 1.772-0.068 2.658 0 0.239 0.017 0.451 0.128 0.639 0.332 0.187 0.205 0.281 0.426 0.281 0.665v1.329c0 0.255-0.094 0.477-0.281 0.665-0.188 0.204-0.4 0.315-0.639 0.332-0.886 0.085-1.772 0.085-2.658 0-0.239-0.017-0.451-0.128-0.639-0.332-0.187-0.188-0.281-0.41-0.281-0.665v-1.329c0-0.239 0.094-0.46 0.281-0.665 0.189-0.204 0.4-0.313 0.639-0.332z"></path>
</svg>
