<?xml version="1.0" encoding="utf-8"?>
<!-- Generated by IcoMoon.io -->
<!DOCTYPE svg PUBLIC "-//W3C//DTD SVG 1.1//EN" "http://www.w3.org/Graphics/SVG/1.1/DTD/svg11.dtd">
<svg version="1.1" xmlns="http://www.w3.org/2000/svg" xmlns:xlink="http://www.w3.org/1999/xlink" width="32" height="32" viewBox="0 0 32 32">
<path d="M16 32c8.837 0 16-7.163 16-16s-7.163-16-16-16c-8.837 0-16 7.163-16 16s7.163 16 16 16zM15.969 24.888l-0.050-0.005-0.050-0.002-0.011-0.004-0.046-0.004-0.12-0.051-0.229-0.077c-0.131-0.072-0.261-0.146-0.39-0.219-1.402-0.809-2.753-1.709-4.027-2.706-1.131-0.885-2.211-1.851-3.142-2.947-0.162-0.191-0.319-0.385-0.47-0.584-0.12-0.158-0.237-0.319-0.349-0.483-0.658-0.96-1.183-2.044-1.344-3.206-0.074-0.532-0.061-1.069 0.009-1.6 0.040-0.302 0.097-0.602 0.172-0.897 0.299-1.183 0.885-2.323 1.82-3.127 0.306-0.262 0.644-0.485 1.006-0.66 0.365-0.176 0.752-0.304 1.149-0.385 0.493-0.1 0.999-0.125 1.501-0.1 0.735 0.038 1.464 0.19 2.149 0.461 0.916 0.362 1.742 0.932 2.455 1.679l0.56-0.539c0.644-0.548 1.385-0.976 2.185-1.249 0.627-0.213 1.285-0.331 1.947-0.356 0.471-0.019 0.944 0.009 1.408 0.103 0.768 0.156 1.492 0.493 2.096 0.995 0.42 0.349 0.777 0.77 1.067 1.233 0.353 0.563 0.609 1.185 0.782 1.826 0.099 0.367 0.171 0.742 0.216 1.119 0.038 0.326 0.056 0.656 0.042 0.984-0.055 1.299-0.595 2.525-1.307 3.595-0.527 0.791-1.153 1.514-1.823 2.186-0.796 0.798-1.66 1.527-2.556 2.209-0.552 0.42-1.118 0.821-1.695 1.205-0.454 0.304-0.916 0.597-1.384 0.88-0.34 0.206-0.683 0.407-1.033 0.597l-0.072 0.036-0.135 0.043-0.035 0.016-0.037 0.006-0.021 0.006-0.050 0.006-0.050 0.009-0.058 0.004h-0.011l-0.011 0.001h-0.058zM16.006 22.591c1.19-0.695 2.336-1.456 3.425-2.291 0.992-0.761 1.944-1.585 2.782-2.515 0.493-0.548 0.95-1.135 1.313-1.778 0.268-0.474 0.487-0.984 0.59-1.521 0.034-0.176 0.055-0.354 0.060-0.533 0.005-0.176-0.005-0.352-0.023-0.527-0.021-0.212-0.056-0.422-0.102-0.63-0.031-0.144-0.069-0.286-0.112-0.427-0.231-0.757-0.639-1.507-1.311-1.958-0.332-0.223-0.715-0.358-1.11-0.417-0.289-0.043-0.582-0.046-0.873-0.028-0.412 0.026-0.819 0.104-1.21 0.237-0.698 0.238-1.326 0.652-1.839 1.181-0.149 0.154-0.289 0.318-0.417 0.49-0.088 0.119-0.173 0.242-0.244 0.371l-0.041 0.069c-0.041 0.058-0.049 0.073-0.097 0.127l-0.099 0.071-0.054 0.069-0.101 0.042-0.132 0.095-0.201 0.043-0.077 0.031-0.065-0.001-0.046 0.010-0.075-0.013-0.132-0.003-0.1-0.036-0.085-0.014-0.084-0.046-0.069-0.025-0.051-0.041-0.075-0.041-0.084-0.087-0.068-0.055-0.032-0.048-0.038-0.038-0.018-0.045-0.126-0.191c-0.036-0.055-0.072-0.11-0.11-0.164-0.595-0.829-1.441-1.478-2.418-1.786-0.4-0.126-0.817-0.193-1.236-0.21-0.302-0.011-0.607 0.003-0.903 0.063-0.424 0.085-0.823 0.267-1.156 0.544-0.575 0.478-0.927 1.182-1.13 1.889-0.040 0.139-0.075 0.281-0.104 0.424-0.073 0.351-0.119 0.715-0.108 1.074 0.006 0.225 0.038 0.449 0.088 0.669 0.121 0.524 0.347 1.020 0.617 1.483 0.398 0.681 0.898 1.299 1.435 1.874 0.491 0.526 1.018 1.017 1.565 1.483 0.629 0.535 1.284 1.039 1.958 1.516 0.584 0.414 1.18 0.809 1.788 1.185l0.732 0.429z"></path>
</svg>
