<?xml version="1.0" encoding="utf-8"?>
<!-- Generated by IcoMoon.io -->
<!DOCTYPE svg PUBLIC "-//W3C//DTD SVG 1.1//EN" "http://www.w3.org/Graphics/SVG/1.1/DTD/svg11.dtd">
<svg version="1.1" xmlns="http://www.w3.org/2000/svg" xmlns:xlink="http://www.w3.org/1999/xlink" width="32" height="32" viewBox="0 0 32 32">
<path d="M15.961 27.299l-0.065-0.006-0.065-0.003-0.015-0.005-0.059-0.005-0.154-0.066-0.294-0.099c-0.168-0.092-0.335-0.187-0.501-0.281-1.798-1.037-3.531-2.193-5.165-3.47-1.451-1.135-2.836-2.374-4.030-3.779-0.208-0.244-0.41-0.493-0.603-0.749-0.154-0.202-0.304-0.41-0.448-0.619-0.844-1.231-1.517-2.621-1.724-4.112-0.095-0.682-0.078-1.371 0.012-2.052 0.051-0.388 0.125-0.772 0.221-1.15 0.384-1.517 1.135-2.98 2.335-4.011 0.392-0.336 0.826-0.622 1.291-0.846 0.468-0.226 0.965-0.39 1.474-0.493 0.633-0.128 1.281-0.161 1.925-0.128 0.943 0.048 1.878 0.244 2.756 0.591 1.175 0.464 2.234 1.195 3.149 2.153l0.719-0.691c0.825-0.702 1.777-1.251 2.802-1.602 0.804-0.274 1.648-0.424 2.497-0.456 0.605-0.024 1.211 0.012 1.806 0.132 0.985 0.2 1.913 0.632 2.688 1.276 0.539 0.448 0.997 0.988 1.369 1.582 0.453 0.722 0.781 1.52 1.003 2.342 0.127 0.471 0.22 0.951 0.277 1.436 0.049 0.419 0.072 0.841 0.054 1.262-0.071 1.666-0.763 3.239-1.676 4.61-0.676 1.015-1.478 1.942-2.338 2.804-1.021 1.023-2.129 1.959-3.279 2.833-0.708 0.538-1.434 1.052-2.173 1.546-0.583 0.389-1.175 0.766-1.775 1.129-0.436 0.264-0.876 0.523-1.325 0.765l-0.092 0.046-0.173 0.056-0.045 0.021-0.047 0.008-0.026 0.008-0.064 0.008-0.064 0.011-0.075 0.005h-0.014l-0.014 0.001h-0.075zM16.008 24.353c1.527-0.891 2.996-1.867 4.393-2.939 1.272-0.976 2.494-2.033 3.568-3.226 0.632-0.702 1.218-1.456 1.684-2.28 0.344-0.608 0.625-1.262 0.756-1.951 0.044-0.225 0.070-0.454 0.077-0.683 0.006-0.225-0.006-0.451-0.030-0.676-0.027-0.272-0.072-0.542-0.131-0.808-0.040-0.184-0.088-0.367-0.143-0.547-0.296-0.971-0.82-1.933-1.681-2.512-0.426-0.286-0.917-0.46-1.424-0.535-0.37-0.055-0.746-0.059-1.119-0.036-0.528 0.034-1.051 0.133-1.551 0.304-0.896 0.306-1.701 0.836-2.359 1.515-0.192 0.198-0.371 0.408-0.535 0.628-0.113 0.152-0.222 0.31-0.313 0.476l-0.053 0.088c-0.052 0.074-0.063 0.094-0.124 0.162l-0.127 0.091-0.069 0.088-0.13 0.054-0.169 0.121-0.257 0.055-0.099 0.040-0.083-0.002-0.059 0.013-0.097-0.016-0.169-0.004-0.128-0.046-0.109-0.018-0.108-0.058-0.088-0.032-0.066-0.053-0.096-0.052-0.108-0.111-0.088-0.070-0.041-0.062-0.048-0.049-0.023-0.057-0.161-0.244c-0.046-0.071-0.092-0.141-0.141-0.211-0.762-1.063-1.848-1.896-3.102-2.29-0.513-0.161-1.048-0.248-1.585-0.269-0.388-0.015-0.778 0.004-1.158 0.081-0.544 0.109-1.055 0.343-1.482 0.698-0.738 0.613-1.188 1.516-1.449 2.423-0.051 0.179-0.096 0.36-0.133 0.544-0.093 0.451-0.152 0.917-0.139 1.377 0.008 0.289 0.048 0.576 0.113 0.858 0.155 0.672 0.445 1.309 0.792 1.902 0.511 0.873 1.152 1.666 1.84 2.403 0.629 0.674 1.305 1.304 2.007 1.902 0.806 0.687 1.647 1.332 2.511 1.944 0.749 0.531 1.514 1.037 2.294 1.519l0.939 0.55z"></path>
</svg>
