<?xml version="1.0" encoding="utf-8"?>
<!-- Generated by IcoMoon.io -->
<!DOCTYPE svg PUBLIC "-//W3C//DTD SVG 1.1//EN" "http://www.w3.org/Graphics/SVG/1.1/DTD/svg11.dtd">
<svg version="1.1" xmlns="http://www.w3.org/2000/svg" xmlns:xlink="http://www.w3.org/1999/xlink" width="32" height="32" viewBox="0 0 32 32">
<path d="M10.142 25.037v-2.539h19.298v-11.869c0 0-1.887 1.296-2.256 1.55l-1.457 1.006c-2.057 1.42-4.113 2.84-6.163 4.269-0.054 0.038-0.083 0.052-0.095 0.056-0.003-0.004-0.027-0.016-0.071-0.046-3.899-2.709-7.535-5.223-11.117-7.686-0.254-0.174-0.591-0.279-0.903-0.281-1.392-0.008-2.785-0.010-4.177-0.010l-3.203 0.001v-2.525h32v18.075h-21.858zM14.454 10.915c1.581 1.094 3.113 2.153 4.652 3.203 0.091 0.062 0.2 0.093 0.325 0.093 0.175 0 0.381-0.064 0.527-0.163 1.142-0.778 2.279-1.565 3.417-2.352l3.117-2.166h-14.040l2.003 1.385zM6.827 17.706h5.546v1.537h-5.546v-1.537zM3.146 12.753h5.529v1.534h-5.529v-1.534z"></path>
</svg>
