<?xml version="1.0" encoding="utf-8"?>
<!-- Generated by IcoMoon.io -->
<!DOCTYPE svg PUBLIC "-//W3C//DTD SVG 1.1//EN" "http://www.w3.org/Graphics/SVG/1.1/DTD/svg11.dtd">
<svg version="1.1" xmlns="http://www.w3.org/2000/svg" xmlns:xlink="http://www.w3.org/1999/xlink" width="32" height="32" viewBox="0 0 32 32">
<path d="M16.003 18.663l14.278-12.606c-0.096-0.013-0.181-0.057-0.282-0.057h-28c-0.059 0-0.112 0.030-0.172 0.035l14.176 12.627zM32 8.001c0-0.238-0.060-0.458-0.136-0.67l-10.083 8.901 9.952 8.709c0.157-0.284 0.267-0.594 0.267-0.94v-15.999zM0.157 7.228c-0.098 0.239-0.157 0.499-0.157 0.774v16c0 0.291 0.071 0.565 0.183 0.813l10.048-8.612-10.074-8.975zM20.269 17.564l-4.273 3.773-4.26-3.796-9.842 8.437c0.038 0.002 0.069 0.021 0.107 0.021h27.91l-9.642-8.435z"></path>
</svg>
