<?xml version="1.0" encoding="utf-8"?>
<!-- Generated by IcoMoon.io -->
<!DOCTYPE svg PUBLIC "-//W3C//DTD SVG 1.1//EN" "http://www.w3.org/Graphics/SVG/1.1/DTD/svg11.dtd">
<svg version="1.1" xmlns="http://www.w3.org/2000/svg" xmlns:xlink="http://www.w3.org/1999/xlink" width="132" height="32" viewBox="0 0 132 32">
<path d="M74.607 10.131l-3.667 0.395-0.050-2.843 3.683-0.395 0.033 2.843zM80.312 7.287v19.748l-3.6 0.228v-19.548l3.6-0.428zM92.858 12.286l3.486 0.74-8.519 18.976-3.519-0.511 2.927-6.214-6.213-12.252 3.486-0.741 4.522 9.159 3.83-9.156zM74.607 27.035l-3.552 0.228v-14.55l3.552-0.313v14.634zM21.967 11.034l0.033-0.031-0.033 15.323-3.682-0.872v-13.004l-7.268-7.35-7.267 7.267v13.168l-3.716 0.792v-15.323h-0.033l11.016-11.001 10.951 11.032zM12.628 13.928l1.282 0.972c0.889 0.832 1.425 1.731 1.612 2.695 0.23 1.13 0.137 2.071-0.279 2.828-0.44 0.965-1.14 1.825-2.105 2.58 0.098 0.44 0.098 0.894 0 1.366-0.11 0.548-0.297 0.991-0.56 1.332-1.25-0.133-2.33-0.697-3.239-1.695-0.625-0.591-1.014-1.397-1.168-2.416-0.132-0.889 0.060-1.787 0.576-2.695 0.263-0.451 0.537-0.818 0.823-1.102l0.082 0.279c0.076 0.23 0.247 0.553 0.509 0.969 0.209 0.317 0.456 0.658 0.741 1.019 0-0.591 0.114-1.161 0.345-1.71 0.11-0.262 0.361-0.789 0.756-1.575 0.209-0.417 0.378-0.884 0.51-1.4 0.099-0.471 0.148-0.849 0.148-1.133l-0.032-0.314zM16.492 20.175l0.478 0.906c0.285 0.733 0.361 1.386 0.23 1.956-0.153 0.7-0.438 1.21-0.855 1.53-0.427 0.36-1.003 0.606-1.726 0.74l-0.987 0.115c-0.044-0.317-0.044-0.685 0-1.1 0.11-0.834 0.438-1.508 0.987-2.024 0.098-0.076 0.373-0.302 0.822-0.674 0.209-0.175 0.417-0.395 0.625-0.658 0.307-0.396 0.449-0.659 0.427-0.792zM21.967 12.332l0.033-0.031-0.033 15.323-3.682-0.872v-13.004l-7.268-7.35-7.267 7.267v13.168l-3.716 0.792v-15.323h-0.033l11.016-11.001 10.951 11.032zM12.628 15.082l1.282 0.972c0.889 0.832 1.425 1.731 1.612 2.695 0.23 1.13 0.137 2.071-0.279 2.828-0.44 0.965-1.14 1.825-2.105 2.58 0.098 0.44 0.098 0.894 0 1.366-0.11 0.548-0.297 0.991-0.56 1.332-1.25-0.133-2.33-0.697-3.239-1.695-0.625-0.591-1.014-1.397-1.168-2.416-0.132-0.889 0.060-1.787 0.576-2.695 0.263-0.451 0.537-0.818 0.823-1.102l0.082 0.279c0.076 0.23 0.247 0.553 0.509 0.969 0.209 0.317 0.456 0.658 0.741 1.019 0-0.591 0.114-1.161 0.345-1.71 0.11-0.262 0.361-0.789 0.756-1.575 0.209-0.417 0.378-0.884 0.51-1.4 0.099-0.471 0.148-0.849 0.148-1.133l-0.032-0.314zM16.492 21.329l0.478 0.906c0.285 0.733 0.361 1.386 0.23 1.956-0.153 0.7-0.438 1.21-0.855 1.53-0.427 0.36-1.003 0.606-1.726 0.74l-0.987 0.115c-0.044-0.317-0.044-0.685 0-1.1 0.11-0.834 0.438-1.508 0.987-2.024 0.098-0.076 0.373-0.302 0.822-0.674 0.209-0.175 0.417-0.395 0.625-0.658 0.307-0.396 0.449-0.659 0.427-0.792zM36.954 11.315h-7.038v4.404h5.212v3.57h-5.212v7.745l-3.699 0.459v-19.779h9.914l0.823 3.6zM41.179 15.261c-1.25 0-2.603 0.285-4.062 0.855l0.97-3.437c1.304-0.264 2.685-0.396 4.144-0.396 1.469 0 2.697 0.313 3.683 0.937 1.14 0.737 1.71 1.767 1.71 3.094v10.721l-3.272 0.345v-1.25c-1.041 0.91-2.23 1.364-3.568 1.364-1.59 0-2.878-0.428-3.864-1.281-1.041-0.943-1.561-2.197-1.561-3.767 0-1.294 0.482-2.437 1.446-3.436 0.932-0.965 2.067-1.447 3.404-1.447 1.349 0 2.663 0.328 3.946 0.985l0.082-0.985c0-0.89-0.301-1.514-0.904-1.874-0.472-0.284-1.19-0.427-2.154-0.427zM41.574 24.486c0.68 0 1.277-0.181 1.792-0.545 0.548-0.395 0.822-0.891 0.822-1.497 0-0.592-0.273-1.095-0.822-1.513-0.515-0.372-1.112-0.558-1.792-0.558s-1.277 0.187-1.792 0.558c-0.548 0.384-0.823 0.889-0.823 1.513 0 0.638 0.275 1.134 0.823 1.497 0.515 0.363 1.112 0.545 1.792 0.545zM69.016 16.822v10.213l-3.601 0.228v-9.817c0.111-1.379-0.58-2.071-2.071-2.071-0.702 0-1.26 0.264-1.677 0.792-0.395 0.494-0.592 1.183-0.592 2.071v8.797l-3.552 0.228v-9.817c0.054-0.778-0.126-1.336-0.542-1.677-0.318-0.263-0.828-0.395-1.53-0.395-0.734 0-1.294 0.264-1.677 0.792-0.395 0.494-0.592 1.183-0.592 2.071v8.797l-3.552 0.228v-14.55l3.354-0.313v1.808c0.624-0.68 1.162-1.15 1.611-1.414 0.57-0.342 1.261-0.51 2.072-0.51 1.435 0 2.657 0.614 3.667 1.842 0.657-0.646 1.27-1.102 1.84-1.365 0.625-0.316 1.354-0.477 2.188-0.477 1.249 0 2.307 0.352 3.173 1.052 0.987 0.811 1.479 1.973 1.479 3.484zM119.815 12.551l-0.707 1.644c-0.097-0.032-0.315-0.050-0.657-0.050-0.965 0-1.836 0.519-2.616 1.562-0.865 1.118-1.298 2.516-1.298 4.192v7.101l-1.643 0.313v-14.45l1.643-0.313v3.124h0.050c0.494-1.175 1.168-1.995 2.022-2.466 0.79-0.438 1.858-0.658 3.207-0.658zM122.677 24.555c-0.811-0.658-1.386-1.377-1.726-2.154l10.752-6.576c-0.471-0.877-1.189-1.633-2.154-2.27-1.064-0.669-2.207-1.003-3.437-1.003-2.137 0-3.885 0.662-5.244 1.992-1.403 1.36-2.105 3.106-2.105 5.244 0 2.16 0.681 3.942 2.041 5.345 1.348 1.459 3.106 2.188 5.277 2.188 0.908 0 1.847-0.166 2.812-0.495 1.020-0.395 1.825-0.892 2.417-1.497v-1.956c-1.896 1.568-3.677 2.351-5.344 2.351-1.172-0.005-2.269-0.392-3.289-1.169zM120.489 20.954c-0.076-0.338-0.115-0.728-0.115-1.168 0-1.6 0.542-2.932 1.627-3.995 1.095-1.096 2.467-1.645 4.11-1.645 1.283 0 2.286 0.415 3.009 1.25l-8.631 5.558zM107.073 9.412h-6.807v6.921h5.329v1.726h-5.329v8.945l-1.711 0.198v-19.502h8.204zM108.569 9.179l1.627-0.344v1.907l-1.627 0.361zM110.196 12.551v14.454l-1.595 0.312v-14.453z"></path>
</svg>
