<?xml version="1.0" encoding="utf-8"?>
<!-- Generated by IcoMoon.io -->
<!DOCTYPE svg PUBLIC "-//W3C//DTD SVG 1.1//EN" "http://www.w3.org/Graphics/SVG/1.1/DTD/svg11.dtd">
<svg version="1.1" xmlns="http://www.w3.org/2000/svg" xmlns:xlink="http://www.w3.org/1999/xlink" width="68" height="32" viewBox="0 0 68 32">
<path d="M31.277 17.865l-2.37 0.255-0.032-1.838 2.381-0.255 0.022 1.838zM34.965 16.026v12.764l-2.327 0.148v-12.636l2.327-0.277zM43.074 19.257l2.253 0.478-5.507 12.264-2.274-0.33 1.891-4.017-4.016-7.919 2.253-0.478 2.923 5.92 2.476-5.919zM31.277 28.791l-2.296 0.148v-9.405l2.296-0.202v9.459zM24.911 7.131l0.022-0.021-0.022 9.905-2.38-0.563v-8.406l-4.698-4.75-4.697 4.697v8.512l-2.402 0.511v-9.905h-0.022l7.12-7.11 7.078 7.131zM18.875 9.001l0.829 0.627c0.574 0.538 0.921 1.12 1.042 1.743 0.148 0.729 0.089 1.339-0.18 1.828-0.284 0.624-0.737 1.18-1.36 1.668 0.063 0.283 0.063 0.577 0 0.882-0.071 0.354-0.192 0.641-0.362 0.861-0.808-0.085-1.506-0.45-2.094-1.095-0.404-0.383-0.656-0.903-0.755-1.562-0.085-0.574 0.039-1.155 0.372-1.743 0.17-0.291 0.347-0.528 0.532-0.712l0.053 0.181c0.049 0.149 0.16 0.358 0.329 0.627 0.135 0.205 0.295 0.425 0.479 0.659 0-0.382 0.074-0.75 0.223-1.105 0.071-0.169 0.233-0.51 0.489-1.020 0.135-0.269 0.245-0.571 0.33-0.904 0.064-0.304 0.095-0.549 0.095-0.733l-0.021-0.202zM21.372 13.040l0.309 0.585c0.184 0.474 0.233 0.896 0.148 1.265-0.099 0.453-0.283 0.782-0.553 0.988-0.276 0.233-0.648 0.393-1.116 0.479l-0.638 0.075c-0.028-0.206-0.028-0.443 0-0.712 0.071-0.538 0.283-0.974 0.638-1.307 0.063-0.049 0.241-0.195 0.531-0.436 0.135-0.113 0.269-0.255 0.404-0.425 0.198-0.256 0.29-0.426 0.276-0.511zM6.94 18.63h-4.549v2.848h3.369v2.307h-3.369v5.006l-2.391 0.297v-12.784h6.408l0.532 2.327zM9.671 21.181c-0.808 0-1.683 0.184-2.625 0.553l0.627-2.222c0.843-0.17 1.736-0.255 2.678-0.255 0.949 0 1.743 0.202 2.381 0.606 0.737 0.476 1.105 1.141 1.105 1.999v6.93l-2.115 0.223v-0.808c-0.673 0.588-1.442 0.882-2.306 0.882-1.028 0-1.86-0.277-2.498-0.829-0.673-0.609-1.009-1.42-1.009-2.434 0-0.836 0.312-1.576 0.935-2.221 0.603-0.624 1.336-0.935 2.2-0.935 0.872 0 1.721 0.213 2.551 0.637l0.053-0.637c0-0.574-0.195-0.979-0.584-1.211-0.305-0.183-0.769-0.276-1.392-0.276zM9.926 27.143c0.439 0 0.826-0.117 1.158-0.351 0.354-0.255 0.531-0.577 0.531-0.967 0-0.383-0.177-0.708-0.531-0.978-0.333-0.241-0.719-0.361-1.158-0.361s-0.826 0.12-1.158 0.361c-0.354 0.248-0.532 0.574-0.532 0.978 0 0.412 0.178 0.733 0.532 0.967 0.333 0.234 0.719 0.351 1.158 0.351zM27.664 22.19v6.601l-2.328 0.148v-6.346c0.072-0.892-0.375-1.339-1.339-1.339-0.453 0-0.814 0.171-1.084 0.511-0.255 0.319-0.383 0.764-0.383 1.339v5.686l-2.296 0.148v-6.346c0.035-0.503-0.081-0.864-0.351-1.084-0.206-0.17-0.535-0.255-0.989-0.255-0.474 0-0.836 0.171-1.084 0.511-0.255 0.319-0.383 0.764-0.383 1.339v5.686l-2.296 0.148v-9.405l2.168-0.202v1.169c0.404-0.439 0.751-0.744 1.041-0.914 0.368-0.221 0.815-0.33 1.34-0.33 0.928 0 1.718 0.397 2.37 1.19 0.424-0.418 0.821-0.712 1.19-0.882 0.404-0.205 0.875-0.308 1.414-0.308 0.807 0 1.491 0.227 2.051 0.68 0.638 0.524 0.956 1.275 0.956 2.252zM60.498 19.429l-0.457 1.063c-0.063-0.021-0.204-0.032-0.425-0.032-0.624 0-1.187 0.336-1.69 1.010-0.559 0.723-0.839 1.626-0.839 2.71v4.591l-1.063 0.202v-9.341l1.063-0.202v2.019h0.032c0.318-0.759 0.754-1.29 1.307-1.594 0.511-0.283 1.201-0.425 2.073-0.425zM62.348 27.188c-0.524-0.425-0.896-0.89-1.116-1.392l6.95-4.251c-0.304-0.567-0.768-1.055-1.392-1.466-0.688-0.433-1.428-0.648-2.222-0.648-1.381 0-2.511 0.428-3.39 1.287-0.907 0.879-1.36 2.008-1.36 3.39 0 1.396 0.439 2.548 1.319 3.454 0.871 0.943 2.008 1.414 3.411 1.414 0.588 0 1.194-0.107 1.818-0.319 0.659-0.255 1.18-0.577 1.563-0.967v-1.264c-1.225 1.013-2.377 1.519-3.454 1.519-0.758-0.002-1.466-0.253-2.126-0.755zM60.934 24.86c-0.050-0.219-0.075-0.471-0.075-0.755 0-1.034 0.351-1.895 1.052-2.582 0.708-0.709 1.594-1.064 2.657-1.064 0.829 0 1.478 0.269 1.945 0.808l-5.58 3.593zM52.262 17.4h-4.4v4.474h3.444v1.116h-3.444v5.782l-1.106 0.128v-12.605h5.304zM53.229 17.25l1.052-0.223v1.233l-1.052 0.233zM54.281 19.429v9.342l-1.031 0.202v-9.342z"></path>
</svg>
