<?xml version="1.0" encoding="utf-8"?>
<!-- Generated by IcoMoon.io -->
<!DOCTYPE svg PUBLIC "-//W3C//DTD SVG 1.1//EN" "http://www.w3.org/Graphics/SVG/1.1/DTD/svg11.dtd">
<svg version="1.1" xmlns="http://www.w3.org/2000/svg" xmlns:xlink="http://www.w3.org/1999/xlink" width="32" height="32" viewBox="0 0 32 32">
<path d="M17.472 1.928c0 0-6.283 0-8.377 0-3.756 0-7.29 2.845-7.29 6.141 0 3.368 2.56 6.086 6.381 6.086 0.266 0 0.524-0.005 0.777-0.024-0.248 0.475-0.425 1.010-0.425 1.565 0 0.936 0.504 1.695 1.14 2.314-0.481 0-0.946 0.014-1.452 0.014-4.652-0-8.232 2.963-8.232 6.035 0 3.026 3.925 4.919 8.577 4.919 5.304 0 8.233-3.009 8.233-6.035 0-2.426-0.716-3.879-2.929-5.445-0.757-0.536-2.205-1.84-2.205-2.606 0-0.898 0.256-1.34 1.608-2.396 1.385-1.083 2.366-2.605 2.366-4.375 0-2.108-0.939-4.162-2.701-4.839h2.656l1.875-1.355zM14.546 22.422c0.066 0.281 0.103 0.569 0.103 0.864 0 2.445-1.576 4.356-6.096 4.356-3.216 0-5.538-2.036-5.538-4.48 0-2.396 2.88-4.391 6.096-4.356 0.75 0.008 1.45 0.129 2.085 0.334 1.745 1.214 2.998 1.9 3.351 3.283zM9.397 13.302c-2.159-0.065-4.21-2.415-4.582-5.248s1.075-5.004 3.233-4.94c2.158 0.065 4.21 2.339 4.582 5.173s-1.075 5.079-3.233 5.015zM26.005 7.931v-6.003h-2.001v6.003h-6.003v2.001h6.003v6.003h2.001v-6.003h6.003v-2.001z"></path>
</svg>
