<?xml version="1.0" encoding="utf-8"?>
<!-- Generated by IcoMoon.io -->
<!DOCTYPE svg PUBLIC "-//W3C//DTD SVG 1.1//EN" "http://www.w3.org/Graphics/SVG/1.1/DTD/svg11.dtd">
<svg version="1.1" xmlns="http://www.w3.org/2000/svg" xmlns:xlink="http://www.w3.org/1999/xlink" width="32" height="32" viewBox="0 0 32 32">
<path d="M16 0v0c-8.831 0-16 7.169-16 16s7.169 16 16 16c8.831 0 16-7.169 16-16s-7.169-16-16-16zM16 2.133c7.653 0 13.867 6.214 13.867 13.867s-6.214 13.867-13.867 13.867c-7.653 0-13.867-6.214-13.867-13.867s6.214-13.867 13.867-13.867v0zM17.067 30.524l-1.067 0.054c-4.831-0.020-9.097-2.359-11.733-5.957v-5.421c0-2.24 2.3-3.874 4.375-4.58l0.372-1.077 0.064-0.222c-0.318-0.319-0.587-0.715-0.789-1.18-0.427-0.083-0.829-0.449-1.034-0.976-0.286-0.731-0.082-1.494 0.454-1.704l0.151-0.016c0.041-2.102 0.631-3.758 3.164-3.758 2.51 0 3.112 1.626 3.164 3.748l0.245 0.025c0.535 0.21 0.739 0.973 0.454 1.704-0.225 0.577-0.688 0.963-1.131 0.983-0.236 0.531-0.555 0.986-0.939 1.34l0.197 0.906 0.11 0.284c1.931 0.624 3.946 2.049 3.946 4.521v11.324zM18.489 30.349v-11.149c0-0.676-0.167-1.273-0.505-1.793l1.284-0.57 0.344-1.161 0.069-0.279c-0.341 0.144-0.749 0.244-1.193 0.247-2.030 0.013-2.133-1.422-2.133-1.422s1.361-0.373 1.422-1.422c0.122-2.069 0.36-4.267 3.556-4.267 2.699 0 2.852 2.202 2.844 4.267-0.003 0.911 2.133 1.422 2.133 1.422s0.036 1.424-2.133 1.422c-0.534 0-0.977-0.087-1.338-0.217l0.206 1.101 0.171 0.519c1.656 0.67 3.294 2.077 3.294 4.441v4.594c-2.103 2.206-4.896 3.748-8.021 4.267v0z"></path>
</svg>
