<?xml version="1.0" encoding="utf-8"?>
<!-- Generated by IcoMoon.io -->
<!DOCTYPE svg PUBLIC "-//W3C//DTD SVG 1.1//EN" "http://www.w3.org/Graphics/SVG/1.1/DTD/svg11.dtd">
<svg version="1.1" xmlns="http://www.w3.org/2000/svg" xmlns:xlink="http://www.w3.org/1999/xlink" width="32" height="32" viewBox="0 0 32 32">
<path d="M17.953 29.095l-1.079 0.055c-4.889-0.020-9.206-2.387-11.874-6.028v-5.486c0-2.267 2.327-3.921 4.427-4.634l0.376-1.090 0.065-0.225c-0.322-0.323-0.594-0.724-0.799-1.194-0.432-0.084-0.839-0.455-1.046-0.987-0.289-0.74-0.083-1.512 0.459-1.724l0.153-0.016c0.042-2.127 0.638-3.803 3.202-3.803 2.54 0 3.149 1.645 3.202 3.793l0.248 0.025c0.542 0.212 0.748 0.984 0.459 1.724-0.228 0.584-0.697 0.974-1.145 0.995-0.239 0.538-0.562 0.998-0.951 1.357l0.199 0.917 0.111 0.287c1.954 0.632 3.993 2.074 3.993 4.575v11.46zM19.393 28.918v-11.283c0-0.684-0.169-1.288-0.511-1.814l1.3-0.576 0.348-1.175 0.070-0.282c-0.345 0.145-0.758 0.247-1.207 0.25-2.055 0.013-2.159-1.439-2.159-1.439s1.377-0.378 1.439-1.439c0.123-2.094 0.364-4.318 3.598-4.318 2.732 0 2.886 2.229 2.879 4.318-0.003 0.922 2.159 1.439 2.159 1.439s0.037 1.441-2.159 1.439c-0.54 0-0.989-0.088-1.354-0.22l0.208 1.114 0.173 0.525c1.676 0.678 3.333 2.102 3.333 4.494v4.649c-2.128 2.232-4.955 3.793-8.117 4.319v0z"></path>
</svg>
