<?xml version="1.0" encoding="utf-8"?>
<!-- Generated by IcoMoon.io -->
<!DOCTYPE svg PUBLIC "-//W3C//DTD SVG 1.1//EN" "http://www.w3.org/Graphics/SVG/1.1/DTD/svg11.dtd">
<svg version="1.1" xmlns="http://www.w3.org/2000/svg" xmlns:xlink="http://www.w3.org/1999/xlink" width="73" height="32" viewBox="0 0 73 32">
<path d="M5.585 18.692c-0.072-0.113-0.161-0.226-0.265-0.339s-0.223-0.219-0.359-0.319c-0.425-0.299-0.94-0.448-1.546-0.448h-0.895c-0.38 0-0.725 0.059-1.037 0.177s-0.576 0.28-0.793 0.488c-0.217 0.208-0.386 0.459-0.508 0.752s-0.183 0.622-0.183 0.983v4.012c0 0.362 0.058 0.689 0.176 0.984s0.287 0.547 0.508 0.758c0.221 0.213 0.488 0.375 0.8 0.489s0.658 0.17 1.037 0.17h0.664c0.38 0 0.725-0.057 1.037-0.17s0.576-0.276 0.793-0.489c0.217-0.211 0.386-0.465 0.509-0.758s0.183-0.621 0.183-0.984v-2.060c0-0.090-0.045-0.136-0.134-0.136h-2.821c-0.091 0-0.136 0.046-0.136 0.136v1.152c0 0.090 0.045 0.135 0.136 0.135h1.274c0.090 0 0.136 0.046 0.136 0.136v0.637c0 0.281-0.093 0.514-0.279 0.698s-0.416 0.278-0.688 0.278h-0.668c-0.273 0-0.505-0.095-0.695-0.285s-0.286-0.421-0.286-0.692v-4.012c0-0.271 0.095-0.502 0.284-0.692s0.42-0.284 0.691-0.284h0.895c0.199 0 0.366 0.056 0.502 0.169s0.262 0.273 0.38 0.482c0.045 0.072 0.077 0.128 0.095 0.169s0.050 0.061 0.095 0.061c0.027 0 0.050-0.004 0.068-0.014l1.179-0.583c0.054-0.027 0.081-0.063 0.081-0.108 0-0.036-0.020-0.1-0.061-0.191s-0.097-0.192-0.169-0.305zM11.727 22.358v-0.013c0-0.063 0.061-0.136 0.183-0.217s0.246-0.18 0.373-0.298c0.136-0.154 0.269-0.355 0.4-0.603s0.197-0.531 0.197-0.847v-0.136c0-0.777-0.226-1.391-0.678-1.843s-1.067-0.678-1.844-0.678l-4-0.001 0.814 0.814v7.592c0 0.091 0.045 0.136 0.134 0.136h1.277c0.089 0 0.134-0.045 0.134-0.136v-3.348c0-0.090 0.045-0.135 0.136-0.135h1.213l0.109 0.081 1.199 3.444c0.036 0.064 0.077 0.095 0.122 0.095h1.396c0.090 0 0.136-0.036 0.136-0.109 0-0.027-0.004-0.050-0.013-0.067l-1.288-3.728zM11.333 20.243c0 0.272-0.098 0.502-0.293 0.692s-0.425 0.285-0.688 0.285h-1.499c-0.091 0-0.136-0.046-0.136-0.136v-1.803c0-0.090 0.045-0.136 0.136-0.136h1.499c0.263 0 0.493 0.097 0.688 0.292s0.293 0.422 0.293 0.685v0.121zM19.142 18.251c-0.217-0.208-0.481-0.371-0.793-0.488s-0.657-0.177-1.037-0.177h-0.664c-0.38 0-0.725 0.059-1.037 0.177s-0.576 0.28-0.793 0.488c-0.217 0.208-0.387 0.459-0.509 0.752s-0.183 0.622-0.183 0.983v4.012c0 0.362 0.059 0.689 0.176 0.984s0.287 0.547 0.508 0.758c0.222 0.213 0.488 0.375 0.8 0.489s0.658 0.17 1.037 0.17h0.664c0.38 0 0.725-0.057 1.037-0.17s0.576-0.276 0.793-0.489c0.217-0.211 0.386-0.465 0.508-0.758s0.183-0.621 0.183-0.984v-4.012c0-0.361-0.061-0.689-0.183-0.983-0.122-0.293-0.292-0.544-0.508-0.752zM18.288 23.999c0 0.281-0.093 0.513-0.279 0.698s-0.416 0.278-0.688 0.278h-0.668c-0.273 0-0.504-0.095-0.695-0.285s-0.286-0.42-0.286-0.692v-4.012c0-0.271 0.095-0.502 0.286-0.692s0.422-0.284 0.695-0.284h0.668c0.272 0 0.502 0.093 0.688 0.278s0.279 0.418 0.279 0.698v4.012zM26.844 17.722h-1.277c-0.090 0-0.134 0.046-0.134 0.136v6.141c0 0.281-0.093 0.514-0.279 0.698s-0.416 0.278-0.688 0.278h-0.668c-0.273 0-0.504-0.095-0.695-0.285s-0.286-0.421-0.286-0.692v-6.141c0-0.090-0.045-0.136-0.135-0.136h-0.809v-0.001h-1.425l0.825 0.825v5.453c0 0.362 0.058 0.689 0.176 0.984 0.117 0.293 0.287 0.547 0.508 0.758 0.221 0.213 0.488 0.375 0.8 0.489s0.658 0.17 1.037 0.17h0.664c0.38 0 0.725-0.057 1.037-0.17s0.576-0.276 0.793-0.489c0.217-0.211 0.386-0.465 0.508-0.758 0.122-0.294 0.183-0.621 0.183-0.984v-6.141c0-0.090-0.045-0.136-0.134-0.136zM34.095 17.722h-1.247c-0.090 0-0.136 0.046-0.136 0.136l0.054 5.436-2.766-5.504-0.122-0.068h-0.595v-0.001h-1.425l0.746 0.746v7.66c0 0.091 0.046 0.136 0.137 0.136h1.272c0.091 0 0.137-0.045 0.137-0.136l-0.068-5.382 2.77 5.45 0.121 0.068h1.122c0.090 0 0.135-0.045 0.135-0.136v-8.269c0-0.090-0.045-0.136-0.135-0.136zM39.246 17.722l-3.88-0.001 0.694 0.694v7.712c0 0.091 0.045 0.136 0.136 0.136h3.050c0.777 0 1.392-0.226 1.844-0.678 0.452-0.451 0.678-1.066 0.678-1.843v-3.498c0-0.777-0.226-1.391-0.678-1.843s-1.067-0.678-1.844-0.678zM40.222 23.863c0 0.271-0.096 0.502-0.286 0.691-0.19 0.191-0.422 0.285-0.694 0.285h-1.5c-0.091 0-0.136-0.046-0.136-0.136v-5.422c0-0.090 0.045-0.136 0.136-0.136h1.5c0.263 0 0.493 0.097 0.688 0.292s0.293 0.422 0.293 0.685v3.741zM51.217 17.722h-1.382c-0.073 0-0.118 0.036-0.136 0.109l-1.004 5.518-1.287-5.559c-0.010-0.064-0.055-0.095-0.136-0.095h-0.678c-0.081 0-0.127 0.031-0.136 0.095l-1.288 5.559-0.989-5.518c-0.018-0.073-0.063-0.109-0.136-0.109h-0.563v-0.001h-1.425l0.554 0.554 1.705 7.879c0.018 0.073 0.063 0.109 0.135 0.109h0.99c0.082 0 0.127-0.031 0.136-0.095l1.355-5.369 1.369 5.369c0.009 0.064 0.054 0.095 0.136 0.095h0.989c0.072 0 0.117-0.036 0.136-0.109l1.789-8.269c0-0.009 0.003-0.018 0.007-0.027s0.007-0.018 0.007-0.027c0-0.072-0.050-0.108-0.149-0.108zM57.127 18.251c-0.216-0.208-0.481-0.371-0.793-0.488s-0.657-0.177-1.037-0.177h-0.664c-0.38 0-0.725 0.059-1.037 0.177s-0.576 0.28-0.793 0.488c-0.217 0.208-0.387 0.459-0.509 0.752s-0.183 0.622-0.183 0.983v4.012c0 0.362 0.059 0.689 0.176 0.984s0.287 0.547 0.508 0.758c0.221 0.213 0.488 0.375 0.8 0.489s0.658 0.17 1.037 0.17h0.664c0.379 0 0.725-0.057 1.037-0.17s0.577-0.276 0.793-0.489c0.217-0.211 0.387-0.465 0.508-0.758s0.183-0.621 0.183-0.984v-4.012c0-0.361-0.061-0.689-0.183-0.983-0.121-0.293-0.291-0.544-0.508-0.752zM56.274 23.999c0 0.281-0.094 0.513-0.28 0.698s-0.416 0.278-0.688 0.278h-0.668c-0.273 0-0.504-0.095-0.695-0.285s-0.286-0.42-0.286-0.692v-4.012c0-0.271 0.095-0.502 0.286-0.692s0.422-0.284 0.695-0.284h0.668c0.273 0 0.502 0.093 0.688 0.278s0.28 0.418 0.28 0.698v4.012zM63.906 22.358v-0.013c0-0.063 0.061-0.136 0.183-0.217s0.246-0.18 0.373-0.298c0.135-0.154 0.268-0.355 0.4-0.603s0.197-0.531 0.197-0.847v-0.136c0-0.777-0.226-1.391-0.678-1.843s-1.067-0.678-1.844-0.678l-3.935-0.001 0.749 0.749v7.657c0 0.091 0.044 0.136 0.134 0.136h1.277c0.089 0 0.135-0.045 0.135-0.136v-3.348c0-0.090 0.045-0.135 0.136-0.135h1.212l0.109 0.081 1.199 3.444c0.036 0.064 0.077 0.095 0.123 0.095h1.396c0.091 0 0.136-0.036 0.136-0.109 0-0.027-0.005-0.050-0.014-0.067l-1.288-3.728zM63.513 20.243c0 0.272-0.098 0.502-0.293 0.692s-0.425 0.285-0.688 0.285h-1.499c-0.091 0-0.136-0.046-0.136-0.136v-1.803c0-0.090 0.045-0.136 0.136-0.136h1.499c0.264 0 0.493 0.097 0.688 0.292s0.293 0.422 0.293 0.685v0.121zM72.772 26.060l-2.923-4.718c-0.018-0.035-0.027-0.063-0.027-0.081 0-0.009 0.009-0.031 0.027-0.068l2.638-3.253c0.027-0.036 0.041-0.072 0.041-0.109 0-0.072-0.050-0.109-0.149-0.109h-1.545l-0.11 0.054-2.682 3.49-0.001-3.409c0-0.090-0.045-0.136-0.135-0.136h-0.716v-0.001h-1.425l0.73 0.73v7.676c0 0.091 0.045 0.136 0.134 0.136h1.277c0.090 0 0.135-0.045 0.135-0.136v-2.945l0.544-0.417c0.027-0.036 0.068-0.054 0.122-0.054 0.027 0 0.064 0.027 0.109 0.081l2.135 3.402 0.109 0.068h1.59c0.1 0 0.149-0.036 0.149-0.109-0-0.027-0.009-0.058-0.027-0.094zM64.561 30.611l4.989 0.285-4.989 0.285zM8.040 31.181l-4.989-0.285 4.989-0.285zM36.4 13.597c-0.636 0-2.453-1.204-2.507-2.387-1.543 0.162-2.877 0.474-3.773 0.881l-0.746 0.339 0.479-0.665c0.498-0.693 1.966-1.232 4.039-1.488v-2.548h1.994v-4.081c-0.764-0.226-1.306-0.94-1.306-1.745v-1.904h3.641v1.904c0 0.805-0.542 1.518-1.306 1.744v4.081h1.995v1.78h-1.066v-0.714h-2.886v2.36c0 0.459 1.231 1.357 1.46 1.376 0.191-0.016 1.426-0.779 1.426-1.376v-0.033c-0.509-0.030-0.982-0.045-1.443-0.045-0.099 0-0.61 0.012-0.61 0.012v-0.954c0 0 0.457-0.010 0.61-0.010 3.212 0 5.843 0.659 6.547 1.639l0.478 0.665-0.745-0.339c-0.891-0.405-2.225-0.716-3.773-0.88-0.050 1.318-1.901 2.386-2.507 2.386zM35.548 1.904c0 0.469 0.382 0.852 0.852 0.852s0.852-0.382 0.852-0.852v-0.936h-1.704v0.936zM9.237 29.829h0.958c0.244 0 0.436 0.067 0.558 0.189 0.095 0.095 0.143 0.21 0.143 0.354v0.006c0 0.256-0.146 0.393-0.305 0.476 0.25 0.085 0.424 0.229 0.424 0.518v0.006c0 0.381-0.314 0.585-0.79 0.585h-0.988v-2.135zM10.521 30.433c0-0.168-0.134-0.271-0.375-0.271h-0.54v0.567h0.512c0.241 0 0.403-0.095 0.403-0.29v-0.006zM10.201 31.045h-0.595v0.586h0.622c0.256 0 0.412-0.101 0.412-0.293v-0.006c-0-0.18-0.143-0.287-0.439-0.287zM11.461 29.829h0.375v2.135h-0.375v-2.135zM12.407 29.829h0.958c0.244 0 0.436 0.067 0.558 0.189 0.095 0.095 0.143 0.21 0.143 0.354v0.006c0 0.256-0.146 0.393-0.305 0.476 0.25 0.085 0.424 0.229 0.424 0.518v0.006c0 0.381-0.314 0.585-0.79 0.585h-0.988v-2.135zM13.691 30.433c0-0.168-0.134-0.271-0.375-0.271h-0.54v0.567h0.512c0.241 0 0.403-0.095 0.403-0.29v-0.006zM13.371 31.045h-0.595v0.586h0.622c0.256 0 0.412-0.101 0.412-0.293v-0.006c0-0.18-0.143-0.287-0.439-0.287zM14.609 29.829h0.375v1.793h1.122v0.341h-1.497zM16.519 29.829h0.375v2.135h-0.375v-2.135zM17.37 30.902v-0.006c0-0.607 0.454-1.104 1.101-1.104 0.393 0 0.631 0.137 0.836 0.332l-0.241 0.278c-0.171-0.159-0.354-0.265-0.598-0.265-0.406 0-0.705 0.335-0.705 0.753v0.006c0 0.418 0.296 0.756 0.705 0.756 0.262 0 0.43-0.104 0.613-0.275l0.241 0.244c-0.223 0.232-0.467 0.378-0.866 0.378-0.622 0-1.086-0.485-1.086-1.098zM20.472 29.813h0.348l0.939 2.15h-0.396l-0.217-0.515h-1.009l-0.22 0.515h-0.384l0.939-2.15zM21.009 31.116l-0.369-0.854-0.366 0.854h0.735zM22.126 29.829h0.375v1.793h1.122v0.341h-1.497zM24.93 29.829h1.589v0.342h-1.214v0.582h1.077v0.341h-1.077v0.869h-0.375zM26.818 30.902v-0.006c0-0.601 0.464-1.104 1.119-1.104s1.113 0.497 1.113 1.098v0.006c0 0.601-0.464 1.104-1.119 1.104s-1.113-0.497-1.113-1.098zM28.657 30.902v-0.006c0-0.415-0.302-0.759-0.726-0.759s-0.72 0.339-0.72 0.753v0.006c0 0.415 0.302 0.756 0.726 0.756s0.72-0.335 0.72-0.75zM29.472 31.058v-1.229h0.375v1.214c0 0.397 0.204 0.607 0.54 0.607 0.332 0 0.537-0.198 0.537-0.592v-1.229h0.375v1.211c0 0.637-0.36 0.958-0.918 0.958-0.555 0-0.909-0.32-0.909-0.939zM31.815 29.829h0.348l1.144 1.476v-1.476h0.369v2.135h-0.314l-1.177-1.519v1.519h-0.369zM34.225 29.829h0.796c0.671 0 1.135 0.46 1.135 1.061v0.006c0 0.601-0.464 1.067-1.135 1.067h-0.796v-2.135zM34.6 30.17v1.452h0.421c0.448 0 0.741-0.302 0.741-0.72v-0.006c0-0.418-0.293-0.726-0.741-0.726h-0.421zM37.217 29.813h0.348l0.939 2.15h-0.396l-0.217-0.515h-1.010l-0.22 0.515h-0.384l0.939-2.15zM37.754 31.116l-0.369-0.854-0.366 0.854h0.735zM39.121 30.176h-0.677v-0.348h1.732v0.348h-0.677v1.787h-0.378zM40.594 29.829h0.375v2.135h-0.375v-2.135zM41.445 30.902v-0.006c0-0.601 0.464-1.104 1.119-1.104s1.113 0.497 1.113 1.098v0.006c0 0.601-0.464 1.104-1.119 1.104s-1.113-0.497-1.113-1.098zM43.284 30.902v-0.006c0-0.415-0.302-0.759-0.726-0.759s-0.72 0.339-0.72 0.753v0.006c0 0.415 0.302 0.756 0.726 0.756s0.72-0.335 0.72-0.75zM44.133 29.829h0.348l1.144 1.476v-1.476h0.369v2.135h-0.314l-1.177-1.519v1.519h-0.369zM46.4 31.652l0.226-0.268c0.204 0.177 0.412 0.278 0.674 0.278 0.232 0 0.378-0.11 0.378-0.268v-0.006c0-0.153-0.085-0.235-0.482-0.326-0.454-0.11-0.711-0.244-0.711-0.637v-0.006c0-0.366 0.305-0.619 0.729-0.619 0.311 0 0.558 0.095 0.775 0.268l-0.201 0.284c-0.192-0.143-0.384-0.22-0.58-0.22-0.22 0-0.348 0.113-0.348 0.253v0.006c0 0.165 0.098 0.238 0.509 0.335 0.451 0.11 0.683 0.271 0.683 0.625v0.006c0 0.4-0.314 0.637-0.763 0.637-0.326 0-0.634-0.113-0.891-0.341zM49.41 29.829h1.589v0.342h-1.214v0.582h1.077v0.341h-1.077v0.869h-0.375zM51.299 30.902v-0.006c0-0.601 0.464-1.104 1.119-1.104s1.113 0.497 1.113 1.098v0.006c0 0.601-0.464 1.104-1.119 1.104s-1.113-0.497-1.113-1.098zM53.138 30.902v-0.006c0-0.415-0.302-0.759-0.726-0.759s-0.72 0.339-0.72 0.753v0.006c0 0.415 0.302 0.756 0.726 0.756s0.72-0.335 0.72-0.75zM53.987 29.829h0.951c0.268 0 0.479 0.079 0.616 0.213 0.113 0.116 0.177 0.274 0.177 0.46v0.006c0 0.351-0.21 0.561-0.506 0.647l0.576 0.808h-0.445l-0.525-0.744h-0.47v0.744h-0.375v-2.135zM54.911 30.887c0.268 0 0.439-0.14 0.439-0.357v-0.006c0-0.229-0.165-0.354-0.442-0.354h-0.546v0.717h0.549zM57.107 29.829h0.375v1.793h1.122v0.341h-1.497zM59.017 29.829h0.375v2.135h-0.375v-2.135zM59.962 29.829h1.589v0.342h-1.214v0.582h1.077v0.341h-1.077v0.869h-0.375zM61.964 29.829h1.583v0.335h-1.208v0.555h1.071v0.336h-1.071v0.573h1.223v0.335h-1.598z"></path>
</svg>
