<?xml version="1.0" encoding="utf-8"?>
<!-- Generated by IcoMoon.io -->
<!DOCTYPE svg PUBLIC "-//W3C//DTD SVG 1.1//EN" "http://www.w3.org/Graphics/SVG/1.1/DTD/svg11.dtd">
<svg version="1.1" xmlns="http://www.w3.org/2000/svg" xmlns:xlink="http://www.w3.org/1999/xlink" width="89" height="32" viewBox="0 0 89 32">
<path d="M6.814 22.648c-0.088-0.138-0.196-0.275-0.322-0.413-0.127-0.137-0.272-0.267-0.438-0.388-0.518-0.364-1.146-0.546-1.883-0.546h-1.090c-0.462 0-0.884 0.072-1.264 0.215s-0.702 0.341-0.966 0.595c-0.264 0.253-0.471 0.559-0.619 0.916-0.148 0.358-0.223 0.758-0.223 1.198v4.889c0 0.441 0.071 0.84 0.215 1.198 0.143 0.357 0.349 0.667 0.619 0.924 0.27 0.259 0.595 0.457 0.974 0.595s0.801 0.207 1.264 0.207h0.809c0.463 0 0.884-0.069 1.264-0.207s0.702-0.336 0.966-0.595c0.264-0.257 0.471-0.567 0.62-0.924s0.223-0.757 0.223-1.198v-2.51c0-0.11-0.055-0.165-0.164-0.165h-3.437c-0.11 0-0.165 0.056-0.165 0.165v1.404c0 0.11 0.055 0.165 0.165 0.165h1.553c0.11 0 0.165 0.055 0.165 0.165v0.776c0 0.342-0.114 0.626-0.34 0.851-0.227 0.226-0.507 0.339-0.839 0.339h-0.813c-0.333 0-0.615-0.116-0.847-0.347s-0.348-0.512-0.348-0.843v-4.889c0-0.33 0.115-0.611 0.347-0.843 0.231-0.23 0.512-0.346 0.842-0.346h1.090c0.242 0 0.446 0.068 0.611 0.206s0.319 0.333 0.462 0.587c0.055 0.088 0.093 0.156 0.115 0.206s0.060 0.075 0.116 0.075c0.033 0 0.060-0.005 0.082-0.017l1.437-0.71c0.066-0.032 0.099-0.077 0.099-0.132 0-0.044-0.025-0.122-0.074-0.232s-0.119-0.234-0.206-0.371h0zM14.297 27.115v-0.016c0-0.077 0.074-0.166 0.223-0.264s0.3-0.22 0.454-0.363c0.165-0.187 0.328-0.432 0.487-0.735s0.239-0.648 0.239-1.033v-0.166c0-0.947-0.276-1.695-0.826-2.245s-1.3-0.826-2.246-0.826l-4.874-0.002 0.992 0.992v9.25c0 0.111 0.055 0.166 0.164 0.166h1.556c0.109 0 0.164-0.055 0.164-0.166v-4.080c0-0.11 0.055-0.165 0.166-0.165h1.478l0.133 0.099 1.461 4.196c0.044 0.078 0.093 0.116 0.149 0.116h1.701c0.11 0 0.165-0.044 0.165-0.133 0-0.033-0.005-0.060-0.016-0.082l-1.569-4.543zM13.818 24.538c0 0.331-0.119 0.611-0.357 0.843s-0.518 0.347-0.839 0.347h-1.827c-0.111 0-0.166-0.056-0.166-0.165v-2.197c0-0.11 0.055-0.166 0.166-0.166h1.827c0.321 0 0.601 0.119 0.839 0.355s0.357 0.514 0.357 0.835v0.148zM23.332 22.111c-0.264-0.254-0.587-0.452-0.967-0.595s-0.801-0.215-1.264-0.215h-0.809c-0.462 0-0.884 0.072-1.264 0.215s-0.702 0.341-0.966 0.595c-0.264 0.253-0.471 0.559-0.62 0.916-0.148 0.358-0.223 0.758-0.223 1.198v4.889c0 0.441 0.071 0.84 0.215 1.198 0.143 0.357 0.349 0.667 0.619 0.924 0.27 0.259 0.595 0.457 0.974 0.595s0.801 0.207 1.264 0.207h0.809c0.463 0 0.884-0.069 1.264-0.207s0.702-0.336 0.967-0.595c0.264-0.257 0.47-0.567 0.619-0.924 0.148-0.358 0.223-0.757 0.223-1.198v-4.889c0-0.44-0.074-0.84-0.223-1.198-0.149-0.357-0.355-0.663-0.619-0.916h0zM22.291 29.114c0 0.342-0.114 0.625-0.34 0.851s-0.507 0.339-0.839 0.339h-0.813c-0.332 0-0.615-0.116-0.847-0.347s-0.348-0.512-0.348-0.843v-4.889c0-0.33 0.116-0.611 0.348-0.843 0.233-0.23 0.515-0.346 0.847-0.346h0.813c0.332 0 0.611 0.113 0.839 0.338s0.34 0.51 0.34 0.851l-0 4.889zM32.716 21.466h-1.556c-0.109 0-0.164 0.055-0.164 0.165v7.482c0 0.342-0.114 0.626-0.34 0.851-0.227 0.226-0.507 0.339-0.839 0.339h-0.814c-0.332 0-0.615-0.116-0.847-0.347s-0.348-0.512-0.348-0.843v-7.482c0-0.11-0.055-0.165-0.165-0.165h-0.986v-0.002h-1.737l1.005 1.005v6.644c0 0.441 0.071 0.84 0.215 1.198 0.143 0.357 0.35 0.666 0.619 0.924 0.27 0.259 0.595 0.457 0.974 0.595s0.801 0.207 1.264 0.207h0.809c0.463 0 0.884-0.069 1.264-0.207s0.702-0.336 0.967-0.595c0.264-0.257 0.47-0.567 0.62-0.924 0.148-0.358 0.223-0.757 0.223-1.198v-7.482c0-0.11-0.055-0.165-0.163-0.165h0zM41.552 21.466h-1.52c-0.11 0-0.165 0.055-0.165 0.165l0.066 6.624-3.37-6.707-0.149-0.083h-0.725v-0.001h-1.737l0.909 0.909v9.333c0 0.111 0.056 0.166 0.167 0.166h1.55c0.111 0 0.167-0.055 0.167-0.166l-0.082-6.557 3.375 6.64 0.148 0.083h1.367c0.109 0 0.165-0.055 0.165-0.166v-10.075c0-0.11-0.055-0.165-0.165-0.165v-0zM47.828 21.466l-4.728-0.002 0.846 0.846v9.396c0 0.111 0.055 0.166 0.165 0.166h3.717c0.947 0 1.696-0.276 2.246-0.827 0.55-0.549 0.826-1.299 0.826-2.246v-4.262c0-0.947-0.275-1.695-0.826-2.245s-1.3-0.826-2.246-0.826v0zM49.017 28.949c0 0.331-0.116 0.611-0.349 0.842-0.232 0.232-0.514 0.348-0.846 0.348h-1.828c-0.111 0-0.165-0.055-0.165-0.166v-6.607c0-0.11 0.055-0.166 0.165-0.166h1.827c0.321 0 0.6 0.119 0.838 0.355s0.357 0.514 0.357 0.835v4.559l-0-0zM62.413 21.466h-1.684c-0.089 0-0.144 0.044-0.166 0.132l-1.223 6.723-1.568-6.773c-0.012-0.077-0.067-0.115-0.166-0.115h-0.826c-0.099 0-0.155 0.038-0.166 0.115l-1.569 6.773-1.206-6.723c-0.022-0.088-0.077-0.132-0.165-0.132h-0.686v-0.001h-1.736l0.676 0.675 2.077 9.6c0.022 0.089 0.077 0.133 0.165 0.133h1.206c0.1 0 0.155-0.038 0.166-0.116l1.651-6.542 1.668 6.542c0.011 0.078 0.066 0.116 0.166 0.116h1.206c0.088 0 0.143-0.044 0.165-0.133l2.18-10.076c0-0.011 0.003-0.022 0.008-0.033s0.009-0.022 0.009-0.033c0-0.088-0.061-0.132-0.182-0.132l0 0zM69.615 22.111c-0.264-0.254-0.586-0.452-0.966-0.595s-0.801-0.215-1.263-0.215h-0.81c-0.462 0-0.884 0.072-1.264 0.215s-0.702 0.341-0.966 0.595c-0.265 0.253-0.471 0.559-0.62 0.916-0.148 0.358-0.223 0.758-0.223 1.198v4.889c0 0.441 0.072 0.84 0.215 1.198 0.143 0.357 0.35 0.667 0.619 0.924 0.269 0.259 0.595 0.457 0.974 0.595s0.802 0.207 1.264 0.207h0.81c0.462 0 0.883-0.069 1.263-0.207s0.703-0.336 0.966-0.595c0.265-0.257 0.471-0.567 0.619-0.924 0.149-0.358 0.223-0.757 0.223-1.198v-4.889c0-0.44-0.075-0.84-0.223-1.198-0.148-0.357-0.354-0.663-0.619-0.916v0zM68.575 29.114c0 0.342-0.114 0.625-0.341 0.851s-0.507 0.339-0.839 0.339h-0.814c-0.332 0-0.614-0.116-0.846-0.347s-0.349-0.512-0.349-0.843v-4.889c0-0.33 0.116-0.611 0.349-0.843 0.232-0.23 0.514-0.346 0.846-0.346h0.814c0.332 0 0.611 0.113 0.839 0.338s0.341 0.51 0.341 0.851v4.889zM77.874 27.115v-0.016c0-0.077 0.075-0.166 0.223-0.264s0.3-0.22 0.455-0.363c0.165-0.187 0.327-0.432 0.487-0.735s0.24-0.648 0.24-1.033v-0.166c0-0.947-0.276-1.695-0.826-2.245s-1.3-0.826-2.247-0.826l-4.794-0.002 0.913 0.913v9.33c0 0.111 0.054 0.166 0.163 0.166h1.556c0.109 0 0.164-0.055 0.164-0.166v-4.080c0-0.11 0.055-0.165 0.166-0.165h1.477l0.133 0.099 1.461 4.196c0.044 0.078 0.094 0.116 0.149 0.116h1.701c0.11 0 0.166-0.044 0.166-0.133 0-0.033-0.006-0.060-0.017-0.082l-1.57-4.543zM77.395 24.538c0 0.331-0.119 0.611-0.357 0.843s-0.517 0.347-0.839 0.347h-1.826c-0.111 0-0.166-0.056-0.166-0.165v-2.197c0-0.11 0.055-0.166 0.166-0.166h1.826c0.321 0 0.601 0.119 0.839 0.355s0.357 0.514 0.357 0.835v0.148zM88.677 31.625l-3.561-5.749c-0.022-0.043-0.033-0.077-0.033-0.099 0-0.011 0.011-0.038 0.033-0.083l3.214-3.964c0.033-0.044 0.049-0.088 0.049-0.132 0-0.088-0.061-0.132-0.182-0.132h-1.883l-0.134 0.066-3.267 4.253-0.002-4.154c0-0.11-0.055-0.165-0.164-0.165h-0.872v-0.002h-1.737l0.889 0.89v9.353c0 0.111 0.055 0.166 0.164 0.166h1.556c0.109 0 0.164-0.055 0.164-0.166v-3.588l0.663-0.509c0.033-0.044 0.083-0.065 0.149-0.065 0.033 0 0.077 0.033 0.133 0.099l2.601 4.146 0.133 0.083h1.937c0.121 0 0.182-0.044 0.182-0.133-0-0.033-0.011-0.071-0.033-0.115l0-0zM44.36 16.529c-0.775 0-2.989-1.467-3.055-2.908-1.88 0.198-3.506 0.577-4.598 1.074l-0.909 0.413 0.584-0.81c0.607-0.844 2.396-1.501 4.921-1.813v-3.104h2.429v-4.972c-0.931-0.276-1.592-1.145-1.592-2.126v-2.32h4.437v2.32c0 0.98-0.661 1.85-1.592 2.125v4.973h2.43v2.169h-1.299v-0.87h-3.516v2.876c0 0.559 1.5 1.653 1.779 1.676 0.233-0.019 1.737-0.949 1.737-1.676v-0.040c-0.62-0.037-1.196-0.055-1.758-0.055-0.121 0-0.743 0.014-0.743 0.014v-1.163c0 0 0.557-0.012 0.743-0.012 3.913 0 7.119 0.803 7.977 1.997l0.582 0.81-0.908-0.413c-1.086-0.494-2.711-0.872-4.597-1.072-0.061 1.606-2.316 2.907-3.055 2.907l0 0zM43.322 2.282c0 0.572 0.465 1.038 1.038 1.038s1.038-0.466 1.038-1.038v-1.14h-2.076v1.14z"></path>
</svg>
