<?xml version="1.0" encoding="utf-8"?>
<!-- Generated by IcoMoon.io -->
<!DOCTYPE svg PUBLIC "-//W3C//DTD SVG 1.1//EN" "http://www.w3.org/Graphics/SVG/1.1/DTD/svg11.dtd">
<svg version="1.1" xmlns="http://www.w3.org/2000/svg" xmlns:xlink="http://www.w3.org/1999/xlink" width="249" height="32" viewBox="0 0 249 32">
<path d="M55.596 7.042c-0.208-0.325-0.462-0.648-0.761-0.974-0.298-0.324-0.642-0.629-1.031-0.915-1.22-0.858-2.701-1.287-4.44-1.287h-2.57c-1.090 0-2.084 0.17-2.979 0.508s-1.655 0.805-2.278 1.404c-0.623 0.596-1.11 1.318-1.46 2.159-0.35 0.844-0.525 1.786-0.525 2.825v11.525c0 1.040 0.168 1.98 0.506 2.824 0.337 0.842 0.824 1.573 1.46 2.178 0.636 0.612 1.402 1.078 2.297 1.405 0.895 0.324 1.889 0.488 2.979 0.488h1.908c1.091 0 2.083-0.163 2.979-0.488s1.656-0.794 2.278-1.405c0.624-0.605 1.11-1.336 1.461-2.178 0.35-0.843 0.525-1.785 0.525-2.824v-5.918c0-0.258-0.129-0.389-0.386-0.389h-8.104c-0.26 0-0.389 0.131-0.389 0.389v3.31c0 0.26 0.129 0.388 0.389 0.388h3.66c0.259 0 0.389 0.131 0.389 0.389v1.83c0 0.807-0.268 1.474-0.802 2.006-0.536 0.533-1.195 0.797-1.977 0.797h-1.918c-0.784 0-1.449-0.272-1.997-0.817-0.548-0.546-0.821-1.208-0.821-1.988v-11.525c0-0.778 0.272-1.443 0.817-1.988 0.545-0.543 1.208-0.817 1.986-0.817h2.57c0.571 0 1.052 0.161 1.441 0.487 0.389 0.324 0.752 0.785 1.090 1.383 0.129 0.207 0.22 0.369 0.272 0.486s0.142 0.176 0.273 0.176c0.077 0 0.143-0.011 0.194-0.040l3.388-1.675c0.156-0.076 0.233-0.181 0.233-0.311 0-0.104-0.058-0.287-0.175-0.547-0.115-0.258-0.278-0.548-0.484-0.873zM73.236 17.575v-0.038c0-0.183 0.175-0.389 0.525-0.623 0.35-0.234 0.707-0.518 1.071-0.856 0.389-0.442 0.773-1.019 1.149-1.732s0.565-1.527 0.565-2.433v-0.391c0-2.233-0.649-3.997-1.947-5.293-1.299-1.299-3.064-1.949-5.296-1.949l-11.491-0.004 2.339 2.338v21.809c0 0.259 0.129 0.39 0.386 0.39h3.668c0.257 0 0.386-0.131 0.386-0.39v-9.618c0-0.259 0.131-0.388 0.392-0.388h3.484l0.313 0.233 3.445 9.892c0.103 0.183 0.22 0.272 0.35 0.272h4.011c0.259 0 0.39-0.102 0.39-0.314 0-0.077-0.013-0.142-0.039-0.193l-3.7-10.712zM72.106 11.498c0 0.78-0.281 1.442-0.841 1.988-0.561 0.545-1.221 0.817-1.978 0.817h-4.306c-0.261 0-0.392-0.131-0.392-0.39v-5.178c0-0.26 0.131-0.391 0.392-0.391h4.306c0.757 0 1.416 0.279 1.978 0.838 0.56 0.558 0.841 1.212 0.841 1.969v0.347zM94.538 5.776c-0.623-0.599-1.383-1.065-2.279-1.404-0.896-0.338-1.888-0.508-2.979-0.508h-1.908c-1.090 0-2.083 0.17-2.979 0.508-0.894 0.338-1.655 0.805-2.277 1.404-0.624 0.596-1.11 1.318-1.461 2.159-0.35 0.844-0.525 1.786-0.525 2.825v11.525c0 1.039 0.168 1.981 0.507 2.824 0.337 0.842 0.823 1.573 1.46 2.178 0.636 0.612 1.403 1.078 2.297 1.405 0.896 0.324 1.889 0.488 2.979 0.488h1.908c1.091 0 2.083-0.163 2.979-0.488s1.656-0.794 2.279-1.405c0.623-0.605 1.109-1.336 1.46-2.178 0.35-0.843 0.525-1.785 0.525-2.824v-11.525c0-1.038-0.175-1.981-0.525-2.825-0.351-0.841-0.838-1.563-1.46-2.159zM92.084 22.286c0 0.807-0.268 1.473-0.802 2.006-0.535 0.534-1.195 0.799-1.977 0.799h-1.918c-0.784 0-1.449-0.273-1.997-0.817-0.547-0.546-0.821-1.209-0.821-1.988v-11.526c0-0.778 0.273-1.441 0.821-1.986 0.548-0.543 1.213-0.817 1.997-0.817h1.918c0.782 0 1.441 0.267 1.977 0.797 0.534 0.533 0.802 1.201 0.802 2.005v11.526zM116.66 4.257h-3.669c-0.257 0-0.385 0.131-0.385 0.39v17.639c0 0.807-0.268 1.475-0.802 2.006-0.536 0.533-1.195 0.798-1.977 0.798h-1.918c-0.784 0-1.449-0.273-1.997-0.817-0.547-0.546-0.821-1.208-0.821-1.988v-17.639c0-0.259-0.131-0.39-0.389-0.39h-2.325v-0.004h-4.094l2.369 2.369v15.664c0 1.040 0.168 1.98 0.506 2.825 0.337 0.841 0.824 1.572 1.46 2.177 0.636 0.613 1.403 1.078 2.298 1.405 0.896 0.324 1.888 0.488 2.979 0.488h1.908c1.091 0 2.084-0.163 2.979-0.488s1.656-0.792 2.278-1.405c0.623-0.605 1.109-1.336 1.46-2.177 0.35-0.845 0.526-1.785 0.526-2.825v-17.639c-0.001-0.259-0.129-0.389-0.385-0.389zM137.49 4.257h-3.583c-0.26 0-0.389 0.131-0.389 0.39l0.156 15.616-7.945-15.811-0.35-0.195h-1.708v-0.004h-4.095l2.142 2.144v22.004c0 0.259 0.131 0.39 0.394 0.39h3.653c0.261 0 0.393-0.131 0.393-0.39l-0.194-15.459 7.958 15.653 0.348 0.196h3.222c0.258 0 0.388-0.131 0.388-0.39v-23.755c0.001-0.259-0.13-0.39-0.388-0.39zM152.287 4.257l-11.145-0.004 1.994 1.994v22.152c0 0.259 0.13 0.39 0.389 0.39h8.762c2.233 0 3.997-0.649 5.298-1.95 1.296-1.296 1.947-3.061 1.947-5.295v-10.049c0-2.233-0.649-3.997-1.947-5.293-1.302-1.297-3.067-1.946-5.299-1.946zM155.090 21.898c0 0.779-0.273 1.441-0.823 1.985-0.547 0.547-1.211 0.819-1.993 0.819h-4.308c-0.261 0-0.389-0.131-0.389-0.391v-15.575c0-0.259 0.129-0.39 0.389-0.39h4.308c0.756 0 1.415 0.28 1.976 0.838 0.559 0.558 0.84 1.212 0.84 1.969v10.745h0.001zM186.672 4.257h-3.971c-0.21 0-0.339 0.104-0.391 0.312l-2.885 15.85-3.696-15.967c-0.029-0.182-0.158-0.272-0.39-0.272h-1.948c-0.232 0-0.363 0.090-0.391 0.272l-3.697 15.967-2.843-15.85c-0.052-0.207-0.182-0.312-0.389-0.312h-1.618v-0.004h-4.094l1.593 1.593 4.898 22.632c0.052 0.21 0.182 0.314 0.388 0.314h2.843c0.234 0 0.365-0.090 0.391-0.272l3.893-15.422 3.933 15.422c0.026 0.183 0.157 0.272 0.389 0.272h2.843c0.207 0 0.337-0.102 0.39-0.314l5.138-23.755c0-0.027 0.007-0.052 0.020-0.076 0.011-0.026 0.020-0.052 0.020-0.077 0.002-0.209-0.141-0.313-0.427-0.313zM203.65 5.776c-0.621-0.599-1.382-1.065-2.276-1.404-0.896-0.338-1.888-0.508-2.978-0.508h-1.907c-1.092 0-2.083 0.17-2.979 0.508-0.896 0.338-1.654 0.805-2.277 1.404-0.623 0.596-1.11 1.318-1.461 2.159-0.35 0.844-0.526 1.786-0.526 2.825v11.525c0 1.039 0.17 1.981 0.507 2.824 0.338 0.842 0.824 1.573 1.461 2.178 0.635 0.612 1.403 1.078 2.298 1.405 0.897 0.324 1.889 0.488 2.98 0.488h1.907c1.089 0 2.082-0.163 2.978-0.488 0.897-0.325 1.656-0.794 2.276-1.405 0.624-0.605 1.11-1.336 1.46-2.178 0.352-0.843 0.528-1.785 0.528-2.824v-11.525c0-1.038-0.176-1.981-0.528-2.825-0.351-0.841-0.838-1.563-1.461-2.159zM201.198 22.286c0 0.807-0.271 1.473-0.804 2.006-0.535 0.534-1.194 0.799-1.977 0.799h-1.919c-0.784 0-1.448-0.273-1.995-0.817-0.549-0.546-0.821-1.209-0.821-1.988v-11.526c0-0.778 0.272-1.441 0.821-1.986 0.549-0.543 1.211-0.817 1.995-0.817h1.919c0.783 0 1.441 0.267 1.977 0.797 0.534 0.533 0.804 1.201 0.804 2.005v11.526zM223.121 17.575v-0.038c0-0.183 0.176-0.389 0.526-0.623s0.708-0.518 1.074-0.856c0.387-0.442 0.771-1.019 1.146-1.732 0.377-0.713 0.565-1.527 0.565-2.433v-0.391c0-2.233-0.649-3.997-1.947-5.293-1.299-1.299-3.064-1.949-5.297-1.949l-11.302-0.004 2.152 2.151v21.994c0 0.26 0.126 0.391 0.383 0.391h3.669c0.256 0 0.386-0.131 0.386-0.391v-9.617c0-0.259 0.13-0.388 0.391-0.388h3.482l0.315 0.233 3.444 9.892c0.105 0.183 0.221 0.272 0.352 0.272h4.010c0.26 0 0.391-0.102 0.391-0.314 0-0.077-0.015-0.142-0.040-0.193l-3.7-10.711zM221.993 11.498c0 0.78-0.279 1.442-0.84 1.988-0.56 0.545-1.22 0.817-1.977 0.817h-4.305c-0.26 0-0.389-0.131-0.389-0.39v-5.178c0-0.26 0.129-0.391 0.389-0.391h4.305c0.758 0 1.417 0.279 1.977 0.838 0.561 0.558 0.84 1.212 0.84 1.969v0.347zM248.589 28.206l-8.395-13.552c-0.052-0.101-0.078-0.181-0.078-0.233 0-0.025 0.028-0.089 0.078-0.195l7.578-9.344c0.076-0.105 0.117-0.208 0.117-0.314 0-0.207-0.142-0.312-0.427-0.312h-4.44l-0.316 0.156-7.701 10.027-0.004-9.792c0-0.259-0.128-0.39-0.386-0.39h-2.058v-0.004h-4.094l2.098 2.097v22.050c0 0.259 0.128 0.39 0.384 0.39h3.669c0.258 0 0.386-0.131 0.386-0.39v-8.46l1.561-1.199c0.078-0.102 0.197-0.154 0.352-0.154 0.078 0 0.184 0.076 0.315 0.233l6.132 9.773 0.316 0.195h4.564c0.287 0 0.429-0.101 0.429-0.313-0.002-0.076-0.027-0.166-0.079-0.27zM16.536 32c-1.496 0-5.773-2.834-5.9-5.617-3.63 0.382-6.771 1.115-8.88 2.073l-1.757 0.797 1.129-1.564c1.172-1.63 4.628-2.9 9.505-3.501v-5.997h4.693v-9.604c-1.798-0.532-3.074-2.211-3.074-4.106v-4.481h8.57v4.481c0 1.894-1.276 3.573-3.075 4.106v9.604h4.694v4.19h-2.508v-1.681h-6.792v5.555c0 1.079 2.897 3.193 3.435 3.237 0.451-0.037 3.355-1.834 3.355-3.237v-0.078c-1.197-0.071-2.31-0.105-3.397-0.105-0.233 0-1.435 0.027-1.435 0.027v-2.245c0 0 1.076-0.022 1.435-0.022 7.559 0 13.75 1.551 15.409 3.858l1.126 1.564-1.755-0.798c-2.097-0.953-5.237-1.685-8.878-2.071-0.119 3.101-4.475 5.614-5.902 5.614zM14.531 4.483c0 1.104 0.899 2.004 2.005 2.004s2.004-0.901 2.004-2.004v-2.202h-4.009l-0.001 2.202z"></path>
</svg>
