<?xml version="1.0" encoding="utf-8"?>
<!-- Generated by IcoMoon.io -->
<!DOCTYPE svg PUBLIC "-//W3C//DTD SVG 1.1//EN" "http://www.w3.org/Graphics/SVG/1.1/DTD/svg11.dtd">
<svg version="1.1" xmlns="http://www.w3.org/2000/svg" xmlns:xlink="http://www.w3.org/1999/xlink" width="265" height="32" viewBox="0 0 265 32">
<path d="M20.791 4.016c-0.263-0.411-0.583-0.819-0.961-1.232-0.377-0.409-0.811-0.795-1.304-1.156-1.542-1.084-3.414-1.626-5.612-1.626h-3.248c-1.378 0-2.634 0.215-3.766 0.642s-2.092 1.017-2.88 1.774c-0.787 0.754-1.403 1.666-1.846 2.729-0.442 1.067-0.664 2.258-0.664 3.57v14.568c0 1.314 0.212 2.503 0.64 3.57 0.426 1.065 1.041 1.987 1.846 2.753 0.804 0.773 1.772 1.363 2.904 1.776 1.131 0.41 2.387 0.617 3.766 0.617h2.411c1.378 0 2.633-0.206 3.766-0.617s2.093-1.002 2.879-1.776c0.788-0.766 1.403-1.688 1.846-2.753 0.442-1.067 0.664-2.256 0.664-3.57v-7.48c0-0.326-0.163-0.492-0.488-0.492h-10.243c-0.329 0-0.492 0.166-0.492 0.492v4.184c0 0.328 0.163 0.491 0.492 0.491h4.626c0.328 0 0.492 0.166 0.492 0.492v2.313c0 1.020-0.338 1.863-1.014 2.535-0.677 0.674-1.511 1.008-2.499 1.008h-2.424c-0.991 0-1.832-0.344-2.524-1.032-0.693-0.691-1.038-1.527-1.038-2.512v-14.568c0-0.984 0.344-1.823 1.033-2.512 0.689-0.687 1.526-1.032 2.51-1.032h3.248c0.722 0 1.33 0.204 1.822 0.615 0.492 0.41 0.951 0.993 1.378 1.748 0.163 0.262 0.278 0.466 0.344 0.615s0.18 0.222 0.345 0.222c0.098 0 0.18-0.015 0.246-0.050l4.282-2.117c0.197-0.096 0.295-0.229 0.295-0.393 0-0.131-0.073-0.362-0.221-0.692-0.145-0.327-0.351-0.694-0.612-1.105zM43.088 17.33v-0.048c0-0.231 0.221-0.492 0.664-0.787 0.442-0.295 0.893-0.654 1.353-1.082 0.492-0.558 0.977-1.289 1.452-2.189s0.714-1.93 0.714-3.076v-0.494c0-2.822-0.821-5.053-2.461-6.691-1.641-1.641-3.872-2.464-6.694-2.464l-14.525-0.005 2.956 2.956v27.566c0 0.328 0.163 0.494 0.488 0.494h4.636c0.324 0 0.488-0.165 0.488-0.494v-12.157c0-0.327 0.165-0.491 0.495-0.491h4.404l0.396 0.295 4.354 12.503c0.13 0.231 0.278 0.344 0.442 0.344h5.070c0.328 0 0.493-0.13 0.493-0.396 0-0.098-0.016-0.179-0.049-0.244l-4.676-13.539zM41.66 9.648c0 0.987-0.356 1.823-1.063 2.512-0.71 0.689-1.543 1.034-2.5 1.034h-5.443c-0.33 0-0.495-0.165-0.495-0.493v-6.545c0-0.328 0.165-0.494 0.495-0.494h5.443c0.957 0 1.789 0.353 2.5 1.059 0.708 0.706 1.063 1.532 1.063 2.488v0.439zM70.013 2.416c-0.788-0.757-1.748-1.347-2.88-1.774s-2.387-0.642-3.766-0.642h-2.411c-1.378 0-2.633 0.215-3.766 0.642-1.131 0.427-2.092 1.017-2.878 1.774-0.788 0.754-1.404 1.666-1.846 2.729-0.442 1.067-0.664 2.258-0.664 3.57v14.567c0 1.314 0.212 2.504 0.64 3.57 0.426 1.065 1.041 1.987 1.846 2.753 0.804 0.773 1.773 1.363 2.904 1.776 1.133 0.409 2.387 0.617 3.766 0.617h2.411c1.379 0 2.633-0.206 3.766-0.617s2.093-1.002 2.88-1.776c0.787-0.766 1.402-1.688 1.845-2.753 0.442-1.067 0.663-2.256 0.663-3.57v-14.567c0-1.312-0.221-2.504-0.663-3.57-0.444-1.063-1.059-1.975-1.846-2.729zM66.912 23.284c0 1.020-0.338 1.863-1.014 2.535-0.677 0.675-1.511 1.010-2.499 1.010h-2.424c-0.991 0-1.831-0.346-2.524-1.033-0.692-0.691-1.038-1.528-1.038-2.512v-14.569c0-0.983 0.346-1.821 1.038-2.51 0.693-0.687 1.534-1.032 2.524-1.032h2.424c0.989 0 1.822 0.337 2.499 1.008 0.675 0.674 1.014 1.519 1.014 2.535v14.569zM97.976 0.496h-4.638c-0.324 0-0.487 0.165-0.487 0.493v22.296c0 1.020-0.339 1.864-1.014 2.535-0.677 0.674-1.511 1.009-2.498 1.009h-2.424c-0.991 0-1.831-0.345-2.524-1.032-0.692-0.691-1.037-1.527-1.037-2.512v-22.296c0-0.328-0.165-0.493-0.492-0.493h-2.939v-0.005h-5.175l2.994 2.994v19.799c0 1.315 0.212 2.503 0.64 3.571 0.426 1.063 1.041 1.986 1.846 2.752 0.804 0.774 1.773 1.363 2.904 1.775 1.133 0.41 2.387 0.617 3.765 0.617h2.412c1.379 0 2.634-0.206 3.766-0.617s2.093-1.001 2.879-1.775c0.788-0.766 1.402-1.689 1.846-2.752 0.442-1.068 0.665-2.256 0.665-3.571v-22.296c-0.001-0.327-0.163-0.492-0.487-0.492zM124.304 0.496h-4.529c-0.328 0-0.492 0.165-0.492 0.493l0.198 19.738-10.042-19.985-0.443-0.246h-2.159v-0.005h-5.176l2.708 2.71v27.813c0 0.328 0.165 0.494 0.498 0.494h4.618c0.33 0 0.496-0.165 0.496-0.494l-0.246-19.54 10.059 19.786 0.44 0.248h4.073c0.326 0 0.49-0.165 0.49-0.494v-30.025c0.001-0.328-0.164-0.493-0.491-0.493zM143.008 0.496l-14.088-0.005 2.52 2.521v28c0 0.328 0.165 0.494 0.492 0.494h11.076c2.822 0 5.053-0.821 6.696-2.464 1.639-1.638 2.462-3.869 2.462-6.693v-12.702c0-2.822-0.821-5.053-2.462-6.691-1.644-1.64-3.876-2.461-6.697-2.461zM146.552 22.793c0 0.985-0.346 1.822-1.040 2.509-0.691 0.692-1.531 1.035-2.519 1.035h-5.445c-0.33 0-0.492-0.165-0.492-0.494v-19.687c0-0.328 0.163-0.493 0.492-0.493h5.445c0.956 0 1.789 0.354 2.497 1.059s1.062 1.532 1.062 2.489v13.582zM186.471 0.496h-5.019c-0.266 0-0.428 0.131-0.494 0.394l-3.646 20.034-4.672-20.182c-0.036-0.231-0.2-0.344-0.493-0.344h-2.462c-0.293 0-0.459 0.114-0.494 0.344l-4.674 20.182-3.593-20.034c-0.065-0.262-0.23-0.394-0.492-0.394h-2.044v-0.005h-5.175l2.013 2.013 6.19 28.606c0.065 0.266 0.23 0.396 0.491 0.396h3.593c0.296 0 0.461-0.114 0.494-0.344l4.92-19.494 4.971 19.494c0.032 0.231 0.198 0.344 0.493 0.344h3.593c0.262 0 0.426-0.13 0.493-0.396l6.495-30.026c0-0.033 0.009-0.065 0.025-0.096 0.014-0.032 0.026-0.066 0.026-0.098 0.002-0.264-0.179-0.395-0.54-0.395zM207.931 2.416c-0.785-0.757-1.746-1.347-2.878-1.774s-2.387-0.642-3.764-0.642h-2.411c-1.379 0-2.633 0.215-3.766 0.642-1.132 0.427-2.091 1.017-2.878 1.774-0.788 0.754-1.404 1.666-1.847 2.729-0.443 1.067-0.665 2.258-0.665 3.57v14.567c0 1.314 0.215 2.504 0.641 3.57 0.427 1.065 1.041 1.987 1.846 2.753 0.802 0.773 1.773 1.363 2.905 1.776 1.133 0.409 2.387 0.617 3.767 0.617h2.411c1.377 0 2.632-0.206 3.764-0.617 1.133-0.411 2.093-1.002 2.878-1.776 0.788-0.766 1.404-1.688 1.845-2.753 0.445-1.067 0.667-2.256 0.667-3.57v-14.567c0-1.312-0.222-2.504-0.667-3.57-0.443-1.063-1.059-1.975-1.847-2.729zM204.832 23.284c0 1.020-0.342 1.863-1.016 2.535-0.677 0.675-1.509 1.010-2.499 1.010h-2.425c-0.991 0-1.83-0.346-2.522-1.033-0.695-0.691-1.039-1.528-1.039-2.512v-14.569c0-0.983 0.344-1.821 1.039-2.51 0.693-0.687 1.531-1.032 2.522-1.032h2.425c0.989 0 1.822 0.337 2.499 1.008 0.675 0.674 1.016 1.519 1.016 2.535v14.569zM232.542 17.33v-0.048c0-0.231 0.222-0.492 0.665-0.787s0.895-0.654 1.357-1.082c0.49-0.558 0.974-1.289 1.45-2.189s0.714-1.93 0.714-3.076v-0.494c0-2.822-0.821-5.053-2.462-6.691-1.641-1.641-3.873-2.464-6.696-2.464l-14.286-0.005 2.72 2.719v27.801c0 0.329 0.161 0.494 0.485 0.494h4.637c0.324 0 0.489-0.165 0.489-0.494v-12.156c0-0.327 0.164-0.491 0.494-0.491h4.402l0.398 0.295 4.353 12.503c0.132 0.231 0.28 0.344 0.445 0.344h5.069c0.328 0 0.494-0.13 0.494-0.396 0-0.098-0.019-0.179-0.051-0.244l-4.677-13.538zM231.115 9.648c0 0.987-0.353 1.823-1.062 2.512-0.708 0.689-1.542 1.034-2.499 1.034h-5.442c-0.33 0-0.492-0.165-0.492-0.493v-6.545c0-0.328 0.163-0.494 0.492-0.494h5.442c0.958 0 1.791 0.353 2.499 1.059 0.709 0.706 1.062 1.532 1.062 2.488v0.439zM264.734 30.767l-10.612-17.13c-0.065-0.128-0.098-0.229-0.098-0.295 0-0.031 0.035-0.112 0.098-0.246l9.578-11.811c0.097-0.132 0.147-0.262 0.147-0.396 0-0.262-0.179-0.394-0.541-0.394h-5.612l-0.399 0.198-9.735 12.674-0.005-12.377c0-0.328-0.162-0.493-0.488-0.493h-2.6v-0.005h-5.175l2.651 2.651v27.871c0 0.328 0.162 0.494 0.486 0.494h4.637c0.326 0 0.488-0.165 0.488-0.494v-10.692l1.974-1.516c0.098-0.13 0.248-0.194 0.445-0.194 0.098 0 0.232 0.096 0.398 0.294l7.751 12.353 0.398 0.247h5.77c0.362 0 0.542-0.128 0.542-0.396-0.001-0.096-0.034-0.209-0.1-0.342z"></path>
</svg>
