<?xml version="1.0" encoding="utf-8"?>
<!-- Generated by IcoMoon.io -->
<!DOCTYPE svg PUBLIC "-//W3C//DTD SVG 1.1//EN" "http://www.w3.org/Graphics/SVG/1.1/DTD/svg11.dtd">
<svg version="1.1" xmlns="http://www.w3.org/2000/svg" xmlns:xlink="http://www.w3.org/1999/xlink" width="33" height="32" viewBox="0 0 33 32">
<path d="M16.532 32c-1.497 0-5.773-2.834-5.9-5.618-3.63 0.383-6.771 1.115-8.88 2.074l-1.757 0.798 1.129-1.564c1.171-1.631 4.628-2.9 9.505-3.501v-5.997h4.693v-9.604c-1.798-0.532-3.074-2.212-3.074-4.106v-4.482h8.57v4.482c0 1.894-1.276 3.572-3.075 4.105v9.605h4.694v4.19h-2.508v-1.681h-6.791v5.555c0 1.080 2.897 3.194 3.436 3.238 0.451-0.037 3.355-1.833 3.355-3.238v-0.078c-1.197-0.072-2.31-0.106-3.397-0.106-0.233 0-1.435 0.027-1.435 0.027v-2.245c0 0 1.076-0.023 1.435-0.023 7.558 0 13.751 1.551 15.409 3.858l1.126 1.564-1.755-0.798c-2.097-0.954-5.237-1.685-8.879-2.071-0.119 3.103-4.474 5.617-5.901 5.617zM14.527 4.483c0 1.105 0.899 2.005 2.005 2.005s2.005-0.9 2.005-2.005v-2.202h-4.009l-0.001 2.202z"></path>
</svg>
