<?xml version="1.0" encoding="utf-8"?>
<!-- Generated by IcoMoon.io -->
<!DOCTYPE svg PUBLIC "-//W3C//DTD SVG 1.1//EN" "http://www.w3.org/Graphics/SVG/1.1/DTD/svg11.dtd">
<svg version="1.1" xmlns="http://www.w3.org/2000/svg" xmlns:xlink="http://www.w3.org/1999/xlink" width="32" height="32" viewBox="0 0 32 32">
<path d="M16 0c-8.837 0-16 7.163-16 16s7.163 16 16 16 16-7.163 16-16-7.163-16-16-16zM16 26c-1.105 0-2-0.895-2-2s0.895-2 2-2 2 0.895 2 2-0.895 2-2 2zM19.298 15.755c-1.222 0.768-1.798 1.191-1.798 1.753v1c0 0.828-0.672 1.5-1.5 1.5s-1.5-0.672-1.5-1.5v-1c0-1.051 0.405-1.995 1.204-2.808 0.589-0.6 1.306-1.050 1.998-1.485 1.424-0.895 2.048-1.374 2.048-2.215 0-0.914-0.527-1.525-0.97-1.876-0.71-0.564-1.698-0.874-2.78-0.874-1.642 0-3.119 1.096-3.591 2.666-0.239 0.793-1.076 1.242-1.869 1.004s-1.242-1.076-1.004-1.869c0.41-1.36 1.262-2.582 2.401-3.441 1.178-0.889 2.583-1.359 4.063-1.359 1.756 0 3.406 0.541 4.645 1.524 1.358 1.077 2.105 2.578 2.105 4.226 0 2.586-1.995 3.84-3.452 4.755z"></path>
</svg>
