<?xml version="1.0" encoding="utf-8"?>
<!-- Generated by IcoMoon.io -->
<!DOCTYPE svg PUBLIC "-//W3C//DTD SVG 1.1//EN" "http://www.w3.org/Graphics/SVG/1.1/DTD/svg11.dtd">
<svg version="1.1" xmlns="http://www.w3.org/2000/svg" xmlns:xlink="http://www.w3.org/1999/xlink" width="70" height="32" viewBox="0 0 70 32">
<path d="M27.52 6.696c-0.275 0.019-0.522-0.045-0.738-0.193-0.246-0.158-0.38-0.37-0.399-0.635-0.020-0.503 0.281-0.769 0.901-0.799 0.306 0 0.572 0.079 0.799 0.236 0.217 0.178 0.325 0.36 0.325 0.547 0.010 0.217-0.069 0.409-0.236 0.577s-0.384 0.256-0.651 0.266zM17.795 5.35l0.030 10.538 3.444-3.872 4.242-0.443-2.986 1.226c-0.62 0.256-1.241 0.636-1.862 1.138-0.197 0.167-0.606 0.556-1.227 1.168 1.41 0.020 2.326 0.158 2.749 0.413 0.769 0.611 1.66 1.817 2.676 3.621l2.911 0.561-4.035 1.33c-0.808-1.685-1.552-2.981-2.232-3.887-0.276-0.355-0.537-0.626-0.784-0.813-0.512-0.286-1.241-0.384-2.187-0.296l-0.709 0.738-0.015 2.306 2.483 1.197-6.592 0.236 2.351-1.39-0.754-12.119-2.749-1.034 5.247-0.621zM28.334 13.996l1.449 0.931c0.147-0.778 0.591-1.463 1.33-2.055 0.857-0.66 1.803-1.010 2.838-1.049 0.316-0.009 0.764 0.030 1.345 0.119l-0.089-2.986-1.936-0.753 3.784-0.236-0.266 9.607 2.113 0.622-3.429 0.842-0.089-1.138c-0.473 0.336-1.133 0.527-1.98 0.577-2.375 0.088-3.597-0.857-3.665-2.838 0-0.227 0.015-0.444 0.045-0.651l-4.301 0.059 1.611-1.080-0.399-4.552-1.685-0.739 3.4-0.103-0.073 5.424zM13.583 0l-9.563 23.396-0.030 0.162c0.010 0.148 0.064 0.306 0.163 0.473 0.305 0.532 0.995 1.084 2.069 1.656 3.468 1.813 10.169 3.418 20.101 4.819-4.079-0.148-8.233-0.439-12.46-0.872-8.464-0.877-13.084-2.024-13.863-3.443 1.645-3.675 3.444-7.523 5.394-11.543 3.912-8.041 6.642-12.924 8.189-14.648zM41.118 11.69c0.168 0.089 0.632 0.256 1.39 0.503 0.798 0.256 1.335 0.463 1.611 0.621 0.473 0.286 0.719 0.636 0.739 1.049 0.020 0.384-0.148 0.729-0.503 1.035-0.384 0.345-0.931 0.537-1.64 0.576-1.034 0.010-1.862-0.133-2.483-0.428l-0.769 0.842 0.103-3.221c0.443 0.985 1.094 1.665 1.951 2.039 0.384 0.148 0.773 0.232 1.167 0.251 0.266 0 0.493-0.064 0.68-0.192 0.197-0.108 0.295-0.256 0.295-0.444-0.010-0.404-0.576-0.763-1.699-1.079-1.468-0.404-2.217-1.024-2.246-1.862-0.011-0.453 0.196-0.842 0.621-1.168 0.403-0.306 0.876-0.468 1.419-0.488 0.739 0 1.385 0.173 1.936 0.518l0.709-1.079 0.103 3.222c-0.424-0.946-1-1.601-1.729-1.966-0.285-0.138-0.611-0.227-0.976-0.265-0.758 0.039-1.137 0.315-1.137 0.828 0.020 0.315 0.173 0.552 0.458 0.709zM33.831 12.386c-1.774 0.059-2.621 1.138-2.542 3.237 0.020 0.492 0.123 0.926 0.31 1.3 0.355 0.7 0.941 1.029 1.759 0.991 0.789-0.021 1.371-0.321 1.745-0.902 0.247-0.374 0.36-0.782 0.34-1.226l-0.059-1.389c-0.049-0.719-0.113-1.168-0.192-1.345-0.207-0.473-0.66-0.695-1.36-0.665zM41.133 20.13c-0.561 0.039-1.020 0.28-1.374 0.724-0.434 0.522-0.616 1.197-0.547 2.025 0.069 0.798 0.344 1.4 0.828 1.803 0.424 0.355 0.96 0.498 1.611 0.429 0.621-0.040 1.124-0.251 1.507-0.636 0.493-0.473 0.7-1.163 0.621-2.069-0.048-0.698-0.301-1.26-0.753-1.684-0.503-0.463-1.128-0.661-1.877-0.591h-0.016zM41.843 19.229c0.838-0.069 1.592 0.108 2.261 0.532 0.709 0.483 1.109 1.172 1.197 2.069 0.040 0.512 0.005 0.989-0.103 1.432l3.177-0.68 0.148 1.020c0.632-0.572 1.212-0.877 1.744-0.917 0.779-0.069 1.188 0.178 1.227 0.739 0.040 0.394-0.168 0.605-0.621 0.635-0.098 0.011-0.37-0.035-0.813-0.133-0.433-0.098-0.719-0.143-0.857-0.133-0.217 0.030-0.444 0.192-0.68 0.488l-0.030 3.931 1.863 0.665-4.877 0.635 1.759-1.108-0.325-4.183-1.745-0.813c-0.147 0.443-0.37 0.843-0.665 1.197-0.719 0.838-1.828 1.325-3.325 1.463-1.015 0.069-1.867-0.217-2.557-0.858-0.631-0.591-0.981-1.33-1.049-2.217h0.015c-0.069-0.768 0.222-1.517 0.872-2.246 0.798-0.886 1.926-1.393 3.385-1.521zM53.828 20.412l-0.014 0.355c0.581-0.375 1.192-0.586 1.832-0.635 1.301-0.118 2.118 0.518 2.454 1.907 0.147 0.876 0.241 1.517 0.28 1.921l0.045 1.005 1.567 0.724-4.346 0.251 1.301-0.961c0.089-0.778 0.108-1.429 0.059-1.951-0.128-1.497-0.636-2.266-1.522-2.305-0.67 0.049-1.226 0.355-1.669 0.916-0.040 1.114-0.055 1.981-0.045 2.601 0.030 0.384 0.084 0.695 0.163 0.931l1.507 0.606-4.494 0.428 1.729-0.976-0.369-3.665-1.907-0.813 3.428-0.339zM60.731 21.18c0.68 0.088 1.241 0.118 1.684 0.088 0.256-0.029 0.779-0.113 1.567-0.251-0.019-0.305-0.064-0.616-0.133-0.93-0.059-0.286-0.227-0.547-0.502-0.783-0.325-0.276-0.675-0.399-1.049-0.369-0.592 0.069-1.035 0.448-1.33 1.137-0.069 0.137-0.148 0.506-0.236 1.108zM63.746 18.889c0.995 0.444 1.519 1.315 1.567 2.616-1.015 0.030-1.872 0.074-2.571 0.133-0.384 0.040-1.065 0.118-2.040 0.236 0.315 1.212 0.966 1.818 1.951 1.818 0.285-0.030 0.547-0.103 0.783-0.222 0.561-0.266 0.936-0.675 1.123-1.226h0.709l-0.118-0.059 2.676-0.547 0.103 0.798c0.483-0.443 0.941-0.685 1.375-0.724 0.601-0.049 0.916 0.143 0.945 0.576 0.030 0.306-0.128 0.473-0.472 0.503-0.099 0.010-0.316-0.026-0.651-0.103-0.325-0.088-0.547-0.123-0.665-0.103-0.168 0.011-0.345 0.133-0.532 0.37v3.059l1.419 0.532-3.798 0.487 1.374-0.857-0.236-3.267-1.33-0.62c-0.197 1.034-1.049 1.655-2.557 1.862-1.202 0.108-2.113-0.158-2.734-0.798-0.433-0.424-0.675-0.956-0.724-1.597-0.040-0.581 0.093-1.142 0.399-1.685 0.483-0.867 1.335-1.355 2.557-1.462 0.572-0.001 1.054 0.093 1.448 0.279zM33.181 21.904c-0.532-0.355-1.049-0.547-1.552-0.576-1.212 0.108-2.123 0.704-2.734 1.788-0.552 0.986-0.769 2.139-0.651 3.459 0.108 1.419 0.458 2.542 1.049 3.369 0.71 0.995 1.671 1.439 2.882 1.33 1.793-0.266 2.917-1.133 3.37-2.601l1.507 0.384c-0.217 1.054-1.064 1.857-2.541 2.409-0.621 0.227-1.335 0.394-2.143 0.502-1.675 0.138-3.139-0.192-4.39-0.99-1.458-0.945-2.266-2.335-2.424-4.167-0.148-1.774 0.518-3.287 1.995-4.538 1.172-0.986 2.341-1.527 3.503-1.626 1.241-0.050 2.576 0.251 4.005 0.901l1.685-1.551-0.163 6.636c-1.024-2.287-2.158-3.863-3.4-4.73z"></path>
</svg>
