<?xml version="1.0" encoding="UTF-8" standalone="no"?>
<!DOCTYPE svg PUBLIC "-//W3C//DTD SVG 1.1//EN" "http://www.w3.org/Graphics/SVG/1.1/DTD/svg11.dtd">
<svg width="100%" height="100%" viewBox="0 0 250 184" version="1.1" xmlns="http://www.w3.org/2000/svg" xmlns:xlink="http://www.w3.org/1999/xlink" xml:space="preserve" style="fill-rule:evenodd;clip-rule:evenodd;stroke-linejoin:round;stroke-miterlimit:1.41421;">
    <path d="M48.3,94.4L46.8,71L62.2,103.4L80,95.4L55.4,45.8L83.3,10.1L65.5,-1.1L44.4,28L42.5,0.8L22.5,1.7L26.1,91.8L48.3,94.4ZM59.408,60.424C59.49,60.666 60.181,62.694 61.4,65.6C62,67.2 62.8,69 63.6,70.9C64,71.9 64.4,72.9 64.9,73.9L67.7,79.9C68.1,80.9 68.6,81.9 69.1,82.8C70,84.7 70.9,86.4 71.7,87.9C73.2,90.9 74.4,92.8 74.4,92.8C74.4,92.8 73.7,90.7 72.4,87.6C71.8,86 71,84.2 70.2,82.3C69.8,81.3 69.4,80.3 68.9,79.3L66.1,73.3C65.7,72.3 65.2,71.3 64.7,70.4C63.8,68.5 62.9,66.8 62.1,65.3C60.6,62.3 59.4,60.4 59.4,60.4L59.408,60.424ZM38.9,5.366C38.9,7.144 38.906,8.922 39,10.7C39,11.7 39.1,12.6 39.2,13.6C39.3,14.6 39.3,15.6 39.4,16.5C39.4,17.4 39.5,18.4 39.6,19.3C39.7,20.2 39.8,21.2 39.9,22.1C40.1,24 40.3,25.9 40.7,27.8C40.9,25.9 40.9,24 40.9,22.1C40.9,21.1 40.9,20.1 40.9,19.2C40.9,18.2 40.8,17.2 40.8,16.3C40.8,15.3 40.8,14.3 40.7,13.4C40.6,12.5 40.6,11.5 40.5,10.6C40.3,8.7 40.1,6.8 39.9,4.9L39.8,4.5L39.4,4.5C38,4.6 36.6,4.7 35.2,4.9C36.457,5.08 37.715,5.259 38.9,5.366ZM75.956,10.435C75.439,11.087 74.969,11.774 74.5,12.4C73.9,13.2 73.3,14 72.7,14.9C72.1,15.8 71.5,16.6 71,17.5C70.4,18.4 69.9,19.3 69.4,20.2C70.2,19.4 70.9,18.7 71.6,17.9C72.2,17.2 72.9,16.4 73.6,15.6C74.3,14.8 75,14.1 75.6,13.2C76.2,12.3 76.9,11.5 77.5,10.7L78,10.1L77.4,9.7C76.6,9.2 75.7,8.6 74.9,8.1C74.1,7.6 73.3,7.1 72.4,6.6C70.6,5.6 68.9,4.6 67.1,3.8C68.6,5.2 70.2,6.4 71.8,7.5C72.6,8.1 73.4,8.6 74.2,9.2C74.785,9.639 75.371,10.024 75.956,10.435Z" />
    <path d="M80.5,87.6L95.7,85.4L93.2,48.6L73.7,49.9L80.5,87.6ZM89.7,58.833C89.703,59.519 89.802,60.111 89.9,60.8C90.1,62.2 90.3,63.5 90.5,64.8C90.7,66.2 91,67.5 91.3,68.8C91.4,67.5 91.4,66.1 91.4,64.8C91.4,63.5 91.4,62.1 91.3,60.8C91.3,60.1 91.3,59.5 91.2,58.8C91.1,58.1 91.1,57.5 91,56.8L90.6,52.8L90.5,52.1L89.9,52.2C89.3,52.3 88.8,52.4 88.2,52.5C87.6,52.6 87.1,52.7 86.5,52.8C85.4,53 84.3,53.3 83.2,53.6C84.4,53.7 85.5,53.7 86.5,53.6C87.1,53.5 87.6,53.5 88.2,53.5C88.566,53.5 88.895,53.463 89.232,53.434C89.232,53.434 89.234,53.434 89.232,53.434L89.3,54.8L89.5,56.8C89.598,57.489 89.697,58.081 89.7,58.767L89.7,58.833Z" />
    <path d="M78.6,25.1C75.6,26.1 73.8,28.8 73.8,32.3C73.8,36.3 76.3,41.3 80,42.5C80.7,42.7 81.5,42.9 82.2,42.9C84.3,42.9 86.2,42.1 87.7,40.7C90.1,38.6 91.1,35.3 90.4,32.2C89.7,29 88.2,26.7 86,25.5C83.8,24.2 81.4,24.2 78.6,25.1ZM83.007,27.6C82.55,27.6 82.169,27.606 81.7,27.7C81.5,27.7 81.4,27.8 81.3,27.8L81.2,27.8L81.7,27.8C82.1,27.9 82.5,28 82.9,28.2C83.1,28.3 83.4,28.5 83.6,28.6C83.8,28.8 84.1,28.9 84.3,29.1C84.8,29.5 85.2,29.9 85.6,30.4C85.7,30.5 85.8,30.7 85.9,30.8C86,31 86,31.1 86,31.4C86.1,31.5 86.1,31.7 86.2,31.8C86.3,31.9 86.3,32.1 86.4,32.2C86.6,32.7 86.8,33.2 86.9,33.8C86.9,34 87,34.3 87,34.5C87,34.8 87.1,34.9 87.1,35.1C87.2,35.4 87.2,35.6 87.2,35.6C87.2,35.6 87.3,35.4 87.4,35.1C87.5,34.9 87.5,34.7 87.6,34.5C87.6,34.369 87.619,34.257 87.641,34.147L87.659,34.053C87.681,33.943 87.7,33.831 87.7,33.7L87.8,33.3L87.8,32.3C87.8,32.1 87.7,32 87.7,31.8C87.7,31.4 87.6,31 87.4,30.7C87.2,30.4 87,30 86.8,29.7L86.4,29.2C86.3,29.1 86.2,28.9 86,28.8C85.8,28.7 85.7,28.6 85.5,28.5C85.3,28.4 85.2,28.3 85,28.2C84.8,28.1 84.7,28.1 84.5,28L84,27.8C83.7,27.7 83.4,27.6 83.1,27.6L83.007,27.6Z" />
    <path d="M102,85.5L100,85.5L100,83.5C100,79.7 96.7,10.7 96.7,10L96.6,8.1L98.5,8C98.7,7.9 121,6.5 134.5,18.9C141.5,25.3 145,34.3 145,45.6C145,57.1 141.4,66.4 134.4,73.3C122.3,85.2 104,85.5 102,85.5ZM110.599,33.706C110.588,33.826 110.4,35.794 110.4,38.7L110.4,46.7L110.6,52.7C110.7,53.7 110.8,54.7 110.8,55.6C110.9,57.5 111.1,59.2 111.2,60.7C111.5,63.7 111.8,65.7 111.8,65.7C111.8,65.7 111.9,63.7 112,60.7L112,52.7L111.8,46.7C111.7,45.7 111.6,44.7 111.6,43.8C111.5,41.9 111.3,40.2 111.2,38.7C110.9,35.7 110.6,33.7 110.6,33.7L110.599,33.706ZM121.9,58.6C120.3,60.1 118.3,61.1 116.2,61.6L114.8,29.4C117.5,29.9 120,31.1 122,33C124.9,35.8 126.4,40 126.4,45.5C126.3,51.4 124.8,55.8 121.9,58.6ZM105.515,10.961C105.077,10.962 104.638,10.974 104.2,11C103.6,11 103.1,11.1 102.8,11.1L102.3,11.2L103,11.1C103.3,11.1 103.8,11.2 104.4,11.2C105,11.3 105.7,11.4 106.6,11.5C107.5,11.6 108.4,11.8 109.4,12C110.4,12.2 111.5,12.5 112.6,12.8C113.7,13.1 114.9,13.5 116.1,13.9C118.6,14.8 121.1,15.9 123.5,17.1C125.9,18.3 128.2,19.7 130.3,21.3C131.3,22.1 132.2,22.9 133.1,23.7C133.5,24.1 133.9,24.5 134.3,24.9C134.7,25.3 135.1,25.7 135.4,26.1L135.9,26.7L136.3,27.3C136.6,27.7 136.9,28 137.1,28.4C137.6,29.1 138,29.7 138.3,30.2C138.6,30.7 138.8,31.1 139,31.4L139.2,31.8L139,31.3C138.9,31 138.8,30.6 138.5,30C138.2,29.3 137.9,28.6 137.5,28C137.3,27.6 137.1,27.2 136.8,26.8C136.5,26.3 136.2,25.9 135.9,25.5C135.6,25.1 135.3,24.7 134.9,24.2C134.713,24.012 134.525,23.803 134.338,23.592L134.263,23.508C134.075,23.297 133.888,23.087 133.7,22.9C132.8,22 131.9,21.1 130.9,20.3C129.8,19.5 128.7,18.6 127.6,17.9C126.4,17.2 125.2,16.4 123.9,15.8C122.7,15.2 121.4,14.6 120.1,14.1C118.9,13.5 117.6,13.1 116.3,12.7C114,12 111.7,11.5 109.3,11.2C108.052,11.053 106.803,10.96 105.555,10.961L105.515,10.961Z" />
    <path d="M164.9,103.8L163.9,103.8C157.2,103.8 150.8,100.8 146.5,95.7C141,89.1 139.5,80 142.2,69.9L142.9,67.2L160.2,70.8L159.7,73.6C159,77.8 159.6,81.6 161.3,83.3C162.1,84 163.1,84.3 164.1,84C165.3,83.8 165.6,83.2 165.7,83C166.4,81.6 166.2,78.3 163.6,73.2C162.4,70.9 160.9,68.4 159.3,65.7C154.3,57.4 148.7,48.1 148.2,37.8C147.5,23.2 159.5,14.7 171,14.2C177,13.9 182.9,15.9 187.4,19.8C192.3,24.2 195.1,30.7 195.5,38.7L195.6,41.7L178.1,42.6L177.9,39.7C177.8,38.1 177.3,35.3 175.3,34.4C173.8,33.8 171.7,34.3 170,35.6C167.9,37.2 167.1,39.9 167.7,42.4C168.9,48.3 172.1,53 175.2,57.5C178.5,62.3 181.9,67.3 183.5,73.9C185.8,83.2 185,90.6 181.2,95.8C178,100.4 172.8,103 166,103.7C165.6,103.8 165.2,103.8 164.9,103.8ZM156.195,78.477C156.1,77.984 156.1,77.492 156.1,77L156.1,73.3L155.6,73.2C155.2,73.1 154.7,73.1 154.3,73C153.9,72.9 153.4,72.9 153,72.8C152.1,72.6 151.2,72.5 150.3,72.5C151.1,72.9 151.9,73.2 152.8,73.6C153.3,73.7 153.6,73.9 154.1,74C154.376,74.055 154.621,74.141 154.852,74.223C154.77,75.124 154.7,75.977 154.7,76.9C154.7,78 154.8,79 155,80.1C155.1,80.7 155.2,81.2 155.4,81.7C155.5,82 155.6,82.2 155.7,82.5C155.8,82.8 155.9,83.1 156,83.3C156.044,83.387 156.107,83.494 156.172,83.603L156.228,83.697C156.293,83.806 156.356,83.912 156.4,84C156.6,84.3 156.7,84.5 156.9,84.7C157.1,84.9 157.3,85.1 157.5,85.3C157.7,85.4 158,85.6 158.2,85.7C158,85.5 157.8,85.3 157.7,85.1C157.5,84.9 157.4,84.6 157.3,84.4C157.2,84.2 157.1,83.9 157,83.7C156.956,83.612 156.932,83.506 156.909,83.397L156.891,83.303C156.868,83.194 156.844,83.087 156.8,83C156.7,82.5 156.6,82 156.5,81.5C156.4,81 156.3,80.5 156.3,80C156.3,79.508 156.3,79.016 156.205,78.523L156.195,78.477ZM165.3,47.4L165.6,48.3L166.1,49.3C166.4,50.1 166.8,50.9 167.3,51.8L168,53.2L168.8,54.7C169.4,55.7 170,56.7 170.7,57.8C172,60 173.4,62.2 174.8,64.5C175.1,65.1 175.5,65.6 175.8,66.2C176.2,66.8 176.5,67.3 176.8,67.9L178.4,71.3C178.7,71.9 178.9,72.5 179.1,73C179.3,73.5 179.5,74 179.7,74.6C180.1,75.6 180.4,76.7 180.6,77.7L180.9,79.1L181.1,80.4L181.3,81.5C181.3,81.9 181.3,82.2 181.3,82.5L181.4,84.3L181.6,82.5C181.6,82.2 181.7,81.9 181.7,81.5L181.7,79C181.6,78.6 181.6,78.1 181.5,77.6C181.4,77.1 181.3,76.5 181.2,76L180.8,74.3C180.7,73.7 180.5,73.2 180.3,72.6C180.1,72 179.9,71.4 179.6,70.8L178.8,69C178.5,68.4 178.2,67.8 177.9,67.2C177.6,66.6 177.2,66 176.9,65.4C176.6,64.8 176.3,64.2 175.9,63.6C175.1,62.4 174.4,61.3 173.7,60.2C173,59.1 172.3,58 171.6,57L169.6,54C168.9,53.1 168.3,52.1 167.8,51.3C167.3,50.5 166.8,49.7 166.4,49L165.8,48L165.3,47.1L164.4,45.5L165.3,47.4ZM185.7,25.3C186,25.7 186.3,26 186.6,26.4C186.9,26.8 187.1,27.1 187.4,27.5L187.8,28L188.1,28.6C188.5,29.4 188.9,30.1 189.2,30.9C189.5,31.6 189.8,32.3 190,33L190.8,34.7L191.1,36.2C191.3,37 191.4,37.5 191.4,37.5C191.4,37.5 191.4,37.1 191.4,36.2L191.3,34.7C191.2,34.1 191,33.4 190.9,32.7C190.8,31.9 190.6,31.1 190.3,30.4C190.2,30 190.1,29.6 189.9,29.2L189,27.4L188.6,26.8C188.3,26.4 188.1,26 187.8,25.6C187.5,25.2 187.2,24.8 186.9,24.4L186.4,23.8C186.3,23.6 186.1,23.5 185.9,23.3C185.5,23 185.2,22.6 184.8,22.3L183.6,21.4C183.2,21.1 182.8,20.8 182.4,20.6C182,20.3 181.5,20.1 181.1,19.9C180.6,19.7 180.2,19.5 179.8,19.3L178.6,18.9C177.9,18.7 177.1,18.5 176.3,18.4L175.2,18.3C174.8,18.3 174.5,18.3 174.2,18.3C173.6,18.3 173.1,18.3 172.6,18.4C172.2,18.4 171.9,18.5 171.6,18.6L171.3,18.7L171.6,18.6L172.6,18.6C173.1,18.7 173.6,18.7 174.1,18.8C174.231,18.844 174.363,18.868 174.494,18.891L174.606,18.909C174.737,18.932 174.869,18.956 175,19L176,19.2C176.3,19.3 176.7,19.4 177,19.5C177.4,19.6 177.7,19.7 178.1,19.9L179.3,20.4L180.4,21C180.8,21.2 181.1,21.4 181.5,21.7C181.9,22 182.2,22.2 182.6,22.5L183.7,23.3C184,23.7 184.4,24 184.7,24.3L185.7,25.3Z" />
    <path d="M60.8,150.4C54.9,159.3 45.8,163.4 37.7,161C28.5,158.2 22.7,147.8 22.7,133.8C22.7,121.1 30.6,116.2 34.4,115.9C39,115.4 41.3,116.6 42.9,117.5C43.2,117.7 43.5,117.8 43.8,117.9L45.6,118.7L46.5,116.9C46.6,116.7 50.8,108.1 53,103.5L53.8,101.9L52.3,100.9C42.6,94.8 28.6,94.4 18.4,100.1C10.5,104.5 1,114.1 1,135.3C1,162.8 17.7,178.8 34.3,182.4C36.8,182.9 39.4,183.2 41.9,183.2C56.5,183.2 68.8,174.5 75.7,159.4L76.4,157.8L61.9,148.9L60.8,150.4ZM64.186,153.386C63.888,153.094 63.495,152.895 63.2,152.6L62.7,152.2L62.3,152.8C62.009,153.188 61.719,153.481 61.428,153.863L61.372,153.937C61.081,154.319 60.791,154.612 60.5,155C59.8,155.8 59.2,156.5 58.5,157.2L57.5,158.2L56.5,159.3L54.3,161.3C54.8,161.1 55.3,160.9 55.9,160.9C56.3,160.6 56.8,160.4 57.2,160.1C58.1,159.5 58.9,158.9 59.6,158.2C60.3,157.5 61,156.8 61.7,156C62.261,155.358 62.759,154.717 63.191,154.024C63.19,154.023 63.547,154.223 63.7,154.3C64,154.5 64.4,154.7 64.8,154.9C65.5,155.3 66.3,155.7 67.1,156C66.5,155.3 65.9,154.8 65.2,154.2C64.905,153.905 64.512,153.706 64.214,153.414L64.186,153.386ZM37,99.1L36.1,99.1C35.969,99.1 35.837,99.119 35.706,99.141L35.594,99.159C35.463,99.181 35.331,99.2 35.2,99.2C35.8,99.3 36.3,99.4 36.8,99.7C37.4,99.9 37.9,100 38.5,100.2C39.1,100.4 39.6,100.5 40.2,100.7L41.9,101.2L45.3,102.4C45.9,102.6 46.4,102.9 46.9,103.1C47.267,103.32 47.633,103.486 48,103.678C47.737,104.415 47.437,105.189 47.2,105.9C46.9,106.8 46.6,107.7 46.4,108.7C47,107.9 47.5,107 48,106.2C48.5,105.3 48.9,104.5 49.4,103.6L49.6,103.1L49.1,102.8C48.6,102.4 48,102.1 47.5,101.8C46.9,101.5 46.4,101.2 45.8,101C45.3,100.8 44.7,100.6 44.1,100.4C43.6,100.2 43,100 42.4,99.9C41.8,99.8 41.2,99.6 40.6,99.5C40,99.4 39.4,99.2 38.8,99.2C38.2,99.1 37.6,99.1 37,99.1Z" />
    <path d="M64.1,104.9C56.7,106.3 52.9,111.8 51.9,122.7C51.2,129.9 53.2,137 57.4,141.7C60.1,144.7 63.4,146.5 66.7,146.6L67.1,146.6C71.8,146.6 75.7,144 78.2,139.2C82.6,130.8 81.8,117.1 76.4,109.9C73.3,105.7 69,103.9 64.1,104.9ZM66.172,118.7C66.053,118.703 65.949,118.721 65.847,118.741L65.753,118.759C65.643,118.781 65.531,118.8 65.4,118.8C63.4,119.1 62.6,121.9 62.8,124.5C63.1,128.2 65.1,130.2 65.9,130.3C66.9,130.3 69.6,128.9 69.9,124.9C70.1,122.3 69.3,120.1 68,119.2C67.4,118.8 66.8,118.7 66.2,118.7L66.172,118.7ZM72.653,108.863C72.543,108.775 72.431,108.688 72.3,108.6C71.8,108.3 71.3,108 70.7,107.7C70.2,107.5 69.6,107.3 69,107.2C68.7,107.1 68.5,107.1 68.2,107.1C67.9,107.1 67.6,107.1 67.4,107.1C67,107.1 66.5,107.1 66.1,107.2C65.7,107.2 65.4,107.3 65.1,107.4C64.6,107.6 64.3,107.7 64.3,107.7C64.3,107.7 64.7,107.7 65.1,108C65.4,107.9 65.7,108 66.1,108C66.275,108 66.45,108.019 66.625,108.041L66.775,108.059C66.95,108.081 67.125,108.1 67.3,108.1C67.387,108.144 67.494,108.168 67.603,108.191L67.697,108.209C67.806,108.232 67.913,108.256 68,108.3C68.2,108.3 68.5,108.4 68.7,108.5C69.2,108.7 69.6,108.9 70.1,109.1L70.8,109.5C71.1,109.6 71.3,109.8 71.5,110C71.7,110.1 71.9,110.3 72.1,110.5L73.3,111.7L73.8,112.4C74.1,112.8 74.5,113.3 74.7,113.8C74.788,114.019 74.894,114.218 75.003,114.416L75.097,114.584C75.206,114.782 75.312,114.981 75.4,115.2C75.6,115.6 75.8,116.1 76,116.5C76.2,116.9 76.4,117.3 76.5,117.6L76.8,118.5C77,119 77.1,119.3 77.1,119.3C77.1,119.3 77.1,118.9 77.1,118.4C77.1,118.1 77.1,117.8 77,117.4C77,117 76.9,116.6 76.8,116.1C76.7,115.6 76.6,115.1 76.4,114.6C76.2,114.1 76,113.5 75.8,113C75.7,112.7 75.5,112.5 75.4,112.2C75.325,112.088 75.264,111.989 75.207,111.894L75.093,111.706C75.036,111.611 74.975,111.513 74.9,111.4L74.4,110.6C74.2,110.4 74,110.1 73.8,109.9C73.6,109.7 73.4,109.4 73.1,109.2C72.969,109.113 72.857,109.025 72.747,108.938L72.653,108.863Z" />
    <path d="M117.3,106.8C112.9,96 99.2,89.3 84.7,90.8L82.5,91L86.3,176.9L106.8,173.8L104.4,152.8L126.1,176.8L139.2,163.7L110.1,133.2C118.1,125.3 120.8,115.5 117.3,106.8ZM112.712,140.617C112.829,140.79 113.819,142.238 115.6,144.3C116.5,145.4 117.6,146.6 118.7,147.9C119.3,148.6 119.9,149.2 120.5,149.9L124.3,153.9C125,154.6 125.6,155.2 126.2,155.8C127.4,157 128.6,158.2 129.6,159.1C131.7,161 133.1,162.2 133.1,162.2C133.1,162.2 132,160.6 130.2,158.5C129.3,157.4 128.2,156.2 127.1,154.9C126.5,154.2 125.9,153.6 125.3,152.9L121.5,148.9C120.8,148.2 120.2,147.6 119.6,147C118.4,145.8 117.2,144.6 116.2,143.7C114.1,141.8 112.7,140.6 112.7,140.6L112.712,140.617ZM99.5,107.1C102.3,108.7 103.7,110.8 103.7,113.4C103.6,116.2 102.5,118.8 100.5,120.8L99.5,107.1ZM90.9,94.2L88.9,94.2C88.4,94.2 88,94.3 87.7,94.3L87.3,94.4L87.9,94.5C88.1,94.5 88.6,94.6 89.1,94.6C89.6,94.6 90.3,94.7 91,94.8C91.7,94.9 92.5,95.1 93.4,95.3C94.3,95.5 95.2,95.8 96.2,96.1C97.1,96.5 98.2,96.9 99.2,97.3C100.2,97.7 101.3,98.2 102.3,98.8C103.3,99.4 104.3,100 105.3,100.7C106.3,101.4 107.2,102.1 108.1,102.9C109,103.7 109.8,104.5 110.5,105.4C111.2,106.2 111.8,107.1 112.4,108C112.9,108.9 113.3,109.7 113.7,110.6C114,111.3 114.3,112.1 114.5,112.9L114.7,113.9L114.8,114.8C114.9,115.3 114.9,115.7 114.9,116L114.909,115.953C115,115.475 115,115.087 115,114.7L115,113.8L114.9,112.7C114.9,112.3 114.8,111.9 114.7,111.5C114.7,111.1 114.5,110.7 114.4,110.2C114.1,109.2 113.7,108.3 113.2,107.4C112.7,106.4 112.1,105.4 111.4,104.5C110.7,103.5 109.9,102.6 109,101.8C108.1,100.9 107.1,100.1 106.1,99.4C105.1,98.7 104,98.1 102.9,97.5C101.8,96.9 100.7,96.4 99.6,96C98.6,95.6 97.5,95.3 96.4,95C95.4,94.7 94.4,94.5 93.4,94.4C92.6,94.3 91.7,94.2 90.9,94.2Z" />
    <path d="M138.4,86.5L161.2,131.4L160.5,108.2L180.6,103.2L177.7,173.8L160.3,173.7L160.1,173.3L140.1,129.7L141.4,161.3L123.9,143.8L120,86.5L138.4,86.5ZM176.719,122.43C176.812,121.575 176.9,120.644 176.9,119.8L177,117L177,108L176.4,108.1C174.6,108.5 172.7,108.9 170.9,109.5C172.593,109.5 174.286,109.341 176.049,109.165C176.049,109.165 175.975,110.726 175.9,111.4C175.8,112.3 175.7,113.3 175.7,114.2L175.5,119.8L175.5,125.4C175.6,127.3 175.6,129.1 175.8,131C176.1,129.1 176.3,127.3 176.5,125.4C176.5,124.556 176.588,123.625 176.681,122.77L176.719,122.43ZM136.9,89.1L136.5,89.1C136.237,89.1 135.994,89.119 135.753,89.141L135.547,89.159C135.314,89.18 135.08,89.199 134.828,89.2L134.772,89.2C134.52,89.201 134.286,89.22 134.053,89.241L133.847,89.259C133.606,89.281 133.362,89.3 133.1,89.3C132,89.4 130.8,89.5 129.7,89.7C130.9,89.9 132,90.1 133.1,90.2C133.691,90.2 134.184,90.297 134.772,90.3L134.828,90.3C135.266,90.302 135.651,90.357 136.063,90.384C136.527,91.456 137.053,92.528 137.5,93.6C137.7,94.2 138,94.8 138.3,95.4C138.6,96 138.9,96.6 139.2,97.2C139.7,98.3 140.4,99.5 141,100.6C141.6,101.7 142.3,102.8 143,103.9C142.7,102.7 142.3,101.4 141.8,100.2C141.4,99 140.9,97.8 140.4,96.6C140.1,96 139.9,95.4 139.6,94.8C139.3,94.2 139.1,93.6 138.8,93C138.3,91.8 137.7,90.7 137.1,89.5L136.9,89.1Z" />
    <path d="M203.7,135.7L193,135.3L193,131.1L204.3,131.6L206.3,117.7L194.9,117.1L194.9,114.6L206.6,115.7L208.8,100.4L183.8,98L181.8,150.7L201.4,151.1L203.7,135.7ZM201.419,102.241C201.112,102.219 200.806,102.2 200.5,102.2C199.1,102.2 197.6,102.1 196.2,102.2C197.5,102.6 198.9,103 200.3,103.2C201,103.3 201.7,103.5 202.4,103.6L203.787,103.798C203.662,104.665 203.6,105.533 203.6,106.4C203.5,107.6 203.6,108.7 203.8,109.8C204.2,108.8 204.6,107.7 204.8,106.6C205.1,105.5 205.2,104.4 205.3,103.3L205.4,102.6L204.7,102.5C204,102.4 203.3,102.4 202.6,102.3C202.294,102.3 201.988,102.281 201.681,102.259L201.419,102.241Z" />
    <path d="M214.5,87.7C221.5,87.8 229.9,90.6 236.3,95C243.8,100.3 248,107.3 248,114.7C248,128.3 233.2,133.8 227.2,135.5L251,169.2L238.2,178.5L220.7,153.2L217.2,178.9L201.1,176.5L201.2,175.8L213.9,87.7L214.5,87.7ZM231.008,145.917C231.09,146.09 231.781,147.531 233,149.5C233.6,150.6 234.4,151.8 235.2,153.1C235.6,153.8 236,154.4 236.5,155.1L239.3,159.1C239.8,159.7 240.2,160.4 240.7,161C241.6,162.2 242.5,163.3 243.3,164.3C244.9,166.2 246,167.4 246,167.4C246,167.4 245.3,165.9 244,163.8C243.4,162.7 242.6,161.5 241.8,160.2C241.4,159.5 241,158.9 240.5,158.2L237.7,154.2C237.2,153.6 236.8,152.9 236.3,152.3C235.4,151.1 234.5,150 233.7,149C232.1,147.1 231,145.9 231,145.9L231.008,145.917ZM218.4,92L217.9,92L218.7,92.4C219,92.5 219.5,92.6 220.1,92.7C220.7,92.9 221.5,93 222.3,93.3C222.7,93.4 223.2,93.6 223.6,93.7C224,93.8 224.5,94 225,94.2C225.5,94.4 226,94.6 226.5,94.8C227,95 227.6,95.2 228.1,95.5C229.2,96.1 230.3,96.7 231.4,97.4C232.5,98.2 233.6,99 234.7,99.8C235.8,100.6 236.8,101.6 237.8,102.6C238.7,103.6 239.6,104.7 240.4,105.8C241.2,106.9 241.8,108.1 242.4,109.3C243,110.4 243.4,111.6 243.6,112.8C243.8,113.9 243.9,115 243.8,116.1L243.7,116.9C243.7,117.1 243.6,117.4 243.6,117.6C243.5,118 243.4,118.5 243.3,118.9C243,119.6 242.8,120.2 242.4,120.9C242.2,121.3 242,121.7 241.7,122.1L241.728,122.072C242.019,121.775 242.309,121.388 242.6,121C243,120.4 243.4,119.7 243.7,119C243.9,118.6 244.1,118.2 244.2,117.7C244.3,117.4 244.3,117.2 244.4,116.9L244.5,116.1C244.6,115.9 244.6,115.6 244.6,115.3C244.6,115 244.6,114.7 244.6,114.4C244.6,113.7 244.6,113.1 244.5,112.5C244.3,111.1 243.9,109.8 243.4,108.6C242.9,107.2 242.2,106 241.4,104.8C240.5,103.6 239.6,102.5 238.6,101.4C237.6,100.4 236.6,99.4 235.4,98.5C234.3,97.6 233.1,96.8 231.9,96.1C230.8,95.4 229.6,94.8 228.4,94.3C227.8,94 227.2,93.8 226.7,93.6C226.2,93.4 225.6,93.3 225.1,93.1C224.6,92.9 224.1,92.8 223.6,92.7C223.1,92.6 222.6,92.5 222.2,92.4C221.3,92.2 220.6,92.2 219.9,92.1C219.2,92 218.7,92 218.4,92ZM227.4,107.3C229.7,108.5 232.7,110.8 232.1,114.3C231.6,117.9 228.1,120.3 225.5,121.6L227.4,107.3Z" />
</svg>
