<?xml version="1.0" encoding="UTF-8" standalone="no"?>
<!DOCTYPE svg PUBLIC "-//W3C//DTD SVG 1.1//EN" "http://www.w3.org/Graphics/SVG/1.1/DTD/svg11.dtd">
<svg width="100%" height="100%" viewBox="0 0 300 73" version="1.1" xmlns="http://www.w3.org/2000/svg" xmlns:xlink="http://www.w3.org/1999/xlink" xml:space="preserve" style="fill-rule:evenodd;clip-rule:evenodd;stroke-linejoin:round;stroke-miterlimit:1.41421;">
    <g>
        <g>
            <g>
                <path d="M17.882,66.256L16.84,50.009L27.508,72.557L39.921,66.988L22.852,32.525L42.182,7.735L29.809,0L15.165,20.16L13.862,1.315L0,1.938L2.492,64.447L17.882,66.256ZM25.612,42.67C25.612,42.67 26.42,44.005 27.513,46.063C28.064,47.09 28.687,48.297 29.335,49.6C29.655,50.253 29.998,50.922 30.323,51.614C30.651,52.303 30.985,53.004 31.319,53.704C31.642,54.409 31.965,55.115 32.283,55.809C32.606,56.501 32.897,57.194 33.193,57.859C33.777,59.192 34.303,60.445 34.736,61.526C35.613,63.685 36.117,65.162 36.117,65.162C36.117,65.162 35.308,63.828 34.215,61.769C33.664,60.742 33.041,59.535 32.393,58.232C32.074,57.578 31.729,56.91 31.405,56.218C31.077,55.528 30.743,54.828 30.41,54.127C30.087,53.422 29.764,52.716 29.446,52.022C29.125,51.329 28.832,50.636 28.536,49.972C27.953,48.639 27.427,47.386 26.993,46.305C26.117,44.147 25.612,42.67 25.612,42.67ZM11.392,4.445C11.374,5.689 11.397,6.932 11.433,8.173C11.447,8.834 11.489,9.495 11.516,10.156C11.54,10.817 11.594,11.477 11.635,12.137C11.673,12.797 11.734,13.456 11.791,14.116C11.842,14.776 11.921,15.434 11.989,16.093C12.143,17.41 12.313,18.726 12.565,20.037C12.67,18.705 12.692,17.379 12.698,16.053C12.692,15.39 12.697,14.727 12.674,14.066C12.657,13.405 12.644,12.743 12.608,12.082C12.575,11.422 12.556,10.76 12.506,10.1C12.458,9.44 12.426,8.779 12.367,8.12C12.257,6.8 12.134,5.482 11.961,4.166L11.924,3.881L11.679,3.898C10.718,3.966 9.757,4.05 8.796,4.181C9.661,4.299 10.527,4.379 11.392,4.445ZM37.131,8.068C36.805,8.503 36.484,8.942 36.16,9.378C35.748,9.969 35.321,10.547 34.923,11.147C34.516,11.741 34.124,12.346 33.736,12.954C33.358,13.57 32.976,14.182 32.633,14.824C33.159,14.32 33.645,13.787 34.136,13.257C34.617,12.719 35.093,12.178 35.555,11.626C36.025,11.081 36.467,10.513 36.924,9.958C37.363,9.389 37.809,8.825 38.242,8.251L38.568,7.82L38.12,7.534C37.541,7.164 36.97,6.783 36.385,6.423C35.799,6.065 35.217,5.699 34.62,5.357C33.433,4.662 32.229,3.993 30.971,3.405C32.005,4.332 33.092,5.178 34.195,5.996C34.743,6.412 35.308,6.804 35.867,7.203C36.284,7.499 36.708,7.782 37.131,8.068Z"/>
            </g>
            <g>
                <path d="M40.221,61.592L50.824,60.033L49.062,34.471L35.509,35.394L40.221,61.592ZM46.437,37.905L46.488,38.877L46.594,40.265C46.625,40.728 46.678,41.189 46.723,41.651C46.77,42.112 46.813,42.575 46.875,43.035C46.985,43.957 47.115,44.878 47.268,45.796C47.42,46.714 47.597,47.63 47.825,48.542C47.889,47.604 47.903,46.671 47.891,45.74C47.881,44.809 47.847,43.88 47.793,42.953C47.773,42.488 47.735,42.026 47.699,41.563C47.661,41.1 47.633,40.636 47.582,40.175L47.443,38.789L47.271,37.406L47.215,36.954L46.794,37.017C46.403,37.075 46.014,37.149 45.624,37.215C45.233,37.278 44.845,37.36 44.456,37.436C43.679,37.593 42.903,37.763 42.132,37.98C42.932,38.019 43.726,38.009 44.519,37.992C44.915,37.978 45.312,37.971 45.707,37.945C45.95,37.93 46.194,37.919 46.437,37.905Z" />
                <path d="M38.964,18.205C36.856,18.927 35.605,20.786 35.616,23.18C35.628,25.926 37.361,29.441 39.924,30.296C40.419,30.461 40.941,30.545 41.474,30.545C42.845,30.545 44.207,29.999 45.309,29.007C46.976,27.504 47.68,25.299 47.193,23.108C46.698,20.887 45.664,19.321 44.119,18.456C42.638,17.626 40.903,17.541 38.964,18.205ZM40.728,20.036C40.728,20.036 40.759,20.026 40.816,20.006C40.874,19.991 40.954,19.949 41.067,19.932C41.294,19.886 41.626,19.842 42.021,19.884C42.219,19.903 42.436,19.934 42.656,20C42.767,20.034 42.881,20.069 42.998,20.105C43.112,20.15 43.224,20.207 43.341,20.261C43.46,20.311 43.566,20.389 43.681,20.456C43.797,20.523 43.911,20.597 44.011,20.692C44.113,20.784 44.227,20.865 44.32,20.969L44.595,21.287C44.753,21.515 44.917,21.749 45.018,22.003C45.132,22.252 45.213,22.507 45.26,22.758C45.284,22.883 45.324,23.003 45.331,23.125C45.336,23.246 45.342,23.364 45.347,23.479C45.35,23.593 45.36,23.703 45.356,23.81C45.343,23.916 45.33,24.018 45.318,24.116C45.292,24.31 45.275,24.488 45.229,24.64C45.188,24.793 45.142,24.923 45.106,25.03C45.031,25.243 44.98,25.36 44.98,25.36C44.98,25.36 44.948,25.231 44.908,25.013C44.889,24.904 44.864,24.774 44.846,24.626C44.827,24.478 44.772,24.316 44.744,24.14C44.713,23.964 44.668,23.778 44.608,23.589C44.558,23.397 44.495,23.201 44.414,23.008C44.374,22.912 44.346,22.809 44.296,22.715C44.243,22.623 44.193,22.53 44.147,22.434C44.106,22.335 44.04,22.25 43.982,22.161C43.92,22.075 43.874,21.976 43.801,21.898C43.668,21.731 43.532,21.568 43.374,21.425C43.226,21.275 43.059,21.141 42.893,21.02C42.721,20.904 42.555,20.787 42.381,20.694C42.21,20.601 42.041,20.514 41.881,20.441C41.559,20.295 41.272,20.198 41.069,20.132C40.856,20.068 40.728,20.036 40.728,20.036Z" />
            </g>
            <g>
                <path d="M55.138,60.115L53.772,60.115L53.772,58.749C53.772,56.066 51.514,8.156 51.491,7.702L51.431,6.38L52.747,6.275C52.891,6.26 68.377,5.228 77.618,13.826C82.458,18.329 84.912,24.576 84.912,32.395C84.912,40.371 82.45,46.838 77.595,51.616C69.204,59.877 56.553,60.115 55.138,60.115ZM61.13,24.155C61.13,24.155 61.346,25.538 61.538,27.618C61.639,28.658 61.735,29.871 61.816,31.172C61.852,31.823 61.903,32.495 61.929,33.178C61.959,33.861 61.989,34.556 62.019,35.25C62.038,35.945 62.056,36.639 62.074,37.323C62.098,38.007 62.092,38.681 62.102,39.332C62.113,40.635 62.101,41.853 62.073,42.897C62.027,44.985 61.907,46.38 61.907,46.38C61.907,46.38 61.69,44.997 61.498,42.917C61.397,41.877 61.301,40.664 61.22,39.363C61.184,38.712 61.131,38.04 61.107,37.357C61.078,36.674 61.048,35.979 61.018,35.285C61,34.59 60.981,33.895 60.963,33.212C60.941,32.528 60.946,31.854 60.936,31.203C60.926,29.899 60.937,28.682 60.965,27.638C61.01,25.55 61.13,24.155 61.13,24.155ZM68.992,41.433C67.702,42.668 66.194,43.256 65.004,43.535L64.018,21.182C65.514,21.483 67.423,22.158 68.99,23.659C71.005,25.588 72.027,28.518 72.027,32.367C72.027,36.452 71.006,39.502 68.992,41.433ZM55.364,8.505C55.364,8.505 55.484,8.488 55.709,8.455C55.932,8.419 56.267,8.384 56.693,8.361C57.544,8.316 58.769,8.342 60.222,8.531C61.676,8.714 63.355,9.066 65.111,9.597C65.986,9.87 66.887,10.17 67.78,10.535C68.671,10.904 69.57,11.296 70.442,11.747C71.314,12.196 72.163,12.692 72.975,13.217C73.795,13.731 74.548,14.319 75.267,14.895C75.978,15.482 76.631,16.092 77.209,16.709C77.497,17.018 77.781,17.315 78.027,17.628C78.283,17.932 78.52,18.234 78.732,18.536C78.954,18.83 79.156,19.118 79.33,19.406C79.51,19.689 79.68,19.956 79.817,20.222C80.118,20.737 80.328,21.213 80.502,21.602C80.685,21.987 80.773,22.313 80.858,22.523C80.935,22.736 80.977,22.85 80.977,22.85C80.977,22.85 80.918,22.744 80.809,22.545C80.694,22.349 80.55,22.05 80.325,21.693C80.105,21.333 79.836,20.9 79.493,20.428C79.332,20.185 79.139,19.942 78.935,19.687C78.835,19.558 78.732,19.427 78.627,19.292C78.515,19.163 78.4,19.031 78.282,18.896C78.053,18.622 77.8,18.35 77.528,18.077C77.267,17.795 76.979,17.521 76.682,17.241C76.089,16.68 75.421,16.135 74.72,15.588C73.294,14.522 71.689,13.492 69.985,12.64C68.298,11.756 66.527,11.035 64.84,10.437C63.991,10.154 63.169,9.877 62.376,9.662C61.584,9.44 60.829,9.253 60.127,9.099C59.424,8.953 58.776,8.826 58.198,8.742C57.617,8.653 57.11,8.595 56.69,8.56C56.271,8.533 55.94,8.505 55.712,8.509C55.485,8.507 55.364,8.505 55.364,8.505Z" />
            </g>
            <g>
                <path d="M111.789,52.037C110.68,47.442 108.315,43.999 106.028,40.666C103.872,37.526 101.642,34.278 100.803,30.183C100.411,28.272 100.967,26.594 102.367,25.458C103.518,24.525 104.995,24.203 106.046,24.659C107.451,25.268 107.793,27.226 107.871,28.339L108.012,30.353L120.123,29.76L120.031,27.707C119.78,22.174 117.831,17.643 114.393,14.604C111.348,11.91 107.307,10.542 103.016,10.746C95.002,11.108 86.732,16.982 87.19,27.155C87.513,34.276 91.43,40.793 94.885,46.542C95.997,48.392 97.048,50.139 97.891,51.769C99.717,55.304 99.831,57.631 99.374,58.55C99.295,58.708 99.112,59.079 98.285,59.221C97.456,59.365 96.865,59.209 96.37,58.716C95.216,57.568 94.763,54.871 95.245,52.004L95.572,50.048L83.552,47.541L83.039,49.413C81.135,56.392 82.205,62.745 86.051,67.302C89.032,70.834 93.543,72.943 98.118,72.943C98.348,72.943 98.577,72.938 98.805,72.927C99.064,72.916 99.323,72.897 99.583,72.871C104.33,72.407 107.884,70.557 110.146,67.373C112.795,63.657 113.348,58.497 111.789,52.037ZM91.815,52.273C91.743,52.894 91.7,53.517 91.707,54.143C91.711,54.882 91.764,55.626 91.902,56.361C91.974,56.728 92.04,57.097 92.161,57.456C92.213,57.636 92.275,57.814 92.345,57.991C92.406,58.169 92.482,58.343 92.573,58.512C92.652,58.684 92.746,58.85 92.85,59.011C92.945,59.175 93.068,59.324 93.19,59.47C93.3,59.624 93.458,59.743 93.594,59.87C93.731,59.997 93.912,60.078 94.061,60.176C93.951,60.023 93.835,59.889 93.745,59.735C93.659,59.577 93.563,59.434 93.499,59.269C93.426,59.111 93.358,58.954 93.309,58.785C93.247,58.624 93.195,58.46 93.157,58.289C93.07,57.955 92.993,57.616 92.946,57.271C92.895,56.928 92.844,56.583 92.815,56.234C92.785,55.885 92.76,55.536 92.742,55.185C92.721,54.835 92.715,54.483 92.703,54.13C92.697,53.424 92.689,52.715 92.714,52.007L92.727,51.62L92.389,51.552C92.087,51.491 91.782,51.446 91.479,51.393C91.177,51.337 90.869,51.3 90.564,51.256C89.952,51.175 89.336,51.105 88.709,51.082C89.274,51.354 89.851,51.58 90.431,51.797C90.722,51.901 91.011,52.012 91.304,52.104C91.475,52.159 91.645,52.217 91.815,52.273ZM98.495,32.362C98.495,32.362 98.721,32.77 99.116,33.484C99.213,33.663 99.321,33.861 99.438,34.077C99.563,34.287 99.699,34.514 99.844,34.756C100.131,35.241 100.451,35.787 100.829,36.372C101.195,36.962 101.605,37.592 102.045,38.256C102.487,38.919 102.953,39.618 103.435,40.34C103.916,41.067 104.431,41.803 104.926,42.577C105.429,43.343 105.927,44.134 106.42,44.93C106.669,45.325 106.889,45.742 107.124,46.146C107.357,46.551 107.587,46.955 107.793,47.372C108.005,47.784 108.22,48.19 108.41,48.603C108.591,49.021 108.77,49.434 108.946,49.84C109.133,50.241 109.26,50.661 109.402,51.063C109.534,51.469 109.691,51.856 109.776,52.256C109.875,52.65 109.971,53.034 110.063,53.405C110.163,53.774 110.182,54.148 110.242,54.497C110.289,54.848 110.346,55.183 110.377,55.503C110.386,55.826 110.394,56.132 110.401,56.419C110.407,56.705 110.414,56.973 110.419,57.22C110.412,57.467 110.378,57.694 110.362,57.899C110.275,58.712 110.226,59.176 110.226,59.176C110.226,59.176 110.203,58.711 110.163,57.897C110.151,57.695 110.154,57.471 110.129,57.229C110.095,56.988 110.058,56.727 110.019,56.449C109.981,56.172 109.94,55.877 109.897,55.566C109.827,55.26 109.753,54.939 109.676,54.603C109.547,53.928 109.299,53.225 109.061,52.478C108.956,52.1 108.779,51.734 108.627,51.351C108.46,50.973 108.335,50.571 108.135,50.189C107.95,49.802 107.761,49.409 107.571,49.01C107.362,48.619 107.151,48.224 106.939,47.826C106.734,47.424 106.502,47.03 106.269,46.635C106.034,46.241 105.813,45.838 105.563,45.448C104.618,43.863 103.599,42.308 102.695,40.815C102.237,40.07 101.803,39.346 101.41,38.645C101.212,38.296 101.02,37.956 100.834,37.627C100.66,37.291 100.493,36.966 100.331,36.654C99.998,36.039 99.736,35.446 99.502,34.925C99.385,34.665 99.276,34.422 99.176,34.196C99.089,33.966 99.008,33.755 98.936,33.565C98.655,32.799 98.495,32.362 98.495,32.362ZM103.263,13.716C103.263,13.716 103.344,13.695 103.497,13.656C103.652,13.627 103.868,13.537 104.164,13.511C104.457,13.486 104.829,13.415 105.242,13.439C105.45,13.444 105.673,13.438 105.907,13.452C106.14,13.48 106.384,13.509 106.639,13.539C106.898,13.56 107.156,13.629 107.429,13.685C107.699,13.748 107.985,13.799 108.262,13.901C108.543,13.994 108.832,14.09 109.128,14.188C109.416,14.305 109.702,14.445 109.998,14.578C110.299,14.702 110.579,14.877 110.868,15.044C111.154,15.216 111.46,15.368 111.723,15.587C111.996,15.792 112.271,15.999 112.547,16.207C112.806,16.435 113.056,16.677 113.311,16.912C113.435,17.034 113.566,17.148 113.681,17.278L114.014,17.677C114.231,17.945 114.463,18.201 114.664,18.476C114.853,18.76 115.036,19.044 115.212,19.328C115.3,19.469 115.388,19.61 115.475,19.749C115.546,19.897 115.617,20.044 115.688,20.19C115.827,20.482 115.97,20.766 116.097,21.049C116.24,21.325 116.302,21.627 116.405,21.903C116.59,22.462 116.776,22.986 116.847,23.495C116.945,23.997 117.032,24.455 117.092,24.863C117.116,25.275 117.137,25.634 117.155,25.93C117.183,26.52 117.189,26.854 117.189,26.854C117.189,26.854 117.099,26.526 116.958,25.958C116.891,25.675 116.81,25.331 116.716,24.937C116.59,24.554 116.448,24.122 116.293,23.651C116.165,23.174 115.923,22.694 115.708,22.177C115.512,21.649 115.201,21.146 114.912,20.612C114.839,20.479 114.766,20.345 114.692,20.21C114.603,20.084 114.514,19.957 114.424,19.83C114.242,19.577 114.063,19.318 113.886,19.055C113.695,18.802 113.474,18.57 113.269,18.324L112.955,17.959C112.847,17.84 112.722,17.738 112.607,17.626C112.374,17.405 112.147,17.176 111.911,16.96C111.658,16.763 111.406,16.567 111.156,16.373C110.914,16.167 110.637,16.016 110.38,15.84C110.119,15.671 109.867,15.492 109.592,15.363C109.324,15.222 109.059,15.083 108.801,14.947C108.532,14.831 108.269,14.718 108.013,14.608C107.76,14.485 107.495,14.423 107.248,14.331C106.999,14.247 106.76,14.151 106.52,14.103C106.282,14.043 106.054,13.986 105.837,13.932C105.619,13.884 105.408,13.858 105.211,13.822C104.813,13.741 104.473,13.741 104.182,13.711C103.892,13.686 103.658,13.716 103.501,13.712C103.347,13.714 103.263,13.716 103.263,13.716Z" />
            </g>
        </g>
        <g>
            <g>
                <path d="M167.976,47.318C163.869,53.481 157.563,56.356 151.909,54.645C145.49,52.702 141.503,45.463 141.503,35.753C141.503,26.961 146.999,23.564 149.66,23.297C152.859,22.977 154.426,23.787 155.579,24.383C155.797,24.497 156,24.6 156.193,24.69L157.438,25.261L158.032,24.024C158.104,23.87 161.025,17.887 162.559,14.743L163.104,13.626L162.054,12.961C155.305,8.694 145.612,8.456 138.484,12.382C132.977,15.417 126.413,22.118 126.413,36.807C126.413,55.904 138.026,66.976 149.535,69.476C151.258,69.852 153.035,70.042 154.817,70.042C164.943,70.042 173.5,64.015 178.294,53.506L178.804,52.388L168.718,46.207L167.976,47.318ZM168.525,51.112C168.902,50.682 169.563,49.73 169.563,49.73C169.563,49.73 169.852,49.893 169.939,49.944C170.195,50.094 170.459,50.229 170.722,50.369C171.249,50.644 171.785,50.909 172.348,51.135C171.932,50.696 171.488,50.295 171.036,49.906C170.809,49.713 170.584,49.516 170.35,49.333C170.116,49.149 169.889,48.956 169.65,48.78L169.312,48.531L169.04,48.917C168.855,49.179 168.655,49.439 168.434,49.691C168.223,49.949 167.999,50.2 167.776,50.453C167.328,50.957 166.86,51.448 166.398,51.947L165.69,52.683L164.973,53.414L164.239,54.136C163.993,54.37 163.738,54.611 163.478,54.851C163.811,54.737 164.135,54.6 164.452,54.433C164.767,54.27 165.069,54.088 165.365,53.896C165.954,53.509 166.51,53.075 167.035,52.608C167.567,52.147 168.06,51.644 168.525,51.112ZM159.125,14.761C158.933,15.272 158.744,15.784 158.572,16.303C158.356,16.949 158.149,17.598 157.989,18.263C158.384,17.696 158.731,17.113 159.07,16.527C159.41,15.941 159.724,15.347 160.037,14.752L160.206,14.43L159.885,14.21C159.528,13.965 159.162,13.737 158.787,13.53C158.408,13.329 158.021,13.152 157.632,12.983C157.244,12.811 156.844,12.673 156.444,12.536C156.043,12.404 155.641,12.276 155.231,12.177C154.821,12.079 154.414,11.974 153.998,11.905C153.582,11.836 153.168,11.761 152.748,11.725C152.33,11.68 151.91,11.652 151.488,11.65C151.279,11.64 151.064,11.656 150.855,11.662C150.645,11.667 150.437,11.701 150.228,11.72C150.639,11.817 151.043,11.914 151.439,12.016C151.838,12.122 152.235,12.228 152.629,12.341C153.022,12.46 153.416,12.565 153.805,12.691L154.97,13.063L156.121,13.462L157.253,13.898C157.628,14.047 157.996,14.21 158.358,14.38C158.62,14.498 158.875,14.626 159.125,14.761Z" />
            </g>
            <g>
                <path d="M170.312,15.686C165.18,16.664 162.56,20.476 161.818,28.047C161.328,33.037 162.751,37.975 165.623,41.257C167.47,43.364 169.758,44.569 172.074,44.65L172.368,44.653C175.621,44.653 178.367,42.835 180.101,39.535C183.158,33.719 182.58,24.217 178.865,19.202C176.682,16.257 173.722,15.04 170.312,15.686ZM174.302,29.578C174.082,32.342 172.197,33.296 171.547,33.324C170.999,33.28 169.633,31.885 169.394,29.295C169.226,27.48 169.781,25.545 171.165,25.357C171.365,25.331 171.552,25.317 171.72,25.317C172.202,25.317 172.6,25.419 172.936,25.63C173.923,26.248 174.446,27.76 174.302,29.578ZM170.463,17.652C170.463,17.652 170.666,17.576 171.023,17.458C171.198,17.391 171.43,17.356 171.695,17.304C171.963,17.239 172.264,17.239 172.599,17.217C172.766,17.212 172.94,17.231 173.122,17.239C173.305,17.244 173.491,17.27 173.681,17.315C174.067,17.375 174.46,17.504 174.861,17.659C175.244,17.848 175.65,18.037 176.006,18.316C176.197,18.438 176.362,18.592 176.531,18.744C176.701,18.894 176.874,19.044 177.019,19.218C177.165,19.391 177.32,19.558 177.453,19.737C177.58,19.921 177.707,20.104 177.833,20.285C177.968,20.461 178.055,20.662 178.158,20.85C178.253,21.042 178.367,21.223 178.441,21.416C178.598,21.798 178.766,22.162 178.861,22.527C178.966,22.888 179.082,23.223 179.133,23.547C179.199,23.866 179.249,24.16 179.293,24.42C179.326,24.682 179.34,24.912 179.356,25.1C179.384,25.477 179.39,25.692 179.39,25.692C179.39,25.692 179.301,25.493 179.162,25.145C179.096,24.971 179.015,24.76 178.922,24.518C178.817,24.281 178.701,24.015 178.585,23.723C178.476,23.428 178.305,23.132 178.166,22.804C178.03,22.474 177.819,22.162 177.654,21.816C177.465,21.483 177.247,21.154 177.028,20.824C176.911,20.665 176.793,20.504 176.675,20.343C176.552,20.186 176.41,20.047 176.28,19.896C176.158,19.737 176.011,19.606 175.867,19.472C175.724,19.337 175.585,19.197 175.424,19.09C175.264,18.982 175.124,18.846 174.961,18.75C174.799,18.651 174.639,18.553 174.482,18.456C174.146,18.306 173.828,18.136 173.497,18.04C173.337,17.975 173.174,17.935 173.015,17.901C172.856,17.864 172.703,17.815 172.553,17.791C172.251,17.761 171.967,17.688 171.719,17.687C171.469,17.68 171.246,17.641 171.056,17.656C170.679,17.658 170.463,17.652 170.463,17.652Z" />
            </g>
            <g>
                <path d="M207.223,17.014C204.167,9.52 194.639,4.837 184.578,5.878L183.043,6.034L185.661,65.687L199.904,63.534L198.211,48.921L213.259,65.593L222.358,56.492L202.128,35.319C207.77,29.85 209.676,23.039 207.223,17.014ZM204.007,40.507C204.007,40.507 205.006,41.328 206.408,42.65C207.113,43.307 207.919,44.089 208.767,44.942C209.187,45.372 209.633,45.805 210.066,46.265C210.502,46.722 210.944,47.185 211.387,47.649C211.821,48.121 212.255,48.592 212.683,49.057C213.114,49.518 213.517,49.991 213.919,50.438C214.715,51.339 215.443,52.194 216.053,52.94C217.281,54.425 218.035,55.476 218.035,55.476C218.035,55.476 217.035,54.656 215.633,53.334C214.928,52.677 214.122,51.895 213.275,51.042C212.855,50.612 212.409,50.179 211.977,49.719C211.541,49.262 211.099,48.798 210.657,48.335C210.223,47.863 209.789,47.391 209.362,46.927C208.932,46.465 208.528,45.993 208.127,45.545C207.331,44.644 206.603,43.788 205.993,43.043C204.761,41.558 204.007,40.507 204.007,40.507ZM194.899,17.253C196.837,18.336 197.819,19.799 197.819,21.612C197.819,23.8 196.729,25.525 195.586,26.734L194.899,17.253ZM186.41,8.394C186.41,8.394 186.516,8.38 186.714,8.354C186.913,8.328 187.202,8.282 187.579,8.266C187.956,8.236 188.412,8.228 188.937,8.243C189.461,8.26 190.055,8.297 190.696,8.391C191.339,8.472 192.03,8.605 192.752,8.786C193.472,8.97 194.229,9.188 194.986,9.484C195.748,9.768 196.521,10.105 197.278,10.503C198.039,10.895 198.779,11.355 199.502,11.842C200.214,12.345 200.889,12.901 201.524,13.481C202.151,14.071 202.716,14.706 203.22,15.354C203.714,16.01 204.152,16.676 204.486,17.351C204.843,18.014 205.089,18.686 205.288,19.308C205.369,19.626 205.465,19.924 205.521,20.216C205.57,20.51 205.629,20.785 205.66,21.047C205.685,21.309 205.709,21.555 205.731,21.782C205.734,22.009 205.737,22.218 205.739,22.407C205.756,22.783 205.7,23.078 205.692,23.277C205.675,23.476 205.666,23.583 205.666,23.583C205.666,23.583 205.656,23.477 205.638,23.277C205.613,23.078 205.607,22.786 205.54,22.421C205.511,22.239 205.478,22.037 205.443,21.818C205.394,21.602 205.341,21.369 205.284,21.119C205.154,20.625 204.974,20.08 204.746,19.5C204.497,18.928 204.207,18.321 203.833,17.716C203.476,17.102 203.014,16.508 202.531,15.905C202.036,15.309 201.461,14.749 200.868,14.192C200.258,13.651 199.611,13.133 198.927,12.662C198.245,12.19 197.545,11.74 196.821,11.355C196.098,10.971 195.38,10.598 194.656,10.301C193.937,9.994 193.227,9.727 192.544,9.502C191.858,9.287 191.204,9.093 190.59,8.953C189.977,8.809 189.408,8.701 188.901,8.622C188.393,8.55 187.946,8.488 187.578,8.463C187.21,8.429 186.915,8.413 186.715,8.407C186.517,8.399 186.41,8.394 186.41,8.394Z" />
            </g>
            <g>
                <path d="M221.912,2.904L237.703,34.115L237.222,18.004L251.154,14.547L249.149,63.548L237.09,63.461L236.957,63.172L223.054,32.919L223.93,54.873L211.794,42.724L209.121,2.904L221.912,2.904ZM247.975,18.648C247.975,18.648 247.885,19.677 247.852,20.192C247.813,20.84 247.763,21.488 247.732,22.136L247.644,24.081L247.593,26.027C247.578,26.675 247.582,27.325 247.575,27.974C247.572,28.624 247.588,29.273 247.594,29.923C247.63,31.223 247.676,32.523 247.799,33.826C248.014,32.535 248.152,31.241 248.281,29.947C248.333,29.3 248.395,28.653 248.438,28.005C248.477,27.357 248.527,26.709 248.558,26.061L248.646,24.116L248.697,22.17C248.713,21.522 248.709,20.872 248.716,20.223C248.72,19.573 248.703,18.924 248.698,18.274L248.694,17.828L248.295,17.922C247.016,18.225 245.738,18.538 244.473,18.927C245.648,18.879 247.975,18.648 247.975,18.648ZM220.34,5.603C220.653,6.356 220.982,7.101 221.32,7.842C221.5,8.255 221.705,8.657 221.896,9.065C222.089,9.472 222.284,9.879 222.492,10.279C222.896,11.085 223.319,11.882 223.763,12.67C224.204,13.459 224.671,14.236 225.181,14.993C224.933,14.114 224.642,13.256 224.326,12.409C224.012,11.561 223.678,10.722 223.324,9.893C223.153,9.476 222.969,9.065 222.783,8.654C222.595,8.244 222.421,7.828 222.222,7.424C221.838,6.608 221.444,5.798 221.029,4.997L220.895,4.739L220.635,4.745C220.238,4.755 219.84,4.788 219.443,4.809C219.046,4.829 218.648,4.864 218.251,4.897C217.456,4.965 216.662,5.048 215.867,5.179C216.661,5.309 217.456,5.393 218.25,5.462C218.647,5.495 219.045,5.53 219.442,5.55C219.741,5.566 220.04,5.588 220.34,5.603Z" />
            </g>
            <g>
                <path d="M267.189,37.094L259.805,36.774L259.805,33.86L267.598,34.262L269,24.568L261.077,24.146L261.077,22.414L269.195,23.219L270.737,12.555L253.383,10.906L251.997,47.478L265.641,47.794L267.189,37.094ZM267.315,14.978C267.24,15.585 267.197,16.196 267.178,16.809C267.17,17.582 267.182,18.357 267.335,19.149C267.666,18.413 267.854,17.661 268.024,16.907C268.178,16.151 268.293,15.39 268.353,14.623L268.391,14.135L267.929,14.081C267.438,14.024 266.944,13.986 266.451,13.941C265.959,13.891 265.463,13.872 264.968,13.838C263.977,13.791 262.983,13.76 261.979,13.809C262.938,14.111 263.907,14.332 264.877,14.537C265.364,14.63 265.849,14.736 266.338,14.813C266.664,14.868 266.989,14.925 267.315,14.978Z" />
            </g>
            <g>
                <path d="M283.548,36.962C287.718,35.796 298.006,31.957 298.006,22.527C298.006,17.37 295.114,12.522 289.862,8.877C285.437,5.806 279.626,3.857 274.697,3.791L274.257,3.785L265.413,64.942L265.341,65.437L276.503,67.072L278.968,49.219L291.129,66.804L300,60.339L283.548,36.962ZM286.153,44.152C286.153,44.152 286.936,44.996 288.002,46.337C288.539,47.005 289.148,47.796 289.782,48.656C290.095,49.089 290.431,49.528 290.75,49.989C291.072,50.448 291.4,50.914 291.727,51.38C292.045,51.853 292.363,52.325 292.676,52.791C292.993,53.253 293.281,53.725 293.573,54.172C294.149,55.072 294.669,55.924 295.099,56.665C295.968,58.141 296.474,59.175 296.474,59.175C296.474,59.175 295.69,58.332 294.624,56.991C294.087,56.323 293.478,55.532 292.844,54.672C292.531,54.239 292.194,53.801 291.877,53.339C291.555,52.88 291.228,52.414 290.9,51.948C290.582,51.475 290.265,51.002 289.952,50.537C289.636,50.074 289.347,49.603 289.055,49.155C288.48,48.255 287.959,47.403 287.529,46.662C286.66,45.186 286.153,44.152 286.153,44.152ZM277.055,6.731C277.055,6.731 277.18,6.737 277.413,6.747C277.646,6.765 277.99,6.756 278.425,6.809C278.86,6.858 279.395,6.908 279.994,7.03C280.297,7.079 280.616,7.144 280.95,7.228C281.286,7.305 281.638,7.392 281.998,7.506C282.36,7.614 282.74,7.724 283.122,7.868C283.509,8 283.902,8.154 284.3,8.329C285.104,8.66 285.924,9.076 286.749,9.547C287.56,10.04 288.4,10.558 289.179,11.187C289.97,11.799 290.731,12.479 291.437,13.215C292.145,13.949 292.782,14.752 293.349,15.584C293.928,16.409 294.381,17.303 294.75,18.193C295.129,19.08 295.365,19.995 295.483,20.874C295.557,21.312 295.567,21.746 295.581,22.162C295.582,22.37 295.559,22.576 295.55,22.777C295.541,22.978 295.525,23.174 295.487,23.365C295.456,23.555 295.425,23.742 295.395,23.924C295.354,24.104 295.302,24.277 295.255,24.446C295.173,24.787 295.034,25.091 294.919,25.379C294.671,25.948 294.398,26.416 294.136,26.771C293.899,27.143 293.651,27.388 293.499,27.566C293.344,27.741 293.262,27.834 293.262,27.834C293.262,27.834 293.33,27.729 293.456,27.532C293.582,27.335 293.777,27.056 293.966,26.666C294.177,26.291 294.377,25.806 294.56,25.244C294.64,24.958 294.742,24.661 294.784,24.332C294.81,24.169 294.848,24.004 294.872,23.833C294.886,23.661 294.9,23.485 294.915,23.305C294.956,22.587 294.916,21.804 294.746,20.998C294.589,20.191 294.316,19.36 293.94,18.541C293.572,17.719 293.099,16.91 292.552,16.132C292.008,15.353 291.395,14.599 290.714,13.907C290.051,13.199 289.332,12.541 288.581,11.946C287.838,11.34 287.063,10.798 286.295,10.301C285.512,9.828 284.75,9.372 283.991,9.008C283.617,8.814 283.243,8.648 282.879,8.49C282.52,8.32 282.162,8.184 281.818,8.05C281.477,7.908 281.14,7.802 280.822,7.692C280.505,7.576 280.2,7.48 279.91,7.402C279.333,7.226 278.824,7.108 278.402,7.006C277.98,6.904 277.639,6.851 277.411,6.801C277.177,6.755 277.055,6.731 277.055,6.731ZM283.666,17.36C285.277,18.191 287.325,19.758 286.948,22.248C286.567,24.774 284.174,26.434 282.348,27.349L283.666,17.36Z" />
            </g>
        </g>
    </g>
</svg>
