<?xml version="1.0" encoding="utf-8"?>
<!-- Generated by IcoMoon.io -->
<!DOCTYPE svg PUBLIC "-//W3C//DTD SVG 1.1//EN" "http://www.w3.org/Graphics/SVG/1.1/DTD/svg11.dtd">
<svg version="1.1" xmlns="http://www.w3.org/2000/svg" xmlns:xlink="http://www.w3.org/1999/xlink" width="32" height="32" viewBox="0 0 32 32">
<path d="M11.426 11.352h6.329v3.244h0.090c0.88-1.579 3.036-3.244 6.248-3.244 6.68 0 7.916 4.158 7.916 9.567v11.015h-6.597v-9.765c0-2.329-0.048-5.325-3.431-5.325-3.436 0-3.96 2.537-3.96 5.156v9.934h-6.594v-20.582zM-0.008 11.352h6.861v20.582h-6.861v-20.582zM6.852 5.635c0 1.895-1.536 3.43-3.43 3.43s-3.43-1.536-3.43-3.43c0-1.895 1.536-3.43 3.43-3.43s3.43 1.536 3.43 3.43z"></path>
</svg>
