<?xml version="1.0" encoding="utf-8"?>
<!-- Generated by IcoMoon.io -->
<!DOCTYPE svg PUBLIC "-//W3C//DTD SVG 1.1//EN" "http://www.w3.org/Graphics/SVG/1.1/DTD/svg11.dtd">
<svg version="1.1" xmlns="http://www.w3.org/2000/svg" xmlns:xlink="http://www.w3.org/1999/xlink" width="32" height="32" viewBox="0 0 32 32">
<path d="M18.355 10.844l-2.321-1.735 0.746-1.472 0.697-0v1.458l1.434 1.443-0.717-1.443v-1.458l2.151-0.001v1.459l-0.717 1.443 1.434-1.443v-1.46l0.749-0 0.743 1.46-2.365 1.749h-1.834zM18.193 11.259h-0.674l-2.22-2.134 0.794-2.196h6.342l0.778 2.165-2.107 2.165h-0.761v0.837c2.453 0.536 4.302 2.867 4.302 5.657 0 3.186-2.41 5.773-5.377 5.773s-5.377-2.587-5.377-5.773c0-0.742 0.13-1.452 0.374-2.078l0.748 0.233 0.515 0.245c-0.189 0.482-0.293 1.028-0.293 1.601 0 2.389 1.807 4.33 4.033 4.33s4.033-1.94 4.033-4.33c0-2.389-1.807-4.33-4.033-4.33-0.749 0-1.449 0.219-2.048 0.619l-0.589-0.537-0.556-0.373c0.61-0.505 1.331-0.864 2.117-1.036v-0.838zM16 32c8.837 0 16-7.163 16-16s-7.163-16-16-16c-8.837 0-16 7.163-16 16s7.163 16 16 16zM15.176 22.175c-0.797 0.408-1.729 0.63-2.719 0.63-3.165 0-5.736-2.264-5.736-5.051s2.57-5.051 5.736-5.051c3.165 0 5.736 2.264 5.736 5.051 0 1.13-0.422 2.173-1.134 2.987l-0.45-0.465-0.401-0.623c0.786-0.489 1.268-1.162 1.268-1.899 0-1.593-2.249-2.886-5.019-2.886s-5.019 1.293-5.019 2.886c0 1.593 2.249 2.886 5.019 2.886 0.548 0 1.075-0.050 1.552-0.155l0.546 0.959 0.621 0.731z"></path>
</svg>
