<?xml version="1.0" encoding="utf-8"?>
<!-- Generated by IcoMoon.io -->
<!DOCTYPE svg PUBLIC "-//W3C//DTD SVG 1.1//EN" "http://www.w3.org/Graphics/SVG/1.1/DTD/svg11.dtd">
<svg version="1.1" xmlns="http://www.w3.org/2000/svg" xmlns:xlink="http://www.w3.org/1999/xlink" width="32" height="32" viewBox="0 0 32 32">
<path d="M14.906 27.044c-1.221 0.626-2.648 0.965-4.165 0.965-4.85 0-8.788-3.468-8.788-7.739s3.938-7.739 8.788-7.739c4.85 0 8.788 3.468 8.788 7.739 0 1.731-0.647 3.33-1.737 4.577l-0.69-0.713-0.614-0.954c1.204-0.748 1.942-1.78 1.942-2.91 0-2.441-3.446-4.422-7.689-4.422s-7.689 1.981-7.689 4.422c0 2.441 3.446 4.422 7.689 4.422 0.839 0 1.648-0.077 2.377-0.238l0.837 1.469 0.951 1.12zM19.776 9.685h2.81l3.623-2.68-1.138-2.236-1.148 0v2.236l-2.197 2.211 1.098-2.211v-2.236l-3.295 0.001v2.234l1.098 2.211-2.197-2.211v-2.234l-1.068 0-1.143 2.255 3.557 2.658zM19.529 10.321h-1.033l-3.402-3.269 1.216-3.364h9.716l1.192 3.317-3.228 3.317h-1.165v1.283c3.758 0.821 6.591 4.392 6.591 8.667 0 4.881-3.692 8.844-8.238 8.844s-8.238-3.963-8.238-8.844c0-1.136 0.2-2.224 0.573-3.184l1.146 0.357 0.789 0.375c-0.289 0.738-0.448 1.575-0.448 2.452 0 3.66 2.768 6.633 6.179 6.633s6.179-2.973 6.179-6.633c0-3.66-2.768-6.633-6.179-6.633-1.147 0-2.22 0.336-3.137 0.949l-0.902-0.822-0.852-0.572c0.934-0.773 2.039-1.323 3.244-1.588v-1.283z"></path>
</svg>
