<?xml version="1.0" encoding="utf-8"?>
<!-- Generated by IcoMoon.io -->
<!DOCTYPE svg PUBLIC "-//W3C//DTD SVG 1.1//EN" "http://www.w3.org/Graphics/SVG/1.1/DTD/svg11.dtd">
<svg version="1.1" xmlns="http://www.w3.org/2000/svg" xmlns:xlink="http://www.w3.org/1999/xlink" width="32" height="32" viewBox="0 0 32 32">
<path d="M16 32c8.837 0 16-7.163 16-16s-7.163-16-16-16c-8.837 0-16 7.163-16 16s7.163 16 16 16zM21.606 16.811l3.282 3.1c1.305 1.331-0.393 2.333-1.422 1.422-0.644-0.57-2.15-2.093-3.191-3.163l-0.311 0.373 4.213 4.213c1.305 1.331-0.393 2.333-1.422 1.422-0.758-0.671-3.099-3.053-4.275-4.26l-0.408 0.288 3.261 3.261c1.305 1.331-0.393 2.333-1.422 1.422-0.74-0.655-2.62-2.573-3.615-3.598l-0.476 0.218 2.669 2.669c1.305 1.331-0.393 2.333-1.422 1.422s-4.978-4.978-4.978-4.978l0.030-0.090c-1.254-1.493-2.502-3.723-2.874-4.887-0.789-2.47-3.556-4.978-3.556-4.978l4.978-4.267 1.449 1.433 7.085 2.834c1.918 0.743 4.663 1.825 4.267 2.844-0.12 0.31-0.338 0.495-0.655 0.551-0.732-0.043-1.467-0.081-2.901-0.551l-0.124-0.046-1.223-0.489-1.687-0.681c-0.991-1.013-2.090-1.894-2.655-1.63-0.374 0.175 0.014 0.764 0.721 1.419l-0.010 0.004-0.073 0.041c-1.072-0.712-2.091-1.211-2.441-0.955-0.346 0.253 0.193 0.801 1.062 1.345-1.286-0.498-2.495-0.809-2.796-0.466-0.4 0.457 1.065 1.104 2.657 1.561v0.093c-1.101-0.193-2.067-0.213-2.269 0.128-0.35 0.589 1.682 0.984 3.529 1.108 0.375 0.1 0.759 0.203 1.042 0.7 0.565 0.994-1.988 1.099-1.422 2.133 0.658 1.202 5.248-1.763 6.4-1.422l0.984 0.455z"></path>
</svg>
