<?xml version="1.0" encoding="utf-8"?>
<!-- Generated by IcoMoon.io -->
<!DOCTYPE svg PUBLIC "-//W3C//DTD SVG 1.1//EN" "http://www.w3.org/Graphics/SVG/1.1/DTD/svg11.dtd">
<svg version="1.1" xmlns="http://www.w3.org/2000/svg" xmlns:xlink="http://www.w3.org/1999/xlink" width="32" height="32" viewBox="0 0 32 32">
<path d="M23.488 17.007l4.298 4.060c1.709 1.743-0.514 3.055-1.862 1.862-0.843-0.746-2.815-2.741-4.178-4.142l-0.407 0.488 5.516 5.516c1.709 1.743-0.514 3.055-1.862 1.862-0.993-0.878-4.058-3.997-5.598-5.578l-0.534 0.377 4.27 4.27c1.709 1.743-0.514 3.055-1.862 1.862-0.969-0.858-3.431-3.369-4.734-4.712l-0.623 0.286 3.495 3.495c1.709 1.743-0.514 3.055-1.862 1.862s-6.518-6.518-6.518-6.518l0.039-0.118c-1.643-1.955-3.277-4.875-3.764-6.4-1.034-3.234-4.656-6.518-4.656-6.518l6.518-5.587 1.897 1.876 9.277 3.711c2.511 0.973 6.105 2.39 5.587 3.725-0.157 0.406-0.442 0.648-0.858 0.722-0.959-0.057-1.921-0.106-3.798-0.722l-0.163-0.060-1.602-0.64-2.209-0.891c-1.297-1.326-2.737-2.481-3.476-2.134-0.49 0.229 0.019 1.001 0.944 1.858l-0.013 0.005-0.096 0.053c-1.403-0.932-2.738-1.586-3.196-1.251-0.453 0.332 0.253 1.049 1.391 1.762-1.684-0.652-3.267-1.060-3.661-0.61-0.523 0.599 1.394 1.445 3.48 2.044v0.122c-1.441-0.253-2.707-0.279-2.971 0.168-0.458 0.772 2.202 1.289 4.62 1.451 0.492 0.131 0.994 0.266 1.364 0.917 0.74 1.302-2.603 1.44-1.862 2.793 0.861 1.574 6.872-2.308 8.38-1.862l1.289 0.596z"></path>
</svg>
