<?xml version="1.0" encoding="utf-8"?>
<!-- Generated by IcoMoon.io -->
<!DOCTYPE svg PUBLIC "-//W3C//DTD SVG 1.1//EN" "http://www.w3.org/Graphics/SVG/1.1/DTD/svg11.dtd">
<svg version="1.1" xmlns="http://www.w3.org/2000/svg" xmlns:xlink="http://www.w3.org/1999/xlink" width="32" height="32" viewBox="0 0 32 32">
<path d="M32.001 9.353l-2.996-2.996-5.918 5.918-3.36-3.361 5.918-5.918-2.996-2.996-5.918 5.918-3.799-3.799-2.868 2.868 16.951 16.951 2.868-2.868-3.799-3.799 5.918-5.918zM24.387 22.308l-14.694-14.694c-3.172 3.804-6.771 9.683-4.284 14.74l-4.378 4.378c-1.030 1.030-1.030 2.716 0 3.746l0.492 0.492c1.030 1.030 2.716 1.030 3.746 0l4.378-4.378c5.058 2.487 10.936-1.111 14.74-4.284z"></path>
</svg>
