<?xml version="1.0" encoding="utf-8"?>
<!-- Generated by IcoMoon.io -->
<!DOCTYPE svg PUBLIC "-//W3C//DTD SVG 1.1//EN" "http://www.w3.org/Graphics/SVG/1.1/DTD/svg11.dtd">
<svg version="1.1" xmlns="http://www.w3.org/2000/svg" xmlns:xlink="http://www.w3.org/1999/xlink" width="32" height="32" viewBox="0 0 32 32">
<path d="M17.183 18.073c1.377 4.649 2.744 9.268 4.123 13.927h-10.587c1.374-4.643 2.744-9.271 4.112-13.893-2.409-1.282-3.337-2.913-2.826-4.942 0.473-1.88 2.079-3.163 3.968-3.168 1.952-0.005 3.563 1.251 4.044 3.17 0.267 1.065 0.098 2.079-0.451 3.022-0.54 0.928-1.349 1.541-2.384 1.884zM9.872 0c0.527 0.045 0.941 0.374 1.081 0.89 0.129 0.474-0.1 0.972-0.553 1.244-0.782 0.469-1.609 0.88-2.328 1.432-3.002 2.304-4.811 5.343-5.173 9.12-0.493 5.129 1.44 9.222 5.578 12.278 0.428 0.316 0.769 0.668 0.653 1.25-0.167 0.838-1.033 1.197-1.748 0.716-1.395-0.939-2.607-2.076-3.631-3.413-1.687-2.201-2.734-4.68-3.063-7.426-0.525-4.379 0.609-8.315 3.376-11.757 1.396-1.737 3.107-3.098 5.112-4.081 0.221-0.108 0.464-0.17 0.697-0.253zM31.433 14.093c-0.109 5.357-2.297 9.634-6.678 12.758-0.609 0.434-1.276 0.367-1.657-0.149-0.413-0.561-0.28-1.221 0.374-1.677 1.713-1.194 3.082-2.693 4.106-4.515 2.703-4.813 2.019-11.030-1.656-15.134-1.191-1.329-2.575-2.391-4.172-3.18-0.582-0.288-0.823-0.784-0.671-1.326 0.204-0.726 0.939-1.068 1.641-0.665 1.040 0.597 2.107 1.187 3.032 1.939 3.165 2.575 4.998 5.932 5.591 9.966 0.040 0.275 0.076 0.552 0.087 0.829 0.015 0.383 0.004 0.768 0.004 1.152zM11.096 6.354c0.5 0.067 0.908 0.353 1.063 0.788 0.167 0.47 0.039 0.946-0.384 1.275-0.849 0.659-1.57 1.431-2.038 2.401-1.357 2.815-1.027 5.448 0.883 7.91 0.205 0.264 0.359 0.622 0.393 0.951 0.048 0.466-0.295 0.84-0.76 0.994-0.488 0.162-0.918 0.013-1.206-0.371-0.491-0.654-1.004-1.309-1.37-2.033-1.78-3.524-1.129-7.725 1.603-10.587 0.346-0.362 0.725-0.697 1.119-1.005 0.197-0.153 0.463-0.218 0.697-0.323zM25.335 14.129c-0.021 2.327-0.796 4.371-2.311 6.136-0.469 0.546-1.146 0.623-1.653 0.193-0.473-0.401-0.514-1.102-0.061-1.633 1.221-1.429 1.845-3.071 1.779-4.954-0.072-2.081-0.919-3.796-2.486-5.168-0.29-0.254-0.592-0.548-0.747-0.888-0.201-0.439 0.041-0.956 0.43-1.212 0.419-0.276 0.914-0.265 1.33 0.055 1.020 0.783 1.87 1.72 2.498 2.845 0.802 1.434 1.23 2.972 1.22 4.625z"></path>
</svg>
