<?xml version="1.0" encoding="utf-8"?>
<!-- Generated by IcoMoon.io -->
<!DOCTYPE svg PUBLIC "-//W3C//DTD SVG 1.1//EN" "http://www.w3.org/Graphics/SVG/1.1/DTD/svg11.dtd">
<svg version="1.1" xmlns="http://www.w3.org/2000/svg" xmlns:xlink="http://www.w3.org/1999/xlink" width="93" height="32" viewBox="0 0 93 32">
<path d="M31.74 32h-20.881c-0.51 0-0.924-0.414-0.924-0.924s0.414-0.924 0.924-0.924h19.033v-28.303h-28.047v19.225c0 0.51-0.413 0.924-0.924 0.924s-0.924-0.414-0.924-0.924v-21.074h31.743v32zM5.489 5.621h10.585v5.337h-10.585v-5.337zM20.546 5.621h5.701v5.337h-5.701v-5.337zM5.489 15.43h10.585v10.949h-10.585v-10.949zM20.546 15.43h5.701v10.949h-5.701v-10.949zM39.398 3.802h3.465c0.479 0 0.941 0.044 1.387 0.134s0.843 0.241 1.19 0.458c0.347 0.216 0.624 0.507 0.831 0.873s0.31 0.831 0.31 1.394c0 0.723-0.2 1.329-0.599 1.817s-0.969 0.784-1.711 0.887l2.648 4.408h-2.141l-2.31-4.225h-1.296v4.225h-1.775v-9.971zM42.552 8.027c0.254 0 0.507-0.011 0.761-0.035s0.485-0.080 0.697-0.169c0.211-0.089 0.383-0.225 0.514-0.408s0.197-0.439 0.197-0.768c0-0.291-0.061-0.526-0.183-0.704s-0.282-0.312-0.479-0.402c-0.197-0.089-0.415-0.148-0.654-0.176s-0.472-0.042-0.697-0.042h-1.535v2.704h1.381zM48.904 10.985c0.056 0.507 0.254 0.901 0.591 1.183s0.746 0.423 1.226 0.423c0.422 0 0.777-0.087 1.064-0.261s0.537-0.392 0.753-0.655l1.212 0.915c-0.394 0.488-0.836 0.836-1.324 1.042s-1 0.31-1.535 0.31c-0.507 0-0.986-0.084-1.437-0.253s-0.84-0.408-1.169-0.718c-0.329-0.31-0.589-0.683-0.782-1.12s-0.288-0.922-0.288-1.458c0-0.535 0.096-1.021 0.288-1.457s0.453-0.81 0.782-1.12c0.329-0.31 0.718-0.549 1.169-0.718s0.929-0.253 1.437-0.253c0.469 0 0.899 0.082 1.289 0.246s0.723 0.402 1 0.711c0.277 0.31 0.493 0.693 0.648 1.148s0.233 0.979 0.233 1.57v0.465h-5.155zM52.369 9.717c-0.009-0.498-0.164-0.89-0.465-1.176s-0.718-0.43-1.253-0.43c-0.507 0-0.909 0.146-1.204 0.437s-0.477 0.681-0.542 1.169h3.465zM55.228 3.802h6.437v1.606h-4.662v2.619h4.395v1.606h-4.395v4.141h-1.775v-9.972zM62.369 7.013h1.69v1.070h0.028c0.188-0.394 0.455-0.699 0.803-0.915 0.347-0.216 0.746-0.324 1.197-0.324 0.103 0 0.204 0.009 0.303 0.028s0.2 0.042 0.303 0.070v1.634c-0.141-0.037-0.28-0.068-0.416-0.091s-0.27-0.035-0.401-0.035c-0.394 0-0.711 0.073-0.951 0.218s-0.423 0.312-0.549 0.5c-0.127 0.188-0.211 0.376-0.253 0.563s-0.064 0.329-0.064 0.422v3.62h-1.69v-6.76zM71.65 12.844h-0.042c-0.244 0.385-0.554 0.664-0.929 0.838s-0.789 0.261-1.239 0.261c-0.31 0-0.613-0.042-0.909-0.127s-0.559-0.211-0.789-0.38c-0.23-0.169-0.416-0.38-0.556-0.634s-0.211-0.549-0.211-0.887c0-0.366 0.066-0.678 0.197-0.937s0.308-0.474 0.528-0.648c0.221-0.174 0.477-0.312 0.768-0.416s0.594-0.18 0.908-0.232c0.314-0.052 0.631-0.085 0.951-0.099s0.62-0.021 0.901-0.021h0.422v-0.183c0-0.423-0.146-0.74-0.437-0.951s-0.662-0.317-1.113-0.317c-0.357 0-0.69 0.063-1 0.19s-0.577 0.298-0.803 0.514l-0.888-0.887c0.376-0.385 0.815-0.662 1.317-0.831s1.021-0.253 1.556-0.253c0.479 0 0.882 0.054 1.212 0.162s0.601 0.247 0.817 0.416c0.216 0.169 0.382 0.364 0.5 0.584s0.202 0.444 0.253 0.669c0.052 0.225 0.082 0.444 0.091 0.655s0.014 0.397 0.014 0.557v3.887h-1.521v-0.929zM71.551 10.745h-0.352c-0.235 0-0.498 0.009-0.789 0.028s-0.566 0.064-0.824 0.134c-0.258 0.070-0.477 0.174-0.655 0.31s-0.268 0.327-0.268 0.571c0 0.16 0.035 0.294 0.106 0.401s0.162 0.2 0.275 0.275c0.113 0.075 0.239 0.129 0.38 0.162s0.282 0.049 0.423 0.049c0.582 0 1.012-0.139 1.289-0.416s0.415-0.655 0.415-1.134v-0.38zM74.354 7.013h1.606v1.056h0.028c0.15-0.319 0.392-0.603 0.725-0.852s0.782-0.373 1.345-0.373c1.061 0 1.765 0.418 2.113 1.253 0.244-0.432 0.549-0.749 0.915-0.951s0.803-0.302 1.309-0.302c0.451 0 0.831 0.075 1.141 0.225s0.561 0.357 0.754 0.62c0.192 0.263 0.331 0.571 0.416 0.923s0.127 0.73 0.127 1.134v4.028h-1.69v-3.831c0-0.207-0.019-0.406-0.056-0.599s-0.103-0.361-0.197-0.507c-0.094-0.146-0.221-0.261-0.38-0.345s-0.366-0.127-0.62-0.127c-0.263 0-0.486 0.049-0.669 0.148s-0.333 0.23-0.451 0.394c-0.118 0.164-0.202 0.352-0.254 0.563s-0.078 0.425-0.078 0.641v3.662h-1.69v-4.028c0-0.422-0.089-0.758-0.268-1.007s-0.474-0.373-0.887-0.373c-0.282 0-0.519 0.047-0.711 0.141s-0.352 0.221-0.479 0.38c-0.127 0.16-0.219 0.343-0.275 0.549s-0.084 0.422-0.084 0.648v3.69h-1.69v-6.76zM87.41 10.985c0.056 0.507 0.254 0.901 0.591 1.183s0.746 0.423 1.226 0.423c0.422 0 0.777-0.087 1.064-0.261s0.537-0.392 0.753-0.655l1.212 0.915c-0.394 0.488-0.836 0.836-1.324 1.042s-1 0.31-1.535 0.31c-0.507 0-0.986-0.084-1.437-0.253s-0.84-0.408-1.169-0.718c-0.329-0.31-0.589-0.683-0.782-1.12s-0.288-0.922-0.288-1.458c0-0.535 0.096-1.021 0.288-1.457s0.453-0.81 0.782-1.12c0.329-0.31 0.718-0.549 1.169-0.718s0.929-0.253 1.437-0.253c0.469 0 0.899 0.082 1.289 0.246s0.723 0.402 1 0.711c0.277 0.31 0.493 0.693 0.648 1.148s0.233 0.979 0.233 1.57v0.465h-5.155zM90.875 9.717c-0.009-0.498-0.164-0.89-0.465-1.176s-0.718-0.43-1.253-0.43c-0.507 0-0.909 0.146-1.204 0.437s-0.477 0.681-0.542 1.169h3.465zM39.525 17.766h1.76l3.38 7.817h0.028l3.408-7.817h1.718v9.972h-1.183v-8.366h-0.028l-3.578 8.366h-0.718l-3.577-8.366h-0.028v8.366h-1.183v-9.972zM57.285 26.541c-0.394 0.507-0.827 0.862-1.296 1.064s-1.014 0.303-1.634 0.303c-0.517 0-0.982-0.091-1.395-0.275s-0.763-0.43-1.049-0.74c-0.287-0.31-0.507-0.676-0.662-1.098s-0.232-0.873-0.232-1.352c0-0.507 0.084-0.974 0.253-1.401s0.404-0.793 0.704-1.098 0.657-0.542 1.071-0.711c0.413-0.169 0.864-0.254 1.352-0.254 0.46 0 0.882 0.078 1.267 0.233s0.716 0.38 0.993 0.676 0.491 0.657 0.641 1.084c0.15 0.427 0.225 0.913 0.225 1.457v0.352h-5.324c0.019 0.282 0.087 0.552 0.204 0.81s0.27 0.484 0.458 0.676c0.188 0.192 0.408 0.345 0.662 0.458s0.53 0.169 0.831 0.169c0.479 0 0.882-0.084 1.211-0.253s0.624-0.418 0.887-0.746l0.831 0.647zM56.341 23.85c-0.019-0.563-0.202-1.014-0.549-1.352s-0.827-0.507-1.437-0.507c-0.61 0-1.104 0.169-1.479 0.507s-0.601 0.789-0.676 1.352h4.141zM64.144 26.569h-0.028c-0.207 0.375-0.533 0.692-0.979 0.951s-0.965 0.387-1.556 0.387c-0.46 0-0.892-0.087-1.296-0.261s-0.753-0.416-1.049-0.725c-0.296-0.31-0.528-0.676-0.697-1.098s-0.253-0.882-0.253-1.38 0.084-0.958 0.253-1.38c0.169-0.423 0.404-0.789 0.704-1.098s0.664-0.552 1.092-0.726c0.427-0.173 0.899-0.261 1.416-0.261 0.479 0 0.918 0.099 1.317 0.296s0.749 0.474 1.049 0.831h0.028v-5.014h1.099v10.648h-1.099v-1.169zM64.144 24.442c0-0.347-0.054-0.669-0.162-0.965s-0.265-0.554-0.472-0.774c-0.207-0.221-0.453-0.394-0.739-0.521s-0.608-0.19-0.965-0.19c-0.357 0-0.679 0.064-0.965 0.19s-0.533 0.3-0.74 0.521-0.364 0.479-0.472 0.774-0.162 0.618-0.162 0.965 0.054 0.669 0.162 0.965 0.265 0.554 0.472 0.774c0.207 0.221 0.453 0.394 0.74 0.521 0.286 0.127 0.607 0.19 0.965 0.19s0.678-0.063 0.965-0.19c0.286-0.127 0.533-0.3 0.739-0.521s0.364-0.479 0.472-0.774 0.162-0.617 0.162-0.965zM66.706 18.569c0-0.216 0.078-0.404 0.233-0.563s0.345-0.24 0.57-0.24 0.416 0.080 0.571 0.24 0.232 0.347 0.232 0.563c0 0.235-0.075 0.427-0.225 0.577s-0.343 0.225-0.577 0.225-0.427-0.075-0.577-0.225c-0.151-0.15-0.226-0.342-0.226-0.577zM66.96 21.146h1.098v6.592h-1.098v-6.592zM69.735 21.992c0.338-0.347 0.739-0.603 1.204-0.768s0.937-0.247 1.416-0.247c0.976 0 1.681 0.23 2.113 0.69s0.648 1.16 0.648 2.099v2.831c0 0.188 0.009 0.383 0.028 0.585s0.042 0.387 0.070 0.556h-1.056c-0.038-0.15-0.059-0.317-0.064-0.5s-0.007-0.345-0.007-0.486h-0.028c-0.216 0.338-0.505 0.615-0.866 0.831s-0.796 0.324-1.303 0.324c-0.338 0-0.655-0.042-0.951-0.127s-0.554-0.209-0.774-0.373c-0.221-0.164-0.397-0.369-0.528-0.613s-0.197-0.526-0.197-0.845c0-0.544 0.141-0.972 0.422-1.281s0.631-0.54 1.049-0.69c0.417-0.15 0.868-0.244 1.352-0.282s0.927-0.056 1.331-0.056h0.422v-0.197c0-0.479-0.143-0.84-0.43-1.084s-0.688-0.366-1.204-0.366c-0.357 0-0.707 0.059-1.049 0.176s-0.646 0.298-0.908 0.542l-0.69-0.718zM72.918 24.569c-0.704 0-1.263 0.099-1.676 0.296s-0.62 0.521-0.62 0.972c0 0.413 0.139 0.707 0.416 0.881s0.622 0.261 1.035 0.261c0.319 0 0.599-0.054 0.838-0.162s0.439-0.251 0.599-0.43c0.16-0.178 0.282-0.387 0.366-0.627s0.131-0.495 0.141-0.768v-0.422h-1.098z"></path>
</svg>
