<?xml version="1.0" encoding="utf-8"?>
<!-- Generated by IcoMoon.io -->
<!DOCTYPE svg PUBLIC "-//W3C//DTD SVG 1.1//EN" "http://www.w3.org/Graphics/SVG/1.1/DTD/svg11.dtd">
<svg version="1.1" xmlns="http://www.w3.org/2000/svg" xmlns:xlink="http://www.w3.org/1999/xlink" width="164" height="32" viewBox="0 0 164 32">
<path d="M4.376 10.193h2.011l-0.201 1.581 0.043 0.042c0.794-1.3 2.105-1.949 3.933-1.949 2.527 0 3.79 1.305 3.79 3.915l-0.010 0.951h-1.982l0.039-0.347c0.025-0.364 0.038-0.608 0.038-0.735 0-1.41-0.765-2.116-2.294-2.116-2.238 0-3.356 1.386-3.356 4.162v8.232h-2.011v-13.734zM25.446 19.771h2.054l0.014 0.505c0 1.432-0.434 2.433-1.301 3.006-0.867 0.57-2.389 0.858-4.563 0.858-2.53 0-4.189-0.463-4.98-1.388s-1.186-2.871-1.186-5.833c0-2.744 0.398-4.585 1.193-5.524 0.795-0.941 2.352-1.411 4.67-1.411 2.529 0 4.187 0.407 4.972 1.222s1.179 2.532 1.179 5.149v1.080h-9.884c0 2.167 0.232 3.551 0.697 4.144 0.465 0.597 1.55 0.894 3.254 0.894 1.619 0 2.669-0.142 3.154-0.426 0.483-0.285 0.725-0.899 0.725-1.844v-0.431zM25.446 15.864l-0.014-0.648c0-1.486-0.244-2.453-0.733-2.898s-1.542-0.669-3.16-0.669c-1.628 0-2.684 0.262-3.168 0.784s-0.726 1.667-0.726 3.431h7.801zM32.893 12.837h-2.222v-2.643h2.222v2.643zM32.893 23.927h-2.222v-2.643h2.222v2.643zM39.217 11.532v4.826h6.735v1.325h-6.735v6.37h-1.569v-13.849h8.48v1.327zM47.801 24.054v-13.849h6.588c1.486 0 2.535 0.295 3.143 0.884 0.608 0.59 0.912 1.613 0.912 3.067 0 1.281-0.165 2.172-0.497 2.677s-0.964 0.831-1.898 0.981v0.030c1.471 0.109 2.207 1.001 2.207 2.677v3.535h-1.569v-3.18c0-1.611-0.698-2.418-2.095-2.418h-5.222v5.598h-1.569zM49.37 17.13h4.504c1.19 0 2.002-0.181 2.433-0.542 0.434-0.362 0.65-1.043 0.65-2.044 0-1.251-0.16-2.066-0.483-2.445-0.321-0.378-1.009-0.567-2.065-0.567h-5.040v5.598zM69.246 21.119h-7.009l-1.065 2.935h-1.654l5.071-13.849h2.192l5.172 13.849h-1.633l-1.075-2.935zM68.79 19.943l-3.073-8.458-3.033 8.458h6.106zM88.569 10.205v13.849h-1.569v-11.91l0.021-0.833h-0.041l-0.121 0.325c-0.062 0.163-0.101 0.267-0.122 0.314l-0.263 0.651-4.708 11.452h-1.56l-4.719-11.321-0.273-0.639-0.122-0.326c-0.034-0.074-0.074-0.18-0.121-0.313h-0.041l0.011 0.374 0.010 0.387v11.838h-1.569v-13.849h2.714l3.686 8.96 0.587 1.451 0.295 0.721 0.283 0.719h0.040l0.284-0.719c0.142-0.345 0.236-0.586 0.283-0.721l0.598-1.441 3.664-8.97h2.753zM92.203 11.532v4.706h7.032v1.325h-7.032v5.166h7.33v1.325h-8.898v-13.849h8.898v1.327zM122.141 10.155v13.916h-1.576v-11.967l0.011-0.418 0.010-0.419h-0.040l-0.122 0.327c-0.061 0.162-0.102 0.268-0.122 0.316l-0.264 0.654-4.731 11.507h-1.567l-4.741-11.375-0.275-0.643-0.122-0.326c-0.035-0.075-0.075-0.18-0.121-0.315h-0.040l0.010 0.377 0.010 0.388v11.895h-1.576v-13.916h2.726l3.704 9.003 0.59 1.458 0.296 0.723 0.285 0.724h0.039l0.286-0.724c0.142-0.346 0.237-0.587 0.284-0.723l0.601-1.447 3.683-9.013h2.765zM125.793 11.488v4.729h7.067v1.333h-7.067v5.191h7.365v1.331h-8.941v-13.916h8.941v1.332zM135.183 24.071v-13.916h6.448c1.99 0 3.337 0.439 4.043 1.316 0.707 0.878 1.059 2.556 1.059 5.037 0 3.016-0.313 5.033-0.942 6.046s-1.882 1.517-3.763 1.517h-6.845zM136.76 22.739h4.535c1.665 0 2.738-0.332 3.22-0.998 0.483-0.664 0.724-2.148 0.724-4.449 0-2.525-0.209-4.124-0.627-4.797-0.418-0.671-1.418-1.008-3.001-1.008h-4.851v11.252zM148.819 10.156h1.576v13.916h-1.576v-13.916zM161.614 21.123h-7.043l-1.070 2.948h-1.662l5.096-13.916h2.202l5.197 13.916h-1.64l-1.080-2.948zM161.156 19.941l-3.089-8.499-3.047 8.499h6.136zM31.999 32h-31.999v-32h31.999v32zM0.438 31.562h31.124v-31.124h-31.124v31.124z"></path>
</svg>
