<?xml version="1.0" encoding="utf-8"?>
<!-- Generated by IcoMoon.io -->
<!DOCTYPE svg PUBLIC "-//W3C//DTD SVG 1.1//EN" "http://www.w3.org/Graphics/SVG/1.1/DTD/svg11.dtd">
<svg version="1.1" xmlns="http://www.w3.org/2000/svg" xmlns:xlink="http://www.w3.org/1999/xlink" width="32" height="32" viewBox="0 0 32 32">
<path d="M31.766 27.459l-5.593-5.592c1.417-2.211 2.249-4.834 2.249-7.655 0-7.849-6.362-14.212-14.211-14.212s-14.211 6.363-14.211 14.212 6.362 14.212 14.211 14.212c2.821 0 5.443-0.833 7.654-2.25l5.592 5.593c0.395 0.395 1.041 0.395 1.435 0l2.874-2.872c0.395-0.395 0.395-1.041 0-1.436zM14.211 24.363c-5.597 0-10.151-4.554-10.151-10.151s4.554-10.151 10.151-10.151 10.151 4.555 10.151 10.151c0 5.597-4.554 10.151-10.151 10.151z"></path>
</svg>
