<?xml version="1.0" encoding="utf-8"?>
<!-- Generated by IcoMoon.io -->
<!DOCTYPE svg PUBLIC "-//W3C//DTD SVG 1.1//EN" "http://www.w3.org/Graphics/SVG/1.1/DTD/svg11.dtd">
<svg version="1.1" xmlns="http://www.w3.org/2000/svg" xmlns:xlink="http://www.w3.org/1999/xlink" width="32" height="32" viewBox="0 0 32 32">
<path d="M7.932 16.318l-1.212 2.377-2.14-1.178-0.961 1.746 2.195 1.208-0.912 1.789 1.697 0.865 0.885-1.736 1.996 1.098 0.961-1.746-2.051-1.129 1.197-2.348c0.67 0.254 1.397 0.393 2.157 0.393 3.362 0 6.088-2.726 6.088-6.088s-2.726-6.088-6.088-6.088c-3.362 0-6.088 2.726-6.088 6.088 0 1.92 0.888 3.632 2.276 4.748zM24.855 15.597l1.425-3.004 1.337 2.1 0.883-1.862-2.006-3.15-3.708 0.439-0.883 1.862 2.472-0.293-1.449 3.054c-0.468-0.116-0.958-0.177-1.462-0.177-3.362 0-6.088 2.726-6.088 6.088s2.726 6.088 6.088 6.088c3.362 0 6.088-2.726 6.088-6.088 0-2.107-1.071-3.965-2.698-5.058zM11.744 15.56c-2.203 0-3.989-1.786-3.989-3.989s1.786-3.989 3.989-3.989c2.203 0 3.989 1.786 3.989 3.989s-1.786 3.989-3.989 3.989zM21.464 24.644c-2.203 0-3.989-1.786-3.989-3.989s1.786-3.989 3.989-3.989c2.203 0 3.989 1.786 3.989 3.989s-1.786 3.989-3.989 3.989z"></path>
</svg>
