<?xml version="1.0" encoding="utf-8"?>
<!-- Generated by IcoMoon.io -->
<!DOCTYPE svg PUBLIC "-//W3C//DTD SVG 1.1//EN" "http://www.w3.org/Graphics/SVG/1.1/DTD/svg11.dtd">
<svg version="1.1" xmlns="http://www.w3.org/2000/svg" xmlns:xlink="http://www.w3.org/1999/xlink" width="32" height="32" viewBox="0 0 32 32">
<path d="M16 32c8.837 0 16-7.163 16-16s-7.163-16-16-16c-8.837 0-16 7.163-16 16s7.163 16 16 16zM8.63 16.287c-1.175-0.945-1.928-2.395-1.928-4.020 0-2.847 2.308-5.156 5.156-5.156s5.156 2.308 5.156 5.156c0 2.847-2.308 5.156-5.156 5.156-0.643 0-1.259-0.118-1.826-0.333l-1.014 1.989 1.737 0.956-0.814 1.479-1.69-0.93-0.749 1.47-1.437-0.733 0.772-1.515-1.859-1.023 0.814-1.479 1.812 0.997 1.026-2.013zM11.858 15.644c-1.866 0-3.378-1.512-3.378-3.378s1.512-3.378 3.378-3.378c1.866 0 3.378 1.512 3.378 3.378s-1.512 3.378-3.378 3.378zM22.96 15.676c1.378 0.925 2.285 2.498 2.285 4.283 0 2.847-2.308 5.156-5.156 5.156s-5.156-2.308-5.156-5.156c0-2.847 2.308-5.156 5.156-5.156 0.427 0 0.842 0.052 1.238 0.15l1.227-2.586-2.093 0.248 0.748-1.577 3.14-0.372 1.698 2.667-0.748 1.577-1.132-1.778-1.207 2.544zM20.089 23.337c-1.866 0-3.378-1.512-3.378-3.378s1.512-3.378 3.378-3.378c1.866 0 3.378 1.512 3.378 3.378s-1.512 3.378-3.378 3.378z"></path>
</svg>
