<?xml version="1.0" encoding="utf-8"?>
<!-- Generated by IcoMoon.io -->
<!DOCTYPE svg PUBLIC "-//W3C//DTD SVG 1.1//EN" "http://www.w3.org/Graphics/SVG/1.1/DTD/svg11.dtd">
<svg version="1.1" xmlns="http://www.w3.org/2000/svg" xmlns:xlink="http://www.w3.org/1999/xlink" width="30" height="32" viewBox="0 0 30 32">
<path d="M24.564 20.513c-1.186 0-2.278 0.404-3.173 1.073l-10.406-5.669 10.287-5.604c0.919 0.727 2.050 1.174 3.292 1.174 3.033 0 5.489-2.572 5.489-5.743s-2.456-5.743-5.489-5.743c-3.032 0-5.486 2.572-5.486 5.743 0 0.070 0.017 0.135 0.019 0.204l-10.315 5.621c-0.919-0.728-2.051-1.175-3.293-1.175-3.033 0-5.489 2.572-5.489 5.743s2.456 5.743 5.489 5.743c1.386 0 2.638-0.556 3.603-1.442l10.020 5.457c-0.008 0.121-0.035 0.238-0.035 0.362 0 3.172 2.454 5.743 5.486 5.743s5.489-2.571 5.489-5.743-2.455-5.744-5.488-5.744z"></path>
</svg>
