<?xml version="1.0" encoding="utf-8"?>
<!-- Generated by IcoMoon.io -->
<!DOCTYPE svg PUBLIC "-//W3C//DTD SVG 1.1//EN" "http://www.w3.org/Graphics/SVG/1.1/DTD/svg11.dtd">
<svg version="1.1" xmlns="http://www.w3.org/2000/svg" xmlns:xlink="http://www.w3.org/1999/xlink" width="32" height="32" viewBox="0 0 32 32">
<path d="M32.008 16.516c-0.041-2.155-0.509-4.303-1.372-6.268-0.861-1.966-2.11-3.747-3.643-5.219-1.533-1.473-3.35-2.637-5.317-3.405-1.966-0.771-4.080-1.139-6.169-1.095-2.089 0.041-4.168 0.496-6.070 1.333-1.903 0.835-3.627 2.046-5.052 3.532-1.425 1.485-2.551 3.246-3.293 5.15-0.745 1.904-1.1 3.949-1.055 5.971 0.041 2.023 0.482 4.034 1.294 5.872 0.809 1.84 1.981 3.508 3.42 4.884 1.438 1.378 3.142 2.466 4.983 3.182 1.841 0.719 3.818 1.060 5.774 1.016 1.957-0.042 3.899-0.469 5.675-1.254 1.777-0.783 3.388-1.917 4.717-3.308 1.331-1.39 2.38-3.037 3.070-4.816 0.42-1.078 0.705-2.205 0.855-3.345 0.040 0.002 0.081 0.004 0.121 0.004 1.139 0 2.063-0.923 2.063-2.063 0-0.058-0.003-0.115-0.008-0.172h0.008zM28.731 21.993c-0.756 1.715-1.853 3.268-3.197 4.55s-2.933 2.294-4.649 2.958c-1.716 0.666-3.555 0.981-5.379 0.937-1.824-0.042-3.629-0.443-5.28-1.176-1.652-0.731-3.148-1.788-4.383-3.085s-2.209-2.829-2.847-4.482c-0.64-1.653-0.942-3.423-0.898-5.181 0.042-1.758 0.43-3.494 1.136-5.082 0.704-1.589 1.724-3.029 2.973-4.216s2.724-2.123 4.315-2.735c1.59-0.614 3.292-0.903 4.984-0.859 1.692 0.042 3.359 0.416 4.885 1.097 1.526 0.678 2.909 1.66 4.049 2.861s2.037 2.62 2.623 4.148c0.588 1.527 0.863 3.16 0.819 4.786h0.008c-0.005 0.057-0.008 0.114-0.008 0.172 0 1.064 0.805 1.939 1.84 2.051-0.201 1.122-0.533 2.218-0.992 3.255z"></path>
</svg>
