<?xml version="1.0" encoding="utf-8"?>
<!-- Generated by IcoMoon.io -->
<!DOCTYPE svg PUBLIC "-//W3C//DTD SVG 1.1//EN" "http://www.w3.org/Graphics/SVG/1.1/DTD/svg11.dtd">
<svg version="1.1" xmlns="http://www.w3.org/2000/svg" xmlns:xlink="http://www.w3.org/1999/xlink" width="32" height="32" viewBox="0 0 32 32">
<path d="M15.644 24.178v1.422l-1.422-1.422-1.422 1.422v-1.422h-1.026c-1.003 0-1.818-0.815-1.818-1.818v-13.43c0-1.003 0.815-1.818 1.818-1.818h10.982v14.212h-0.711v2.162h0.711v0.693h-7.111zM15.644 23.484h5.722l-0.033-2.179h-9.050c-0.892 0-1.628 0.199-1.616 0.914s0.758 1.265 1.65 1.265h0.483v-1.44h2.844v1.44zM16 32c8.837 0 16-7.163 16-16s-7.163-16-16-16c-8.837 0-16 7.163-16 16s7.163 16 16 16zM17.067 12.8v2.844h-1.422v-2.844h-1.422v-1.422h1.422v-1.422h1.422v1.422h1.422v1.422h-1.422z"></path>
</svg>
