<?xml version="1.0" encoding="utf-8"?>
<!-- Generated by IcoMoon.io -->
<!DOCTYPE svg PUBLIC "-//W3C//DTD SVG 1.1//EN" "http://www.w3.org/Graphics/SVG/1.1/DTD/svg11.dtd">
<svg version="1.1" xmlns="http://www.w3.org/2000/svg" xmlns:xlink="http://www.w3.org/1999/xlink" width="32" height="32" viewBox="0 0 32 32">
<path d="M15.36 27.309v1.991l-1.991-1.991-1.991 1.991v-1.991h-1.437c-1.405 0-2.546-1.141-2.546-2.546v-18.805c0-1.405 1.141-2.546 2.546-2.546h15.377v19.9h-0.996v3.027h0.996v0.971h-9.957zM15.36 26.338h8.013l-0.047-3.051h-12.673c-1.249 0-2.279 0.279-2.263 1.279s1.061 1.771 2.311 1.771h0.676v-2.016h3.983v2.016zM17.351 11.377h1.991v-1.991h-1.991v-1.991h-1.991v1.991h-1.991v1.991h1.991v3.983h1.991v-3.983z"></path>
</svg>
