<?xml version="1.0" encoding="utf-8"?>
<!-- Generated by IcoMoon.io -->
<!DOCTYPE svg PUBLIC "-//W3C//DTD SVG 1.1//EN" "http://www.w3.org/Graphics/SVG/1.1/DTD/svg11.dtd">
<svg version="1.1" xmlns="http://www.w3.org/2000/svg" xmlns:xlink="http://www.w3.org/1999/xlink" width="32" height="32" viewBox="0 0 32 32">
<path d="M26.209 24.689v6.031h-7.858c0-0.637-0.039-1.276 0.012-1.907 0.041-0.51-0.155-0.785-0.555-1.090-0.89-0.681-1.719-1.441-2.558-2.187-0.173-0.153-0.316-0.363-0.41-0.575-0.107-0.243-0.264-0.276-0.496-0.275-3.747 0.006-7.494 0.004-11.241 0.004-1.852-0-3.111-1.266-3.111-3.129-0-5.704-0-11.407 0-17.11 0-1.875 1.254-3.144 3.133-3.163 0.878-0.008 1.755-0.001 2.633-0.001 7.671 0 15.343-0.001 23.015 0 1.494 0 2.63 0.744 3.051 2.034 0.115 0.353 0.174 0.742 0.174 1.114 0.011 5.703 0.009 11.407 0.006 17.11-0.001 1.877-1.274 3.144-3.143 3.144-0.864 0-1.728 0-2.652 0zM14.611 21.55c0-1.398-0.002-2.761 0.002-4.124 0-0.2 0.007-0.403 0.038-0.602 0.069-0.45 0.446-0.784 0.9-0.818 0.485-0.036 0.87 0.202 1.013 0.657 0.056 0.176 0.074 0.371 0.075 0.558 0.006 1.281 0 2.562 0.010 3.842 0.001 0.107 0.069 0.255 0.154 0.306 0.078 0.048 0.272 0.033 0.32-0.028 0.075-0.095 0.093-0.253 0.093-0.385 0.004-3.51-0.001-7.020 0.012-10.53 0.001-0.259 0.067-0.549 0.196-0.77 0.194-0.335 0.657-0.44 1.048-0.315 0.381 0.121 0.598 0.424 0.599 0.868 0.003 2.36 0.002 4.719 0.002 7.079 0 0.474-0.015 0.95 0.012 1.423 0.006 0.102 0.149 0.247 0.257 0.28 0.183 0.055 0.28-0.073 0.278-0.264-0.001-0.083 0-0.166 0-0.249 0-1.292 0.002-2.585-0.001-3.877-0.001-0.366 0.141-0.644 0.468-0.812 0.36-0.185 0.711-0.151 1.036 0.086 0.287 0.209 0.35 0.518 0.35 0.851-0.001 1.304-0.004 2.609 0.006 3.913 0.001 0.119 0.064 0.312 0.146 0.342 0.241 0.087 0.362-0.026 0.359-0.304-0.012-0.961-0.006-1.921-0.004-2.881 0.002-0.413 0.157-0.742 0.555-0.908 0.641-0.269 1.286 0.141 1.297 0.842 0.017 0.96 0.006 1.92 0.007 2.881 0 0.192-0.029 0.398 0.266 0.395 0.305-0.003 0.248-0.227 0.252-0.407 0.014-0.568-0.002-1.139 0.037-1.705 0.031-0.447 0.353-0.719 0.8-0.753 0.651-0.051 1.013 0.326 1.019 1.098 0.010 1.293 0.003 2.585 0.003 3.878 0 0.138 0 0.276 0 0.424h2.637v-17.111h-25.718v17.123h11.476zM30.44 12.407c-0.318-0.002-0.59 0.26-0.6 0.58-0.011 0.34 0.253 0.612 0.595 0.611 0.355 0 0.599-0.249 0.594-0.605-0.005-0.324-0.267-0.585-0.588-0.587zM17.14 8.633c0.004 0.284-0.222 0.527-0.502 0.539-0.278 0.012-0.553-0.256-0.551-0.536 0.002-0.264 0.264-0.521 0.53-0.522 0.278-0 0.518 0.239 0.522 0.519zM20.91 10.010c0.004 0.276-0.234 0.516-0.516 0.521-0.286 0.005-0.526-0.217-0.539-0.499-0.013-0.277 0.259-0.559 0.534-0.553 0.268 0.006 0.517 0.26 0.521 0.531zM18.614 8.123c-0.006 0.274-0.25 0.506-0.531 0.504-0.305-0.002-0.531-0.241-0.517-0.545 0.013-0.285 0.246-0.495 0.539-0.486 0.285 0.009 0.515 0.248 0.509 0.527zM19.614 9.172c-0.275-0.004-0.513-0.248-0.514-0.527s0.236-0.526 0.51-0.531c0.289-0.005 0.534 0.248 0.527 0.544-0.006 0.278-0.25 0.517-0.523 0.513zM16.435 10.019c-0.002 0.288-0.227 0.511-0.514 0.512-0.307 0.001-0.533-0.235-0.521-0.542 0.012-0.277 0.265-0.517 0.534-0.505 0.284 0.012 0.503 0.247 0.501 0.536zM16.295 11.104c0.274 0.002 0.514 0.245 0.516 0.524 0.002 0.277-0.237 0.528-0.507 0.533-0.288 0.006-0.537-0.248-0.531-0.542 0.006-0.281 0.246-0.517 0.521-0.515zM20.562 11.667c-0.015 0.277-0.269 0.509-0.539 0.494-0.272-0.016-0.5-0.269-0.491-0.547 0.009-0.28 0.252-0.516 0.527-0.51 0.29 0.006 0.52 0.263 0.504 0.563z"></path>
</svg>
