<?xml version="1.0" encoding="utf-8"?>
<!-- Generated by IcoMoon.io -->
<!DOCTYPE svg PUBLIC "-//W3C//DTD SVG 1.1//EN" "http://www.w3.org/Graphics/SVG/1.1/DTD/svg11.dtd">
<svg version="1.1" xmlns="http://www.w3.org/2000/svg" xmlns:xlink="http://www.w3.org/1999/xlink" width="32" height="32" viewBox="0 0 32 32">
<path d="M30.477 0h-12.182c-0.837 0-2.007 0.485-2.599 1.077l-15.104 15.104c-0.592 0.592-0.592 1.561 0 2.153l13.074 13.074c0.592 0.592 1.561 0.592 2.153 0l15.104-15.104c0.592-0.592 1.077-1.762 1.077-2.599v-12.182c0-0.838-0.685-1.523-1.523-1.523zM22.864 12.182c-1.682 0-3.045-1.363-3.045-3.045s1.363-3.045 3.045-3.045 3.045 1.363 3.045 3.045-1.363 3.045-3.045 3.045z"></path>
</svg>
