<?xml version="1.0" encoding="utf-8"?>
<!-- Generator: Adobe Illustrator 16.0.0, SVG Export Plug-In . SVG Version: 6.00 Build 0)  -->
<!DOCTYPE svg PUBLIC "-//W3C//DTD SVG 1.0//EN" "http://www.w3.org/TR/2001/REC-SVG-20010904/DTD/svg10.dtd">
<svg version="1.0" id="Layer_1" xmlns="http://www.w3.org/2000/svg" xmlns:xlink="http://www.w3.org/1999/xlink" x="0px" y="0px"
	 width="32px" height="32px" viewBox="0 0 32 32" enable-background="new 0 0 32 32" xml:space="preserve">
<title>Blur</title>
<g id="Page-1">
	<g id="Artboard-4" transform="translate(-280.000000, -280.000000)">
		<path id="Blur" d="M293,295.5c1.381,0,2.5-1.119,2.5-2.5s-1.119-2.5-2.5-2.5s-2.5,1.119-2.5,2.5
			S291.619,295.5,293,295.5z M299,301.5c1.381,0,2.5-1.119,2.5-2.5s-1.119-2.5-2.5-2.5s-2.5,1.119-2.5,2.5S297.619,301.5,299,301.5z
			 M293,301.5c1.381,0,2.5-1.119,2.5-2.5s-1.119-2.5-2.5-2.5s-2.5,1.119-2.5,2.5S291.619,301.5,293,301.5z M299,295.5
			c1.381,0,2.5-1.119,2.5-2.5s-1.119-2.5-2.5-2.5s-2.5,1.119-2.5,2.5S297.619,295.5,299,295.5z M305,306.5
			c0.828,0,1.5-0.672,1.5-1.5s-0.672-1.5-1.5-1.5s-1.5,0.672-1.5,1.5S304.172,306.5,305,306.5z M287,306.5
			c0.829,0,1.5-0.672,1.5-1.5s-0.671-1.5-1.5-1.5s-1.5,0.672-1.5,1.5S286.171,306.5,287,306.5z M283,299.5
			c0.276,0,0.5-0.224,0.5-0.5s-0.224-0.5-0.5-0.5s-0.5,0.224-0.5,0.5S282.724,299.5,283,299.5z M283,293.5
			c0.276,0,0.5-0.224,0.5-0.5s-0.224-0.5-0.5-0.5s-0.5,0.224-0.5,0.5S282.724,293.5,283,293.5z M309,299.5
			c0.276,0,0.5-0.224,0.5-0.5s-0.224-0.5-0.5-0.5s-0.5,0.224-0.5,0.5S308.724,299.5,309,299.5z M309,293.5
			c0.276,0,0.5-0.224,0.5-0.5s-0.224-0.5-0.5-0.5s-0.5,0.224-0.5,0.5S308.724,293.5,309,293.5z M305,300.5
			c0.828,0,1.5-0.672,1.5-1.5s-0.672-1.5-1.5-1.5s-1.5,0.672-1.5,1.5S304.172,300.5,305,300.5z M287,300.5
			c0.829,0,1.5-0.672,1.5-1.5s-0.671-1.5-1.5-1.5s-1.5,0.672-1.5,1.5S286.171,300.5,287,300.5z M305,294.5
			c0.828,0,1.5-0.671,1.5-1.5s-0.672-1.5-1.5-1.5s-1.5,0.671-1.5,1.5S304.172,294.5,305,294.5z M287,294.5
			c0.829,0,1.5-0.671,1.5-1.5s-0.671-1.5-1.5-1.5s-1.5,0.671-1.5,1.5S286.171,294.5,287,294.5z M305,288.5
			c0.828,0,1.5-0.671,1.5-1.5s-0.672-1.5-1.5-1.5s-1.5,0.671-1.5,1.5S304.172,288.5,305,288.5z M299,306.5
			c0.828,0,1.5-0.672,1.5-1.5s-0.672-1.5-1.5-1.5s-1.5,0.672-1.5,1.5S298.172,306.5,299,306.5z M293,306.5
			c0.829,0,1.5-0.672,1.5-1.5s-0.671-1.5-1.5-1.5s-1.5,0.672-1.5,1.5S292.171,306.5,293,306.5z M299,309.5
			c0.276,0,0.5-0.224,0.5-0.5s-0.224-0.5-0.5-0.5s-0.5,0.224-0.5,0.5S298.724,309.5,299,309.5z M293,309.5
			c0.276,0,0.5-0.224,0.5-0.5s-0.224-0.5-0.5-0.5s-0.5,0.224-0.5,0.5S292.724,309.5,293,309.5z M299,283.5
			c0.276,0,0.5-0.224,0.5-0.5s-0.224-0.5-0.5-0.5s-0.5,0.224-0.5,0.5S298.724,283.5,299,283.5z M293,283.5
			c0.276,0,0.5-0.224,0.5-0.5s-0.224-0.5-0.5-0.5s-0.5,0.224-0.5,0.5S292.724,283.5,293,283.5z M299,288.5
			c0.828,0,1.5-0.671,1.5-1.5s-0.672-1.5-1.5-1.5s-1.5,0.671-1.5,1.5S298.172,288.5,299,288.5z M293,288.5
			c0.829,0,1.5-0.671,1.5-1.5s-0.671-1.5-1.5-1.5s-1.5,0.671-1.5,1.5S292.171,288.5,293,288.5z M287,288.5
			c0.829,0,1.5-0.671,1.5-1.5s-0.671-1.5-1.5-1.5s-1.5,0.671-1.5,1.5S286.171,288.5,287,288.5z"/>
	</g>
</g>
</svg>
