<?xml version="1.0" encoding="utf-8"?>
<!-- Generator: Adobe Illustrator 16.0.0, SVG Export Plug-In . SVG Version: 6.00 Build 0)  -->
<!DOCTYPE svg PUBLIC "-//W3C//DTD SVG 1.0//EN" "http://www.w3.org/TR/2001/REC-SVG-20010904/DTD/svg10.dtd">
<svg version="1.0" id="Layer_1" xmlns="http://www.w3.org/2000/svg" xmlns:xlink="http://www.w3.org/1999/xlink" x="0px" y="0px"
	 width="32px" height="32px" viewBox="0 0 32 32" enable-background="new 0 0 32 32" xml:space="preserve">
<title>Dice5</title>
<g id="Page-1">
	<g id="Artboard-4-Copy" transform="translate(-488.000000, -72.000000)">
		<path id="Dice5" d="M493,80.001c0-1.658,1.343-3.001,3.001-3.001h15.997c1.658,0,3.002,1.343,3.002,3.001v15.997
			c0,1.658-1.344,3.002-3.002,3.002h-15.997c-1.658,0-3.001-1.344-3.001-3.002V80.001z M498,84c1.104,0,2-0.896,2-2s-0.896-2-2-2
			s-2,0.896-2,2S496.896,84,498,84z M498,96c1.104,0,2-0.896,2-2s-0.896-2-2-2s-2,0.896-2,2S496.896,96,498,96z M510,84
			c1.104,0,2-0.896,2-2s-0.896-2-2-2s-2,0.896-2,2S508.896,84,510,84z M510,96c1.104,0,2-0.896,2-2s-0.896-2-2-2s-2,0.896-2,2
			S508.896,96,510,96z M504,90c1.104,0,2-0.896,2-2s-0.896-2-2-2s-2,0.896-2,2S502.896,90,504,90z"/>
	</g>
</g>
</svg>
