<?xml version="1.0" encoding="utf-8"?>
<!-- Generator: Adobe Illustrator 16.0.0, SVG Export Plug-In . SVG Version: 6.00 Build 0)  -->
<!DOCTYPE svg PUBLIC "-//W3C//DTD SVG 1.0//EN" "http://www.w3.org/TR/2001/REC-SVG-20010904/DTD/svg10.dtd">
<svg version="1.0" id="Layer_1" xmlns="http://www.w3.org/2000/svg" xmlns:xlink="http://www.w3.org/1999/xlink" x="0px" y="0px"
	 width="32px" height="32px" viewBox="0 0 32 32" enable-background="new 0 0 32 32" xml:space="preserve">
<title>MusicNote</title>
<g id="Page-1">
	<g id="Icons" transform="translate(-248.000000, -1712.000000)">
		<path id="MusicNote" d="M275.166,1715.019c-8.602-0.29-15.648,2.923-15.648,2.923l-0.005,16.305
			c-0.876-0.353-1.941-0.436-3.023-0.17c-2.332,0.574-3.859,2.553-3.411,4.422c0.449,1.869,2.703,2.918,5.035,2.346
			c2.198-0.542,3.682-2.332,3.468-4.102v-12.182c0,0,4.983-1.764,11.446-2.206v9.061c-0.867-0.337-1.912-0.413-2.975-0.151
			c-2.332,0.574-3.859,2.553-3.41,4.422c0.447,1.869,2.701,2.918,5.034,2.345c2.036-0.501,3.459-2.073,3.488-3.708h0.001V1715.019z"
			/>
	</g>
</g>
</svg>
