<?xml version="1.0" encoding="utf-8"?>
<!-- Generator: Adobe Illustrator 16.0.0, SVG Export Plug-In . SVG Version: 6.00 Build 0)  -->
<!DOCTYPE svg PUBLIC "-//W3C//DTD SVG 1.0//EN" "http://www.w3.org/TR/2001/REC-SVG-20010904/DTD/svg10.dtd">
<svg version="1.0" id="Layer_1" xmlns="http://www.w3.org/2000/svg" xmlns:xlink="http://www.w3.org/1999/xlink" x="0px" y="0px"
	 width="32px" height="32px" viewBox="0 0 32 32" enable-background="new 0 0 32 32" xml:space="preserve">
<title>Clappboard</title>
<g id="Page-1">
	<g id="Icons" transform="translate(-196.000000, -934.000000)">
		<path id="Clappboard" d="M224.28,953.119l-2.452-6.845l-0.568-1.587l-0.014,0.005l-0.864-2.414l-0.983,0.364
			l-1.172,3.167l-2.204,0.815l1.172-3.167l-2.306,0.854l-1.173,3.167l-2.205,0.816l1.173-3.167l-2.307,0.854l-1.172,3.167
			L207,949.964l1.172-3.167l-2.306,0.854l-1.173,3.167l-2.204,0.815l1.172-3.168l-3.63,1.344l0.864,2.414l0.562,1.572
			c0.002,0.004,0.002,0.01,0.004,0.016l3.13,8.744c0.126,0.352,0.508,0.532,0.854,0.404l19.117-7.074
			c0.345-0.127,0.523-0.516,0.396-0.866l-0.585-1.636C224.355,953.321,224.322,953.238,224.28,953.119L224.28,953.119z
			 M210.334,940.358l3.14,1.123l2.123-1.247l-3.14-1.123L210.334,940.358L210.334,940.358z M216.662,937.091l-2.206,1.294
			l3.14,1.123l0.905-0.533l-0.931-1.637C217.387,937.015,216.98,936.904,216.662,937.091L216.662,937.091z M199.333,947.025
			c-0.318,0.187-0.427,0.601-0.244,0.924l0.929,1.637l3.348-1.962l-3.14-1.123L199.333,947.025L199.333,947.025z M202.091,945.636
			l3.14,1.123l2.123-1.246l-3.14-1.123L202.091,945.636L202.091,945.636z M206.213,943.002l3.14,1.123l2.132-1.251l-3.14-1.123
			L206.213,943.002L206.213,943.002z"/>
	</g>
</g>
</svg>
