<?xml version="1.0" encoding="utf-8"?>
<!-- Generator: Adobe Illustrator 16.0.0, SVG Export Plug-In . SVG Version: 6.00 Build 0)  -->
<!DOCTYPE svg PUBLIC "-//W3C//DTD SVG 1.0//EN" "http://www.w3.org/TR/2001/REC-SVG-20010904/DTD/svg10.dtd">
<svg version="1.0" id="Layer_1" xmlns="http://www.w3.org/2000/svg" xmlns:xlink="http://www.w3.org/1999/xlink" x="0px" y="0px"
	 width="32px" height="32px" viewBox="0 0 32 32" enable-background="new 0 0 32 32" xml:space="preserve">
<title>Wifi</title>
<g id="Page-1">
	<g id="Icons" transform="translate(-92.000000, -2441.000000)">
		<path id="Wifi" d="M106.899,2465.834c0.39,0.393,1.017,0.397,1.412,0l1.955-1.967
			c0.39-0.392,0.346-0.966-0.146-1.246c0,0-0.515-0.617-2.515-0.617c-2.001,0-2.529,0.624-2.529,0.624
			c-0.463,0.293-0.527,0.843-0.132,1.239L106.899,2465.834L106.899,2465.834z M101.562,2460.468c0.388,0.39,1.042,0.421,1.497,0.089
			c0,0,1.546-1.557,4.546-1.557c3,0,4.562,1.568,4.562,1.568c0.43,0.334,1.096,0.286,1.48-0.101l1.557-1.566
			c0.388-0.39,0.364-1-0.066-1.336c0,0-2.533-2.562-7.533-2.562c-5,0-7.534,2.562-7.534,2.562c-0.424,0.349-0.451,0.949-0.066,1.336
			L101.562,2460.468L101.562,2460.468z M117.152,2455.542c0.416,0.356,1.063,0.333,1.463-0.068l1.281-1.288
			c0.393-0.394,0.428-1.055,0.049-1.462c0,0-3.34-4.724-12.341-4.724c-9.001,0-12.349,4.734-12.349,4.734
			c-0.359,0.408-0.34,1.049,0.059,1.451l1.28,1.287c0.391,0.394,1.044,0.411,1.474,0.059c0,0,3.534-3.531,9.536-3.53
			C113.605,2452.001,117.152,2455.542,117.152,2455.542L117.152,2455.542z"/>
	</g>
</g>
</svg>
