<?xml version="1.0" encoding="utf-8"?>
<!-- Generator: Adobe Illustrator 16.0.0, SVG Export Plug-In . SVG Version: 6.00 Build 0)  -->
<!DOCTYPE svg PUBLIC "-//W3C//DTD SVG 1.1//EN" "http://www.w3.org/Graphics/SVG/1.1/DTD/svg11.dtd">
<svg version="1.1" id="Layer_1" xmlns="http://www.w3.org/2000/svg" xmlns:xlink="http://www.w3.org/1999/xlink" x="0px" y="0px"
	 width="432px" height="576px" viewBox="0 0 432 576" enable-background="new 0 0 432 576" xml:space="preserve">
<g>
	<path d="M217.013,390.959c58.575,0,106.314-47.637,106.314-106.212V140.811
		c0-58.575-47.739-106.213-106.314-106.213c-58.576,0-106.316,47.638-106.316,106.213v143.936
		C110.697,343.322,158.437,390.959,217.013,390.959z M145.454,140.811c0-39.357,32.202-71.456,71.559-71.456
		s71.558,32.099,71.558,71.456v143.936c0,39.357-32.2,71.456-71.558,71.456s-71.559-32.099-71.559-71.456V140.811z"/>
	<path d="M324.146,424.733c29.441-25.557,45.593-59.803,45.593-96.398c0-9.61-7.769-17.379-17.378-17.379
		s-17.378,7.769-17.378,17.379c0,55.304-52.954,100.385-118.072,100.385S98.838,383.639,98.838,328.335
		c0-9.61-7.769-17.379-17.378-17.379s-17.379,7.769-17.379,17.379c0,36.596,16.254,70.842,45.594,96.398
		c24.534,21.366,55.917,34.553,89.754,37.927v38.335h-28.93c-9.609,0-17.378,7.77-17.378,17.378c0,9.609,7.769,17.379,17.378,17.379
		h92.617c9.609,0,17.378-7.77,17.378-17.379c0-9.608-7.769-17.378-17.378-17.378h-28.726v-38.437
		C268.228,459.185,299.611,446.1,324.146,424.733z"/>
</g>
</svg>
