<?xml version="1.0" encoding="utf-8"?>
<!-- Generator: Adobe Illustrator 16.0.0, SVG Export Plug-In . SVG Version: 6.00 Build 0)  -->
<!DOCTYPE svg PUBLIC "-//W3C//DTD SVG 1.0//EN" "http://www.w3.org/TR/2001/REC-SVG-20010904/DTD/svg10.dtd">
<svg version="1.0" id="Layer_1" xmlns="http://www.w3.org/2000/svg" xmlns:xlink="http://www.w3.org/1999/xlink" x="0px" y="0px"
	 width="32px" height="32px" viewBox="0 0 32 32" enable-background="new 0 0 32 32" xml:space="preserve">
<title>TV</title>
<g id="Page-1">
	<g id="Icons" transform="translate(-40.000000, -2336.000000)">
		<path id="TV" d="M59,2359h8.996c0.553,0,1.004-0.447,1.004-1v-15c0-0.545-0.449-1-1.004-1H44.003
			c-0.552,0-1.003,0.448-1.003,1v15c0,0.545,0.449,1,1.003,1H53v1h-4.503c-0.271,0-0.497,0.226-0.497,0.505v0.99
			c0,0.291,0.222,0.505,0.497,0.505h15.007c0.27,0,0.496-0.226,0.496-0.505v-0.99c0-0.291-0.223-0.505-0.496-0.505H59V2359L59,2359z
			 M45,2344.494c0-0.273,0.218-0.494,0.501-0.494h20.998c0.276,0,0.501,0.226,0.501,0.494v12.012c0,0.273-0.218,0.494-0.501,0.494
			H45.501c-0.277,0-0.501-0.226-0.501-0.494V2344.494L45,2344.494z"/>
	</g>
</g>
</svg>
