<?xml version="1.0" encoding="utf-8"?>
<!-- Generated by IcoMoon.io -->
<!DOCTYPE svg PUBLIC "-//W3C//DTD SVG 1.1//EN" "http://www.w3.org/Graphics/SVG/1.1/DTD/svg11.dtd">
<svg version="1.1" xmlns="http://www.w3.org/2000/svg" xmlns:xlink="http://www.w3.org/1999/xlink" width="94" height="32" viewBox="0 0 94 32">
<path d="M94.39 7.051h-5.068l-3.896 12.205h-0.069l-4.034-12.205h-5.24l6.275 16.721c0.552 1.414 0 3.172-1.689 3.344-0.966 0.034-1.931-0.104-2.862-0.172v4.033c1 0.104 1.999 0.173 3 0.173 3.379 0 5.068-1.172 6.137-4.034l7.447-20.066zM63.395 12.533c0.172-1.931 1.379-2.689 3.241-2.689 1.724 0 3.172 0.311 3.172 2.414 0 2-2.792 1.896-5.793 2.344-3.033 0.414-6.067 1.38-6.067 5.414 0 3.655 2.689 5.344 6.067 5.344 2.173 0 4.448-0.586 6-2.207 0.035 0.587 0.172 1.173 0.345 1.724h4.965c-0.448-0.724-0.62-2.344-0.62-3.965v-9.275c0-4.276-4.275-5.068-7.827-5.068-4 0-8.102 1.378-8.378 5.964h4.896zM69.807 17.981c0 1.069-0.138 4.103-3.965 4.103-1.586 0-3-0.448-3-2.275 0-1.793 1.379-2.31 2.896-2.621 1.517-0.276 3.241-0.31 4.068-1.034v1.827zM51.155 15.912c0 2.931-0.965 5.758-4.206 5.758-3.034 0-4.31-2.931-4.31-5.723 0-2.931 1.104-5.689 4.31-5.689 3.172 0 4.206 2.759 4.206 5.655zM51.224 24.876h4.655v-24.617h-4.896v8.964h-0.035c-1.137-1.758-3.206-2.654-5.309-2.654-5.241 0-7.895 4.448-7.895 9.24 0 4.931 2.62 9.551 7.999 9.551 2.275 0 4.275-0.827 5.412-2.758h0.069v2.276zM22.642 15.981c0-2.862 1-5.724 4.31-5.724 3.344 0 4.344 2.861 4.344 5.724 0 2.827-1 5.689-4.344 5.689-3.31 0-4.31-2.861-4.31-5.689zM17.746 15.981c0 5.655 3.62 9.378 9.206 9.378 5.62 0 9.24-3.723 9.24-9.378 0-5.689-3.62-9.412-9.24-9.412-5.585 0-9.206 3.724-9.206 9.412zM7.363 24.876h5.413v-20.066h7.378v-4.551h-20.169v4.551h7.378v20.066zM72.065 30.823h0.889l0.373-2.124h0.011l0.395 2.124h0.872l0.645-2.991h-0.734l-0.361 2.124h-0.011l-0.394-2.124h-0.834l-0.373 2.124h-0.011l-0.35-2.124h-0.767l0.651 2.991zM69.712 28.989v-0.117c0-0.278 0.089-0.595 0.395-0.595 0.317 0 0.373 0.256 0.389 0.712h-0.784zM71.23 29.444v-0.172c0-0.918-0.199-1.518-1.095-1.518-1.034 0-1.189 0.745-1.189 1.546 0 0.745 0.044 1.601 1.156 1.601 0.723 0 1.056-0.389 1.084-1.084h-0.689c-0.045 0.367-0.15 0.562-0.406 0.562-0.285 0-0.379-0.345-0.379-0.696v-0.239h1.517zM66.277 30.823h0.766v-1.985c0-0.334 0.145-0.495 0.407-0.495 0.228 0 0.328 0.117 0.328 0.417v2.063h0.766v-2.218c0-0.589-0.283-0.85-0.761-0.85-0.322 0-0.601 0.133-0.763 0.427h-0.011v-0.349h-0.733v2.991zM64.358 28.989v-0.117c0-0.278 0.089-0.595 0.395-0.595 0.317 0 0.373 0.256 0.39 0.712h-0.785zM65.876 29.444v-0.172c0-0.918-0.2-1.518-1.095-1.518-1.034 0-1.189 0.745-1.189 1.546 0 0.745 0.044 1.601 1.156 1.601 0.722 0 1.056-0.389 1.084-1.084h-0.688c-0.044 0.367-0.15 0.562-0.406 0.562-0.284 0-0.379-0.345-0.379-0.696v-0.239h1.517zM61.851 30.823h0.767v-1.796c0-0.401 0.3-0.54 0.567-0.54 0.078 0 0.161 0.006 0.239 0.012v-0.734c-0.044-0.006-0.095-0.011-0.139-0.011-0.317 0-0.534 0.189-0.689 0.478h-0.011v-0.4h-0.733v2.991zM59.431 29.957v0.867h0.289v0.089c0 0.206-0.095 0.406-0.289 0.439v0.389c0.595-0.056 0.734-0.473 0.734-1.062v-0.722h-0.734zM56.791 29.846v0.106c0 0.572 0.239 0.95 1.1 0.95 0.645 0 1.112-0.311 1.112-0.939 0-0.45-0.178-0.695-0.661-0.856l-0.461-0.156c-0.257-0.084-0.334-0.207-0.334-0.351 0-0.212 0.167-0.322 0.361-0.322 0.25 0 0.34 0.15 0.34 0.45h0.689v-0.122c0-0.539-0.328-0.85-1.023-0.85-0.79 0-1.1 0.405-1.1 0.9 0 0.423 0.216 0.684 0.639 0.834l0.539 0.195c0.151 0.056 0.279 0.144 0.279 0.339 0 0.24-0.156 0.356-0.389 0.356-0.262 0-0.401-0.173-0.401-0.434v-0.1h-0.688zM55.673 30.823h0.734v-2.991h-0.767v1.985c0 0.334-0.145 0.495-0.406 0.495-0.228 0-0.328-0.117-0.328-0.417v-2.063h-0.767v2.218c0 0.589 0.283 0.85 0.761 0.85 0.322 0 0.601-0.133 0.763-0.427h0.011v0.349zM53.738 28.911c0-0.706-0.367-1.156-1.072-1.156s-1.212 0.344-1.212 1.573c0 1.201 0.378 1.573 1.145 1.573 0.812 0 1.139-0.438 1.139-1.222h-0.733c0 0.484-0.117 0.701-0.373 0.701-0.345 0-0.412-0.306-0.412-1.046 0-0.69 0.061-1.023 0.439-1.023 0.289 0 0.345 0.311 0.345 0.601h0.733zM49.562 29.328c0-0.612 0.033-1.051 0.412-1.051 0.311 0 0.412 0.306 0.412 1.051s-0.1 1.051-0.412 1.051c-0.379 0-0.412-0.439-0.412-1.051zM48.796 29.328c0 1.040 0.255 1.59 1.178 1.573 0.879 0 1.178-0.549 1.178-1.573 0-1.040-0.256-1.589-1.178-1.573-0.879 0-1.178 0.55-1.178 1.573zM47.417 30.823h0.767v-2.469h0.445v-0.521h-0.445v-0.262c0-0.173 0.077-0.239 0.294-0.239 0.050 0 0.1 0 0.151 0.006v-0.544c-0.139-0.011-0.273-0.017-0.411-0.017-0.494 0-0.8 0.178-0.8 0.717v0.339h-0.389v0.521h0.389v2.469zM45.331 28.989v-0.117c0-0.278 0.089-0.595 0.395-0.595 0.317 0 0.373 0.256 0.39 0.712h-0.785zM46.849 29.444v-0.172c0-0.918-0.2-1.518-1.095-1.518-1.034 0-1.189 0.745-1.189 1.546 0 0.745 0.044 1.601 1.156 1.601 0.723 0 1.056-0.389 1.084-1.084h-0.689c-0.044 0.367-0.151 0.562-0.406 0.562-0.284 0-0.379-0.345-0.379-0.696v-0.239h1.518zM42.824 30.823h0.767v-1.796c0-0.401 0.3-0.54 0.567-0.54 0.078 0 0.162 0.006 0.239 0.012v-0.734c-0.044-0.006-0.095-0.011-0.139-0.011-0.317 0-0.533 0.189-0.689 0.478h-0.011v-0.4h-0.733v2.991zM40.405 29.957v0.867h0.289v0.089c0 0.206-0.095 0.406-0.289 0.439v0.389c0.594-0.056 0.734-0.473 0.734-1.062v-0.722h-0.734zM37.58 30.823h0.767v-1.985c0-0.334 0.145-0.495 0.406-0.495 0.228 0 0.328 0.117 0.328 0.417v2.063h0.767v-2.218c0-0.589-0.284-0.85-0.761-0.85-0.323 0-0.584 0.128-0.729 0.383h-0.011v-1.284h-0.767v3.969zM34.984 29.846v0.106c0 0.572 0.238 0.95 1.1 0.95 0.645 0 1.112-0.311 1.112-0.939 0-0.45-0.178-0.695-0.661-0.856l-0.461-0.156c-0.257-0.084-0.334-0.207-0.334-0.351 0-0.212 0.167-0.322 0.362-0.322 0.25 0 0.34 0.15 0.34 0.45h0.689v-0.122c0-0.539-0.328-0.85-1.023-0.85-0.79 0-1.101 0.405-1.101 0.9 0 0.423 0.216 0.684 0.639 0.834l0.54 0.195c0.15 0.056 0.278 0.144 0.278 0.339 0 0.24-0.156 0.356-0.389 0.356-0.262 0-0.401-0.173-0.401-0.434v-0.1h-0.689zM33.193 28.989v-0.117c0-0.278 0.089-0.595 0.395-0.595 0.317 0 0.373 0.256 0.39 0.712h-0.785zM34.71 29.444v-0.172c0-0.918-0.2-1.518-1.095-1.518-1.034 0-1.19 0.745-1.19 1.546 0 0.745 0.044 1.601 1.157 1.601 0.723 0 1.056-0.389 1.084-1.084h-0.689c-0.044 0.367-0.151 0.562-0.406 0.562-0.284 0-0.379-0.345-0.379-0.696v-0.239h1.517zM30.686 30.823h0.767v-1.796c0-0.401 0.3-0.54 0.567-0.54 0.078 0 0.161 0.006 0.239 0.012v-0.734c-0.044-0.006-0.095-0.011-0.139-0.011-0.317 0-0.534 0.189-0.689 0.478h-0.011v-0.4h-0.733v2.991zM29.207 30.823h0.767v-2.469h0.445v-0.521h-0.445v-0.262c0-0.173 0.078-0.239 0.295-0.239 0.050 0 0.1 0 0.15 0.006v-0.544c-0.139-0.011-0.272-0.017-0.411-0.017-0.494 0-0.8 0.178-0.8 0.717v0.339h-0.389v0.521h0.389v2.469zM27.121 28.989v-0.117c0-0.278 0.089-0.595 0.395-0.595 0.317 0 0.373 0.256 0.39 0.712h-0.785zM28.639 29.444v-0.172c0-0.918-0.2-1.518-1.095-1.518-1.034 0-1.189 0.745-1.189 1.546 0 0.745 0.044 1.601 1.156 1.601 0.723 0 1.056-0.389 1.084-1.084h-0.689c-0.044 0.367-0.15 0.562-0.406 0.562-0.284 0-0.378-0.345-0.378-0.696v-0.239h1.518zM24.614 30.823h0.767v-1.796c0-0.401 0.3-0.54 0.567-0.54 0.078 0 0.161 0.006 0.239 0.012v-0.734c-0.044-0.006-0.095-0.011-0.139-0.011-0.317 0-0.534 0.189-0.689 0.478h-0.011v-0.4h-0.733v2.991z"></path>
</svg>
