<?xml version="1.0" encoding="utf-8"?>
<!-- Generated by IcoMoon.io -->
<!DOCTYPE svg PUBLIC "-//W3C//DTD SVG 1.1//EN" "http://www.w3.org/Graphics/SVG/1.1/DTD/svg11.dtd">
<svg version="1.1" xmlns="http://www.w3.org/2000/svg" xmlns:xlink="http://www.w3.org/1999/xlink" width="98" height="32" viewBox="0 0 98 32">
<path d="M97.786 7.036h-5.25l-4.036 12.643h-0.071l-4.178-12.643h-5.429l6.501 17.321c0.571 1.464 0 3.287-1.75 3.465-1.002 0.035-2-0.107-2.965-0.178v4.177c1.037 0.108 2.071 0.179 3.106 0.179 3.5 0 5.25-1.214 6.358-4.178l7.713-20.786zM65.679 12.714c0.179-1.999 1.428-2.785 3.356-2.785 1.786 0 3.286 0.321 3.286 2.5 0 2.071-2.892 1.964-6 2.428-3.142 0.428-6.285 1.428-6.285 5.607 0 3.785 2.786 5.535 6.285 5.535 2.25 0 4.606-0.607 6.214-2.285 0.036 0.608 0.179 1.214 0.358 1.786h5.143c-0.464-0.75-0.642-2.429-0.642-4.107v-9.607c0-4.428-4.429-5.25-8.107-5.25-4.144 0-8.391 1.428-8.679 6.178h5.072zM72.322 18.357c0 1.108-0.143 4.25-4.108 4.25-1.641 0-3.106-0.463-3.106-2.356 0-1.858 1.43-2.393 3.001-2.715 1.571-0.286 3.356-0.32 4.214-1.072v1.893zM53 16.215c0 3.036-1.001 5.964-4.355 5.964-3.144 0-4.466-3.036-4.466-5.929 0-3.035 1.143-5.892 4.466-5.892 3.285 0 4.355 2.857 4.355 5.857zM53.072 25.5h4.823v-25.5h-5.071v9.286h-0.037c-1.178-1.822-3.321-2.75-5.5-2.75-5.429 0-8.178 4.607-8.178 9.571 0 5.107 2.714 9.893 8.286 9.893 2.356 0 4.428-0.858 5.606-2.856h0.071v2.356zM23.466 16.285c0-2.964 1.034-5.928 4.464-5.928 3.464 0 4.499 2.964 4.499 5.928 0 2.929-1.035 5.893-4.499 5.893-3.43 0-4.464-2.964-4.464-5.893zM18.395 16.285c0 5.858 3.75 9.714 9.536 9.714 5.821 0 9.57-3.856 9.57-9.714 0-5.892-3.75-9.75-9.57-9.75-5.786 0-9.536 3.857-9.536 9.75zM7.638 25.5h5.607v-20.786h7.643v-4.714h-20.893v4.714h7.642v20.786z"></path>
</svg>
