<?xml version="1.0" encoding="utf-8"?>
<!-- Generated by IcoMoon.io -->
<!DOCTYPE svg PUBLIC "-//W3C//DTD SVG 1.1//EN" "http://www.w3.org/Graphics/SVG/1.1/DTD/svg11.dtd">
<svg version="1.1" xmlns="http://www.w3.org/2000/svg" xmlns:xlink="http://www.w3.org/1999/xlink" width="32" height="32" viewBox="0 0 32 32">
<path d="M32.008 6.006c-1.178 0.522-2.444 0.876-3.773 1.034 1.356-0.813 2.398-2.1 2.888-3.634-1.269 0.753-2.675 1.299-4.171 1.594-1.198-1.277-2.905-2.074-4.795-2.074-3.628 0-6.569 2.941-6.569 6.568 0 0.515 0.058 1.016 0.17 1.497-5.459-0.274-10.299-2.889-13.539-6.863-0.565 0.97-0.889 2.098-0.889 3.302 0 2.279 1.16 4.289 2.922 5.467-1.077-0.034-2.090-0.33-2.975-0.822-0.001 0.027-0.001 0.055-0.001 0.083 0 3.183 2.264 5.837 5.269 6.441-0.551 0.15-1.131 0.23-1.731 0.23-0.423 0-0.835-0.041-1.236-0.118 0.836 2.609 3.262 4.509 6.136 4.562-2.248 1.762-5.080 2.812-8.158 2.812-0.53 0-1.053-0.031-1.567-0.092 2.907 1.864 6.36 2.951 10.069 2.951 12.082 0 18.689-10.009 18.689-18.689 0-0.285-0.006-0.568-0.019-0.85 1.284-0.926 2.397-2.083 3.278-3.4z"></path>
</svg>
