<?xml version="1.0" encoding="utf-8"?>
<!-- Generated by IcoMoon.io -->
<!DOCTYPE svg PUBLIC "-//W3C//DTD SVG 1.1//EN" "http://www.w3.org/Graphics/SVG/1.1/DTD/svg11.dtd">
<svg version="1.1" xmlns="http://www.w3.org/2000/svg" xmlns:xlink="http://www.w3.org/1999/xlink" width="32" height="32" viewBox="0 0 32 32">
<path d="M31.963 16.030c0 8.739-7.171 15.908-15.942 15.939-8.738 0.031-15.966-7.146-15.975-15.95-0.009-8.766 7.088-15.931 15.947-15.976 8.763-0.043 15.97 7.185 15.97 15.986zM21.29 29.435c-2.915-3.639-8.353-3.072-10.532 0.015 3.509 1.324 6.999 1.323 10.532-0.015zM21.265 2.598c-2.733-1.354-8.56-1.332-10.501 0.026 2.64 3.341 7.928 3.276 10.501-0.026zM15.22 15.219v-2.909c-2.328-0.073-4.602-0.384-6.918-1.025-0.207 1.347-0.402 2.622-0.603 3.934h7.521zM16.802 12.313v2.896h7.515c-0.206-1.32-0.406-2.592-0.615-3.926-2.323 0.653-4.599 0.951-6.901 1.030zM24.314 16.8h-7.519v2.855c1.172 0.113 2.322 0.179 3.457 0.345 1.13 0.165 2.245 0.429 3.462 0.668 0.199-1.282 0.397-2.558 0.6-3.868zM15.217 19.699v-2.911h-7.522c0.205 1.32 0.404 2.602 0.612 3.939 2.322-0.65 4.588-0.953 6.91-1.028zM15.243 10.745c0-1.344 0.004-2.665-0.010-3.986-0.001-0.071-0.146-0.191-0.235-0.202-1.026-0.123-1.998-0.417-2.907-0.907-0.205-0.11-0.333-0.091-0.482 0.078-0.314 0.355-0.663 0.68-0.961 1.047-0.747 0.922-1.325 1.943-1.752 3.052 1.119 0.467 4.837 1.007 6.347 0.917zM16.768 10.746c1.565 0.085 5.37-0.474 6.35-0.927-0.635-1.583-1.525-2.994-2.795-4.147-0.078-0.071-0.304-0.055-0.419 0.003-0.9 0.455-1.844 0.761-2.848 0.866-0.228 0.024-0.296 0.108-0.291 0.326 0.011 0.563 0.004 1.126 0.004 1.689 0 0.722 0 1.446 0 2.19zM8.878 22.153c0.637 1.568 1.487 2.941 2.688 4.089 0.192 0.183 0.327 0.227 0.576 0.092 0.873-0.474 1.813-0.762 2.802-0.864 0.25-0.026 0.306-0.122 0.305-0.351-0.009-1.199-0.003-2.398-0.005-3.597 0-0.084-0.018-0.168-0.031-0.283-2.153 0.038-4.248 0.332-6.334 0.915zM16.834 21.24c-0.031 0.053-0.054 0.074-0.054 0.096-0.005 1.298-0.012 2.597-0.001 3.896 0 0.076 0.134 0.208 0.218 0.218 1.052 0.123 2.041 0.439 2.981 0.922 0.091 0.046 0.28 0.030 0.351-0.035 1.265-1.155 2.152-2.566 2.806-4.188-2.087-0.574-4.181-0.876-6.301-0.91zM3.311 9.14c-1.014 1.877-1.58 3.904-1.699 6.074h4.526c0.239-1.485 0.472-2.931 0.7-4.346-1.139-0.558-2.313-1.133-3.526-1.728zM25.176 21.141c1.148 0.564 2.328 1.142 3.524 1.73 1.015-1.882 1.585-3.907 1.698-6.074h-4.523c-0.237 1.477-0.468 2.913-0.698 4.344zM30.404 15.239c-0.13-2.198-0.684-4.234-1.706-6.097-1.205 0.591-2.387 1.17-3.568 1.749 0.139 0.684 0.307 1.399 0.423 2.122 0.118 0.736 0.182 1.479 0.271 2.226h4.58zM6.834 21.141c-0.232-1.456-0.464-2.902-0.696-4.353h-4.526c0.12 2.184 0.684 4.213 1.699 6.078 1.205-0.59 2.386-1.169 3.522-1.725zM7.398 22.551c-1.11 0.548-2.183 1.077-3.284 1.621 1.41 1.992 3.104 3.501 5.153 4.587 0.437-0.471 0.85-0.916 1.272-1.37-1.411-1.344-2.382-2.958-3.141-4.837zM22.749 28.76c2.047-1.097 3.749-2.599 5.148-4.593-1.114-0.545-2.189-1.072-3.288-1.61-0.755 1.887-1.743 3.503-3.132 4.835 0.438 0.472 0.846 0.91 1.272 1.368zM27.834 7.803c-0.808-1.484-3.539-3.897-5.106-4.533-0.416 0.448-0.83 0.893-1.195 1.287 0.596 0.771 1.226 1.486 1.739 2.278 0.519 0.8 0.921 1.676 1.404 2.573 0.757-0.362 1.547-0.731 2.328-1.117 0.288-0.142 0.556-0.325 0.831-0.488zM9.263 3.251c-2.053 1.094-3.75 2.601-5.148 4.59 1.106 0.543 2.182 1.071 3.289 1.615 0.743-1.886 1.742-3.505 3.132-4.842-0.443-0.475-0.851-0.912-1.272-1.363z"></path>
</svg>
